<svg width="80" height="80" viewBox="0 0 80 80" fill="none" xmlns="http://www.w3.org/2000/svg">
<path d="M60.1519 57.1973L59.33 49.8L58.8508 46.9251C58.4852 44.731 59.4402 42.5265 61.291 41.2927C63.3391 39.9273 66.0539 40.0591 67.976 41.5968C69.3297 42.6797 70.13 44.3291 70.13 46.0627V48.5952C70.13 49.396 70.0424 50.1944 69.8686 50.9761L68.3156 57.9648C68.0938 58.9628 67.4951 59.8366 66.6445 60.4037C65.4606 61.1929 63.9446 61.2873 62.672 60.651L62.5003 60.5651C61.197 59.9135 60.3128 58.6455 60.1519 57.1973Z" stroke="#B39C79" stroke-linecap="round" stroke-linejoin="round"/>
<path d="M70.1301 49.8008C68.3301 49.0808 63.6501 48.0728 59.3301 49.8008" stroke="#B39C79" stroke-linecap="round" stroke-linejoin="round"/>
<path d="M54.978 60.5171L55.7999 53.1198L56.279 50.2449C56.6447 48.0509 55.6896 45.8463 53.8389 44.6125C51.7908 43.2471 49.076 43.3789 47.1539 44.9166C45.8002 45.9996 44.9999 47.649 44.9999 49.3825V51.915C44.9999 52.7158 45.0875 53.5142 45.2612 54.296L46.8143 61.2847C47.0361 62.2827 47.6348 63.1564 48.4854 63.7235C49.6693 64.5128 51.1853 64.6071 52.4579 63.9708L52.6296 63.885C53.9329 63.2333 54.817 61.9654 54.978 60.5171Z" stroke="#B39C79" stroke-linecap="round" stroke-linejoin="round"/>
<path d="M44.9998 53.1206C46.7998 52.4006 51.4798 51.3926 55.7998 53.1206" stroke="#B39C79" stroke-linecap="round" stroke-linejoin="round"/>
<path d="M25.2609 48.4543H14.8006C14.1347 48.4543 13.6548 47.8156 13.8402 47.176L23.2692 14.6364C23.3625 14.3146 23.6107 14.0609 23.9304 13.9606L33.2212 11.0459C33.3181 11.0155 33.419 11 33.5206 11H46.4793C46.5808 11 46.6818 11.0155 46.7786 11.0459L56.0695 13.9606C56.3892 14.0609 56.6374 14.3146 56.7306 14.6364L61.5557 31.2877L64 40" stroke="#B39C79" stroke-linecap="round" stroke-linejoin="round"/>
<path d="M28.2105 32.8496L25.366 62.9675C25.3106 63.5543 25.7722 64.0615 26.3616 64.0615H40.0017H49M51.7929 32.8496L53.5 44" stroke="#B39C79" stroke-linecap="round" stroke-linejoin="round"/>
<path d="M33 11.0615L40 30.9365M40 30.9365V64.0615M40 30.9365L47 11.0615" stroke="#B39C79" stroke-linecap="round" stroke-linejoin="round"/>
</svg>
