<svg width="16" height="16" viewBox="0 0 16 16" fill="none" xmlns="http://www.w3.org/2000/svg">
<path fill-rule="evenodd" clip-rule="evenodd" d="M5.15 1L10.75 3.1V8H12.15C12.2428 8 12.3319 8.03687 12.3975 8.10251C12.4631 8.16815 12.5 8.25717 12.5 8.35V14.3H12.85C12.9428 14.3 13.0319 14.3369 13.0975 14.4025C13.1631 14.4682 13.2 14.5572 13.2 14.65C13.2 14.7428 13.1631 14.8319 13.0975 14.8975C13.0319 14.9631 12.9428 15 12.85 15H2.35C2.25717 15 2.16815 14.9631 2.10251 14.8975C2.03687 14.8319 2 14.7428 2 14.65C2 14.5572 2.03687 14.4682 2.10251 14.4025C2.16815 14.3369 2.25717 14.3 2.35 14.3H2.7V6.95C2.7 6.85717 2.73687 6.76815 2.80251 6.70251C2.86815 6.63687 2.95717 6.6 3.05 6.6H3.75V4.15H4.45V6.6H5.15V1ZM5.85 2.0101L10.05 3.5851V8H9C8.90717 8 8.81815 8.03687 8.75251 8.10251C8.68687 8.16815 8.65 8.25717 8.65 8.35V14.3H5.85V2.0101ZM3.4 7.3V14.3H5.15V7.3H3.4ZM11.8 14.3H11.1V13.6H10.05V14.3H9.35V8.7H11.8V14.3Z" fill="#B39C79"/>
</svg>
