<svg width="50" height="50" viewBox="0 0 50 50" fill="none" xmlns="http://www.w3.org/2000/svg">
<path d="M12.1096 37.5H37.1094L37.1092 30.7372L37.1094 3.125H33.1299V33.9844H16.6232L16.6232 3.125H12.1094L12.1094 30.7372L12.1096 37.5Z" stroke="#B5A191" stroke-linecap="round" stroke-linejoin="round"/>
<path d="M9.76562 12.5L9.76562 18.75L4.23468 18.75C3.83678 18.75 3.45517 18.6096 3.1738 18.3597C2.89244 18.1097 2.73437 17.7708 2.73437 17.4173L2.73437 13.8327C2.73437 13.4792 2.89244 13.1403 3.1738 12.8903C3.45517 12.6404 3.83678 12.5 4.23468 12.5L9.76562 12.5Z" stroke="#B5A191" stroke-linecap="round" stroke-linejoin="round"/>
<path d="M40.2344 12.5L40.2344 18.75L45.7653 18.75C46.1632 18.75 46.5448 18.6096 46.8262 18.3597C47.1076 18.1097 47.2656 17.7708 47.2656 17.4173L47.2656 13.8327C47.2656 13.4792 47.1076 13.1403 46.8262 12.8903C46.5448 12.6404 46.1632 12.5 45.7653 12.5L40.2344 12.5Z" stroke="#B5A191" stroke-linecap="round" stroke-linejoin="round"/>
<path d="M9.76562 3.125L9.76562 9.375L4.23468 9.375C3.83678 9.375 3.45517 9.23459 3.1738 8.98466C2.89244 8.73473 2.73437 8.39576 2.73437 8.0423L2.73437 4.4577C2.73437 4.10424 2.89244 3.76527 3.1738 3.51534C3.45517 3.26541 3.83678 3.125 4.23468 3.125L9.76562 3.125Z" stroke="#B5A191" stroke-linecap="round" stroke-linejoin="round"/>
<path d="M40.2344 3.125L40.2344 9.375L45.7653 9.375C46.1632 9.375 46.5448 9.23459 46.8262 8.98466C47.1076 8.73473 47.2656 8.39576 47.2656 8.0423L47.2656 4.4577C47.2656 4.10424 47.1076 3.76527 46.8262 3.51534C46.5448 3.26541 46.1632 3.125 45.7653 3.125L40.2344 3.125Z" stroke="#B5A191" stroke-linecap="round" stroke-linejoin="round"/>
<path d="M9.76562 21.875L9.76562 28.125L4.23468 28.125C3.83678 28.125 3.45517 27.9846 3.1738 27.7347C2.89244 27.4847 2.73437 27.1458 2.73437 26.7923L2.73437 23.2077C2.73437 22.8542 2.89244 22.5153 3.1738 22.2653C3.45517 22.0154 3.83678 21.875 4.23468 21.875L9.76562 21.875Z" stroke="#B5A191" stroke-linecap="round" stroke-linejoin="round"/>
<path d="M40.2344 21.875L40.2344 28.125L45.7653 28.125C46.1632 28.125 46.5448 27.9846 46.8262 27.7347C47.1076 27.4847 47.2656 27.1458 47.2656 26.7923L47.2656 23.2077C47.2656 22.8542 47.1076 22.5153 46.8262 22.2653C46.5448 22.0154 46.1632 21.875 45.7653 21.875L40.2344 21.875Z" stroke="#B5A191" stroke-linecap="round" stroke-linejoin="round"/>
<path d="M9.76562 31.25L9.76562 37.5L4.23468 37.5C3.83678 37.5 3.45517 37.3596 3.1738 37.1097C2.89244 36.8597 2.73437 36.5208 2.73437 36.1673L2.73437 32.5827C2.73437 32.2292 2.89244 31.8903 3.1738 31.6403C3.45517 31.3904 3.83678 31.25 4.23468 31.25L9.76562 31.25Z" stroke="#B5A191" stroke-linecap="round" stroke-linejoin="round"/>
<path d="M40.2344 31.25L40.2344 37.5L45.7653 37.5C46.1632 37.5 46.5448 37.3596 46.8262 37.1097C47.1076 36.8597 47.2656 36.5208 47.2656 36.1673L47.2656 32.5827C47.2656 32.2292 47.1076 31.8903 46.8262 31.6403C46.5448 31.3904 46.1632 31.25 45.7653 31.25L40.2344 31.25Z" stroke="#B5A191" stroke-linecap="round" stroke-linejoin="round"/>
<path d="M12.1094 40.2344H18.3594V45.7653C18.3594 46.1632 18.219 46.5448 17.969 46.8262C17.7191 47.1076 17.3801 47.2656 17.0267 47.2656H13.4421C13.0886 47.2656 12.7496 47.1076 12.4997 46.8262C12.2498 46.5448 12.1094 46.1632 12.1094 45.7653L12.1094 40.2344Z" stroke="#B5A191" stroke-linecap="round" stroke-linejoin="round"/>
<path d="M21.4844 40.2344H27.7344V45.7653C27.7344 46.1632 27.594 46.5448 27.344 46.8262C27.0941 47.1076 26.7551 47.2656 26.4017 47.2656H22.8171C22.4636 47.2656 22.1246 47.1076 21.8747 46.8262C21.6248 46.5448 21.4844 46.1632 21.4844 45.7653V40.2344Z" stroke="#B5A191" stroke-linecap="round" stroke-linejoin="round"/>
<path d="M30.8594 40.2344H37.1094V45.7653C37.1094 46.1632 36.969 46.5448 36.719 46.8262C36.4691 47.1076 36.1301 47.2656 35.7767 47.2656H32.1921C31.8386 47.2656 31.4996 47.1076 31.2497 46.8262C30.9998 46.5448 30.8594 46.1632 30.8594 45.7653V40.2344Z" stroke="#B5A191" stroke-linecap="round" stroke-linejoin="round"/>
</svg>
