<svg width="61" height="51" viewBox="0 0 61 51" fill="none" xmlns="http://www.w3.org/2000/svg">
<path d="M36.4375 12.2188L58.3125 12.2188C59.1754 12.2188 59.875 11.5192 59.875 10.6563V2.0625C59.875 1.19956 59.1754 0.5 58.3125 0.5L36.4375 0.5C35.5746 0.5 34.875 1.19956 34.875 2.0625V10.6563C34.875 11.5192 35.5746 12.2188 36.4375 12.2188Z" stroke="#B5A191" stroke-linecap="round" stroke-linejoin="round"/>
<path d="M41.125 22.375H34.875V16.8441C34.875 16.4462 35.0154 16.0645 35.2653 15.7832C35.5153 15.5018 35.8542 15.3437 36.2077 15.3437H39.7923C40.1458 15.3437 40.4847 15.5018 40.7347 15.7832C40.9846 16.0645 41.125 16.4462 41.125 16.8441V22.375Z" stroke="#B5A191" stroke-linecap="round" stroke-linejoin="round"/>
<path d="M50.5 22.375H44.25V16.8441C44.25 16.4462 44.3904 16.0645 44.6403 15.7832C44.8903 15.5018 45.2292 15.3437 45.5827 15.3437H49.1673C49.5208 15.3437 49.8597 15.5018 50.1097 15.7832C50.3596 16.0645 50.5 16.4462 50.5 16.8441V22.375Z" stroke="#B5A191" stroke-linecap="round" stroke-linejoin="round"/>
<path d="M59.875 22.375H53.625V16.8441C53.625 16.4462 53.7654 16.0645 54.0153 15.7832C54.2653 15.5018 54.6042 15.3437 54.9577 15.3437H58.5423C58.8958 15.3437 59.2347 15.5018 59.4847 15.7832C59.7346 16.0645 59.875 16.4462 59.875 16.8441V22.375Z" stroke="#B5A191" stroke-linecap="round" stroke-linejoin="round"/>
<path d="M2.0625 12.2188L23.9375 12.2188C24.8004 12.2188 25.5 11.5192 25.5 10.6563L25.5 2.0625C25.5 1.19956 24.8004 0.5 23.9375 0.5L2.0625 0.5C1.19955 0.5 0.5 1.19956 0.5 2.0625L0.5 10.6563C0.5 11.5192 1.19955 12.2188 2.0625 12.2188Z" stroke="#B5A191" stroke-linecap="round" stroke-linejoin="round"/>
<path d="M6.75 22.375H0.5L0.5 16.8441C0.5 16.4462 0.640409 16.0645 0.890337 15.7832C1.14027 15.5018 1.47924 15.3437 1.8327 15.3437H5.4173C5.77076 15.3437 6.10973 15.5018 6.35966 15.7832C6.60959 16.0645 6.75 16.4462 6.75 16.8441L6.75 22.375Z" stroke="#B5A191" stroke-linecap="round" stroke-linejoin="round"/>
<path d="M16.125 22.375H9.875V16.8441C9.875 16.4462 10.0154 16.0645 10.2653 15.7832C10.5153 15.5018 10.8542 15.3437 11.2077 15.3437H14.7923C15.1458 15.3437 15.4847 15.5018 15.7347 15.7832C15.9846 16.0645 16.125 16.4462 16.125 16.8441V22.375Z" stroke="#B5A191" stroke-linecap="round" stroke-linejoin="round"/>
<path d="M25.5 22.375H19.25V16.8441C19.25 16.4462 19.3904 16.0645 19.6403 15.7832C19.8903 15.5018 20.2292 15.3437 20.5827 15.3437H24.1673C24.5208 15.3437 24.8597 15.5018 25.1097 15.7832C25.3596 16.0645 25.5 16.4462 25.5 16.8441V22.375Z" stroke="#B5A191" stroke-linecap="round" stroke-linejoin="round"/>
<path d="M19.25 40.3438H41.125C41.9879 40.3438 42.6875 39.6442 42.6875 38.7813V30.1875C42.6875 29.3246 41.9879 28.625 41.125 28.625H19.25C18.3871 28.625 17.6875 29.3246 17.6875 30.1875L17.6875 38.7812C17.6875 39.6442 18.3871 40.3438 19.25 40.3438Z" stroke="#B5A191" stroke-linecap="round" stroke-linejoin="round"/>
<path d="M23.9375 50.5H17.6875V44.9691C17.6875 44.5712 17.8279 44.1895 18.0778 43.9082C18.3278 43.6268 18.6667 43.4687 19.0202 43.4687H22.6048C22.9583 43.4687 23.2972 43.6268 23.5472 43.9082C23.7971 44.1895 23.9375 44.5712 23.9375 44.9691V50.5Z" stroke="#B5A191" stroke-linecap="round" stroke-linejoin="round"/>
<path d="M33.3125 50.5H27.0625V44.9691C27.0625 44.5712 27.2029 44.1895 27.4528 43.9082C27.7028 43.6268 28.0417 43.4687 28.3952 43.4687H31.9798C32.3333 43.4687 32.6722 43.6268 32.9222 43.9082C33.1721 44.1895 33.3125 44.5712 33.3125 44.9691V50.5Z" stroke="#B5A191" stroke-linecap="round" stroke-linejoin="round"/>
<path d="M42.6875 50.5H36.4375V44.9691C36.4375 44.5712 36.5779 44.1895 36.8278 43.9082C37.0778 43.6268 37.4167 43.4687 37.7702 43.4687H41.3548C41.7083 43.4687 42.0472 43.6268 42.2972 43.9082C42.5471 44.1895 42.6875 44.5712 42.6875 44.9691V50.5Z" stroke="#B5A191" stroke-linecap="round" stroke-linejoin="round"/>
</svg>
