<svg width="79" height="77" viewBox="0 0 79 77" fill="none" xmlns="http://www.w3.org/2000/svg">
<g clip-path="url(#clip0_1465_5026)">
<path d="M33.8799 56.0173V52.5898C33.8799 52.0376 34.3276 51.5898 34.8799 51.5898H43.6599C44.2122 51.5898 44.6599 52.0376 44.6599 52.5898V68.2998C44.6599 68.8521 44.2122 69.2998 43.6599 69.2998H34.8799C34.3276 69.2998 33.8799 68.8521 33.8799 68.2998L33.8799 60.4999" stroke="#B39C79" stroke-width="1.5" stroke-linecap="round"/>
<rect x="33.7695" y="36" width="11" height="12" rx="1" stroke="#B39C79" stroke-width="1.5"/>
<rect x="33.7695" y="19" width="11" height="12" rx="1" stroke="#B39C79" stroke-width="1.5"/>
<rect x="10.7695" y="20" width="11" height="12" rx="1" stroke="#B39C79" stroke-width="1.5"/>
<rect x="56.7695" y="20" width="11" height="12" rx="1" stroke="#B39C79" stroke-width="1.5"/>
<rect x="10.7695" y="37" width="11" height="12" rx="1" stroke="#B39C79" stroke-width="1.5"/>
<rect x="56.7695" y="37" width="11" height="12" rx="1" stroke="#B39C79" stroke-width="1.5"/>
<rect x="10.7695" y="54" width="11" height="12" rx="1" stroke="#B39C79" stroke-width="1.5"/>
<rect x="56.7695" y="54" width="11" height="12" rx="1" stroke="#B39C79" stroke-width="1.5"/>
<rect x="10.7793" width="56.98" height="6.93" rx="1" stroke="#B39C79" stroke-width="1.5"/>
<rect y="6.92969" width="78.54" height="6.93" rx="1" stroke="#B39C79" stroke-width="1.5"/>
<path d="M3.09961 25.4994C3.09961 25.9136 3.4354 26.2494 3.84961 26.2494C4.26382 26.2494 4.59961 25.9136 4.59961 25.4994H3.84961H3.09961ZM4.59961 30.9994C4.59961 30.5852 4.26382 30.2494 3.84961 30.2494C3.4354 30.2494 3.09961 30.5852 3.09961 30.9994H3.84961H4.59961ZM4.84961 13.8594V14.6094H73.6896V13.8594V13.1094H4.84961V13.8594ZM73.6896 69.2994V68.5494H4.84961V69.2994V70.0494H73.6896V69.2994ZM3.84961 25.4994H4.59961C4.59961 25.4912 4.59961 25.483 4.59961 25.4748C4.59961 25.4666 4.59961 25.4584 4.59961 25.4502C4.59961 25.4421 4.59961 25.4339 4.59961 25.4257C4.59961 25.4176 4.59961 25.4094 4.59961 25.4012C4.59961 25.3931 4.59961 25.3849 4.59961 25.3768C4.59961 25.3687 4.59961 25.3605 4.59961 25.3524C4.59961 25.3443 4.59961 25.3361 4.59961 25.328C4.59961 25.3199 4.59961 25.3118 4.59961 25.3037C4.59961 25.2956 4.59961 25.2875 4.59961 25.2794C4.59961 25.2713 4.59961 25.2632 4.59961 25.2552C4.59961 25.2471 4.59961 25.239 4.59961 25.2309C4.59961 25.2229 4.59961 25.2148 4.59961 25.2068C4.59961 25.1987 4.59961 25.1907 4.59961 25.1826C4.59961 25.1746 4.59961 25.1666 4.59961 25.1585C4.59961 25.1505 4.59961 25.1425 4.59961 25.1345C4.59961 25.1265 4.59961 25.1184 4.59961 25.1104C4.59961 25.1024 4.59961 25.0944 4.59961 25.0864C4.59961 25.0785 4.59961 25.0705 4.59961 25.0625C4.59961 25.0545 4.59961 25.0465 4.59961 25.0386C4.59961 25.0306 4.59961 25.0227 4.59961 25.0147C4.59961 25.0067 4.59961 24.9988 4.59961 24.9909C4.59961 24.9829 4.59961 24.975 4.59961 24.967C4.59961 24.9591 4.59961 24.9512 4.59961 24.9433C4.59961 24.9354 4.59961 24.9274 4.59961 24.9195C4.59961 24.9116 4.59961 24.9037 4.59961 24.8958C4.59961 24.8879 4.59961 24.88 4.59961 24.8722C4.59961 24.8643 4.59961 24.8564 4.59961 24.8485C4.59961 24.8407 4.59961 24.8328 4.59961 24.8249C4.59961 24.8171 4.59961 24.8092 4.59961 24.8014C4.59961 24.7935 4.59961 24.7857 4.59961 24.7779C4.59961 24.77 4.59961 24.7622 4.59961 24.7544C4.59961 24.7465 4.59961 24.7387 4.59961 24.7309C4.59961 24.7231 4.59961 24.7153 4.59961 24.7075C4.59961 24.6997 4.59961 24.6919 4.59961 24.6841C4.59961 24.6763 4.59961 24.6685 4.59961 24.6607C4.59961 24.653 4.59961 24.6452 4.59961 24.6374C4.59961 24.6297 4.59961 24.6219 4.59961 24.6141C4.59961 24.6064 4.59961 24.5986 4.59961 24.5909C4.59961 24.5831 4.59961 24.5754 4.59961 24.5677C4.59961 24.5599 4.59961 24.5522 4.59961 24.5445C4.59961 24.5368 4.59961 24.5291 4.59961 24.5213C4.59961 24.5136 4.59961 24.5059 4.59961 24.4982C4.59961 24.4905 4.59961 24.4828 4.59961 24.4751C4.59961 24.4675 4.59961 24.4598 4.59961 24.4521C4.59961 24.4444 4.59961 24.4367 4.59961 24.4291C4.59961 24.4214 4.59961 24.4137 4.59961 24.4061C4.59961 24.3984 4.59961 24.3908 4.59961 24.3831C4.59961 24.3755 4.59961 24.3679 4.59961 24.3602C4.59961 24.3526 4.59961 24.345 4.59961 24.3373C4.59961 24.3297 4.59961 24.3221 4.59961 24.3145C4.59961 24.3069 4.59961 24.2993 4.59961 24.2916C4.59961 24.284 4.59961 24.2764 4.59961 24.2689C4.59961 24.2613 4.59961 24.2537 4.59961 24.2461C4.59961 24.2385 4.59961 24.2309 4.59961 24.2234C4.59961 24.2158 4.59961 24.2082 4.59961 24.2007C4.59961 24.1931 4.59961 24.1856 4.59961 24.178C4.59961 24.1705 4.59961 24.1629 4.59961 24.1554C4.59961 24.1478 4.59961 24.1403 4.59961 24.1328C4.59961 24.1252 4.59961 24.1177 4.59961 24.1102C4.59961 24.1027 4.59961 24.0952 4.59961 24.0877C4.59961 24.0801 4.59961 24.0726 4.59961 24.0651C4.59961 24.0576 4.59961 24.0501 4.59961 24.0427C4.59961 24.0352 4.59961 24.0277 4.59961 24.0202C4.59961 24.0127 4.59961 24.0053 4.59961 23.9978C4.59961 23.9903 4.59961 23.9829 4.59961 23.9754C4.59961 23.9679 4.59961 23.9605 4.59961 23.953C4.59961 23.9456 4.59961 23.9381 4.59961 23.9307C4.59961 23.9233 4.59961 23.9158 4.59961 23.9084C4.59961 23.901 4.59961 23.8935 4.59961 23.8861C4.59961 23.8787 4.59961 23.8713 4.59961 23.8639C4.59961 23.8565 4.59961 23.8491 4.59961 23.8417C4.59961 23.8343 4.59961 23.8269 4.59961 23.8195C4.59961 23.8121 4.59961 23.8047 4.59961 23.7973C4.59961 23.79 4.59961 23.7826 4.59961 23.7752C4.59961 23.7678 4.59961 23.7605 4.59961 23.7531C4.59961 23.7457 4.59961 23.7384 4.59961 23.731C4.59961 23.7237 4.59961 23.7163 4.59961 23.709C4.59961 23.7017 4.59961 23.6943 4.59961 23.687C4.59961 23.6797 4.59961 23.6723 4.59961 23.665C4.59961 23.6577 4.59961 23.6504 4.59961 23.643C4.59961 23.6357 4.59961 23.6284 4.59961 23.6211C4.59961 23.6138 4.59961 23.6065 4.59961 23.5992C4.59961 23.5919 4.59961 23.5846 4.59961 23.5773C4.59961 23.5701 4.59961 23.5628 4.59961 23.5555C4.59961 23.5482 4.59961 23.5409 4.59961 23.5337C4.59961 23.5264 4.59961 23.5191 4.59961 23.5119C4.59961 23.5046 4.59961 23.4974 4.59961 23.4901C4.59961 23.4829 4.59961 23.4756 4.59961 23.4684C4.59961 23.4611 4.59961 23.4539 4.59961 23.4467C4.59961 23.4394 4.59961 23.4322 4.59961 23.425C4.59961 23.4178 4.59961 23.4105 4.59961 23.4033C4.59961 23.3961 4.59961 23.3889 4.59961 23.3817C4.59961 23.3745 4.59961 23.3673 4.59961 23.3601C4.59961 23.3529 4.59961 23.3457 4.59961 23.3385C4.59961 23.3313 4.59961 23.3241 4.59961 23.3169C4.59961 23.3098 4.59961 23.3026 4.59961 23.2954C4.59961 23.2882 4.59961 23.2811 4.59961 23.2739C4.59961 23.2667 4.59961 23.2596 4.59961 23.2524C4.59961 23.2453 4.59961 23.2381 4.59961 23.231C4.59961 23.2238 4.59961 23.2167 4.59961 23.2095C4.59961 23.2024 4.59961 23.1953 4.59961 23.1881C4.59961 23.181 4.59961 23.1739 4.59961 23.1668C4.59961 23.1596 4.59961 23.1525 4.59961 23.1454C4.59961 23.1383 4.59961 23.1312 4.59961 23.1241C4.59961 23.117 4.59961 23.1099 4.59961 23.1028C4.59961 23.0957 4.59961 23.0886 4.59961 23.0815C4.59961 23.0744 4.59961 23.0673 4.59961 23.0602C4.59961 23.0532 4.59961 23.0461 4.59961 23.039C4.59961 23.0319 4.59961 23.0249 4.59961 23.0178C4.59961 23.0107 4.59961 23.0037 4.59961 22.9966C4.59961 22.9895 4.59961 22.9825 4.59961 22.9754C4.59961 22.9684 4.59961 22.9613 4.59961 22.9543C4.59961 22.9473 4.59961 22.9402 4.59961 22.9332C4.59961 22.9262 4.59961 22.9191 4.59961 22.9121C4.59961 22.9051 4.59961 22.898 4.59961 22.891C4.59961 22.884 4.59961 22.877 4.59961 22.87C4.59961 22.863 4.59961 22.856 4.59961 22.849C4.59961 22.842 4.59961 22.835 4.59961 22.828C4.59961 22.821 4.59961 22.814 4.59961 22.807C4.59961 22.8 4.59961 22.793 4.59961 22.786C4.59961 22.779 4.59961 22.7721 4.59961 22.7651C4.59961 22.7581 4.59961 22.7511 4.59961 22.7442C4.59961 22.7372 4.59961 22.7302 4.59961 22.7233C4.59961 22.7163 4.59961 22.7094 4.59961 22.7024C4.59961 22.6955 4.59961 22.6885 4.59961 22.6816C4.59961 22.6746 4.59961 22.6677 4.59961 22.6607C4.59961 22.6538 4.59961 22.6469 4.59961 22.6399C4.59961 22.633 4.59961 22.6261 4.59961 22.6192C4.59961 22.6122 4.59961 22.6053 4.59961 22.5984C4.59961 22.5915 4.59961 22.5846 4.59961 22.5776C4.59961 22.5707 4.59961 22.5638 4.59961 22.5569C4.59961 22.55 4.59961 22.5431 4.59961 22.5362C4.59961 22.5293 4.59961 22.5224 4.59961 22.5155C4.59961 22.5087 4.59961 22.5018 4.59961 22.4949C4.59961 22.488 4.59961 22.4811 4.59961 22.4742C4.59961 22.4674 4.59961 22.4605 4.59961 22.4536C4.59961 22.4468 4.59961 22.4399 4.59961 22.433C4.59961 22.4262 4.59961 22.4193 4.59961 22.4124C4.59961 22.4056 4.59961 22.3987 4.59961 22.3919C4.59961 22.385 4.59961 22.3782 4.59961 22.3713C4.59961 22.3645 4.59961 22.3577 4.59961 22.3508C4.59961 22.344 4.59961 22.3372 4.59961 22.3303C4.59961 22.3235 4.59961 22.3167 4.59961 22.3098C4.59961 22.303 4.59961 22.2962 4.59961 22.2894C4.59961 22.2826 4.59961 22.2757 4.59961 22.2689C4.59961 22.2621 4.59961 22.2553 4.59961 22.2485C4.59961 22.2417 4.59961 22.2349 4.59961 22.2281C4.59961 22.2213 4.59961 22.2145 4.59961 22.2077C4.59961 22.2009 4.59961 22.1941 4.59961 22.1873C4.59961 22.1805 4.59961 22.1738 4.59961 22.167C4.59961 22.1602 4.59961 22.1534 4.59961 22.1466C4.59961 22.1399 4.59961 22.1331 4.59961 22.1263C4.59961 22.1196 4.59961 22.1128 4.59961 22.106C4.59961 22.0993 4.59961 22.0925 4.59961 22.0857C4.59961 22.079 4.59961 22.0722 4.59961 22.0655C4.59961 22.0587 4.59961 22.052 4.59961 22.0452C4.59961 22.0385 4.59961 22.0317 4.59961 22.025C4.59961 22.0183 4.59961 22.0115 4.59961 22.0048C4.59961 21.998 4.59961 21.9913 4.59961 21.9846C4.59961 21.9779 4.59961 21.9711 4.59961 21.9644C4.59961 21.9577 4.59961 21.951 4.59961 21.9442C4.59961 21.9375 4.59961 21.9308 4.59961 21.9241C4.59961 21.9174 4.59961 21.9107 4.59961 21.904C4.59961 21.8972 4.59961 21.8905 4.59961 21.8838C4.59961 21.8771 4.59961 21.8704 4.59961 21.8637C4.59961 21.857 4.59961 21.8503 4.59961 21.8437C4.59961 21.837 4.59961 21.8303 4.59961 21.8236C4.59961 21.8169 4.59961 21.8102 4.59961 21.8035C4.59961 21.7969 4.59961 21.7902 4.59961 21.7835C4.59961 21.7768 4.59961 21.7701 4.59961 21.7635C4.59961 21.7568 4.59961 21.7501 4.59961 21.7435C4.59961 21.7368 4.59961 21.7301 4.59961 21.7235C4.59961 21.7168 4.59961 21.7102 4.59961 21.7035C4.59961 21.6968 4.59961 21.6902 4.59961 21.6835C4.59961 21.6769 4.59961 21.6702 4.59961 21.6636C4.59961 21.6569 4.59961 21.6503 4.59961 21.6436C4.59961 21.637 4.59961 21.6304 4.59961 21.6237C4.59961 21.6171 4.59961 21.6105 4.59961 21.6038C4.59961 21.5972 4.59961 21.5906 4.59961 21.5839C4.59961 21.5773 4.59961 21.5707 4.59961 21.5641C4.59961 21.5574 4.59961 21.5508 4.59961 21.5442C4.59961 21.5376 4.59961 21.5309 4.59961 21.5243C4.59961 21.5177 4.59961 21.5111 4.59961 21.5045C4.59961 21.4979 4.59961 21.4913 4.59961 21.4847C4.59961 21.4781 4.59961 21.4715 4.59961 21.4649C4.59961 21.4583 4.59961 21.4517 4.59961 21.4451C4.59961 21.4385 4.59961 21.4319 4.59961 21.4253C4.59961 21.4187 4.59961 21.4121 4.59961 21.4055C4.59961 21.3989 4.59961 21.3923 4.59961 21.3857C4.59961 21.3792 4.59961 21.3726 4.59961 21.366C4.59961 21.3594 4.59961 21.3528 4.59961 21.3463C4.59961 21.3397 4.59961 21.3331 4.59961 21.3265C4.59961 21.32 4.59961 21.3134 4.59961 21.3068C4.59961 21.3003 4.59961 21.2937 4.59961 21.2871C4.59961 21.2806 4.59961 21.274 4.59961 21.2674C4.59961 21.2609 4.59961 21.2543 4.59961 21.2478C4.59961 21.2412 4.59961 21.2346 4.59961 21.2281C4.59961 21.2215 4.59961 21.215 4.59961 21.2084C4.59961 21.2019 4.59961 21.1953 4.59961 21.1888C4.59961 21.1823 4.59961 21.1757 4.59961 21.1692C4.59961 21.1626 4.59961 21.1561 4.59961 21.1495C4.59961 21.143 4.59961 21.1365 4.59961 21.1299C4.59961 21.1234 4.59961 21.1169 4.59961 21.1103C4.59961 21.1038 4.59961 21.0973 4.59961 21.0907C4.59961 21.0842 4.59961 21.0777 4.59961 21.0712C4.59961 21.0646 4.59961 21.0581 4.59961 21.0516C4.59961 21.0451 4.59961 21.0386 4.59961 21.032C4.59961 21.0255 4.59961 21.019 4.59961 21.0125C4.59961 21.006 4.59961 20.9995 4.59961 20.993C4.59961 20.9864 4.59961 20.9799 4.59961 20.9734C4.59961 20.9669 4.59961 20.9604 4.59961 20.9539C4.59961 20.9474 4.59961 20.9409 4.59961 20.9344C4.59961 20.9279 4.59961 20.9214 4.59961 20.9149C4.59961 20.9084 4.59961 20.9019 4.59961 20.8954C4.59961 20.8889 4.59961 20.8824 4.59961 20.8759C4.59961 20.8694 4.59961 20.8629 4.59961 20.8564C4.59961 20.85 4.59961 20.8435 4.59961 20.837C4.59961 20.8305 4.59961 20.824 4.59961 20.8175C4.59961 20.811 4.59961 20.8046 4.59961 20.7981C4.59961 20.7916 4.59961 20.7851 4.59961 20.7786C4.59961 20.7721 4.59961 20.7657 4.59961 20.7592C4.59961 20.7527 4.59961 20.7462 4.59961 20.7398C4.59961 20.7333 4.59961 20.7268 4.59961 20.7204C4.59961 20.7139 4.59961 20.7074 4.59961 20.7009C4.59961 20.6945 4.59961 20.688 4.59961 20.6815C4.59961 20.6751 4.59961 20.6686 4.59961 20.6621C4.59961 20.6557 4.59961 20.6492 4.59961 20.6428C4.59961 20.6363 4.59961 20.6298 4.59961 20.6234C4.59961 20.6169 4.59961 20.6105 4.59961 20.604C4.59961 20.5975 4.59961 20.5911 4.59961 20.5846C4.59961 20.5782 4.59961 20.5717 4.59961 20.5653C4.59961 20.5588 4.59961 20.5524 4.59961 20.5459C4.59961 20.5395 4.59961 20.533 4.59961 20.5266C4.59961 20.5201 4.59961 20.5137 4.59961 20.5072C4.59961 20.5008 4.59961 20.4943 4.59961 20.4879C4.59961 20.4814 4.59961 20.475 4.59961 20.4686C4.59961 20.4621 4.59961 20.4557 4.59961 20.4492C4.59961 20.4428 4.59961 20.4364 4.59961 20.4299C4.59961 20.4235 4.59961 20.417 4.59961 20.4106C4.59961 20.4042 4.59961 20.3977 4.59961 20.3913C4.59961 20.3849 4.59961 20.3784 4.59961 20.372C4.59961 20.3656 4.59961 20.3591 4.59961 20.3527C4.59961 20.3463 4.59961 20.3398 4.59961 20.3334C4.59961 20.327 4.59961 20.3205 4.59961 20.3141C4.59961 20.3077 4.59961 20.3013 4.59961 20.2948C4.59961 20.2884 4.59961 20.282 4.59961 20.2756C4.59961 20.2691 4.59961 20.2627 4.59961 20.2563C4.59961 20.2499 4.59961 20.2434 4.59961 20.237C4.59961 20.2306 4.59961 20.2242 4.59961 20.2178C4.59961 20.2113 4.59961 20.2049 4.59961 20.1985C4.59961 20.1921 4.59961 20.1856 4.59961 20.1792C4.59961 20.1728 4.59961 20.1664 4.59961 20.16C4.59961 20.1536 4.59961 20.1471 4.59961 20.1407C4.59961 20.1343 4.59961 20.1279 4.59961 20.1215C4.59961 20.1151 4.59961 20.1086 4.59961 20.1022C4.59961 20.0958 4.59961 20.0894 4.59961 20.083C4.59961 20.0766 4.59961 20.0702 4.59961 20.0638C4.59961 20.0573 4.59961 20.0509 4.59961 20.0445C4.59961 20.0381 4.59961 20.0317 4.59961 20.0253C4.59961 20.0189 4.59961 20.0125 4.59961 20.0061C4.59961 19.9996 4.59961 19.9932 4.59961 19.9868C4.59961 19.9804 4.59961 19.974 4.59961 19.9676C4.59961 19.9612 4.59961 19.9548 4.59961 19.9484C4.59961 19.942 4.59961 19.9356 4.59961 19.9292C4.59961 19.9228 4.59961 19.9163 4.59961 19.9099C4.59961 19.9035 4.59961 19.8971 4.59961 19.8907C4.59961 19.8843 4.59961 19.8779 4.59961 19.8715C4.59961 19.8651 4.59961 19.8587 4.59961 19.8523C4.59961 19.8459 4.59961 19.8395 4.59961 19.8331C4.59961 19.8267 4.59961 19.8203 4.59961 19.8139C4.59961 19.8075 4.59961 19.8011 4.59961 19.7947C4.59961 19.7883 4.59961 19.7818 4.59961 19.7754C4.59961 19.769 4.59961 19.7626 4.59961 19.7562C4.59961 19.7498 4.59961 19.7434 4.59961 19.737C4.59961 19.7306 4.59961 19.7242 4.59961 19.7178C4.59961 19.7114 4.59961 19.705 4.59961 19.6986C4.59961 19.6922 4.59961 19.6858 4.59961 19.6794C4.59961 19.673 4.59961 19.6666 4.59961 19.6602C4.59961 19.6538 4.59961 19.6474 4.59961 19.641C4.59961 19.6346 4.59961 19.6282 4.59961 19.6218C4.59961 19.6154 4.59961 19.609 4.59961 19.6026C4.59961 19.5962 4.59961 19.5898 4.59961 19.5834C4.59961 19.577 4.59961 19.5705 4.59961 19.5641C4.59961 19.5577 4.59961 19.5513 4.59961 19.5449C4.59961 19.5385 4.59961 19.5321 4.59961 19.5257C4.59961 19.5193 4.59961 19.5129 4.59961 19.5065C4.59961 19.5001 4.59961 19.4937 4.59961 19.4873C4.59961 19.4809 4.59961 19.4745 4.59961 19.4681C4.59961 19.4617 4.59961 19.4553 4.59961 19.4489C4.59961 19.4425 4.59961 19.436 4.59961 19.4296C4.59961 19.4232 4.59961 19.4168 4.59961 19.4104C4.59961 19.404 4.59961 19.3976 4.59961 19.3912C4.59961 19.3848 4.59961 19.3784 4.59961 19.372C4.59961 19.3656 4.59961 19.3592 4.59961 19.3527C4.59961 19.3463 4.59961 19.3399 4.59961 19.3335C4.59961 19.3271 4.59961 19.3207 4.59961 19.3143C4.59961 19.3079 4.59961 19.3015 4.59961 19.295C4.59961 19.2886 4.59961 19.2822 4.59961 19.2758C4.59961 19.2694 4.59961 19.263 4.59961 19.2566C4.59961 19.2502 4.59961 19.2437 4.59961 19.2373C4.59961 19.2309 4.59961 19.2245 4.59961 19.2181C4.59961 19.2117 4.59961 19.2052 4.59961 19.1988C4.59961 19.1924 4.59961 19.186 4.59961 19.1796C4.59961 19.1732 4.59961 19.1667 4.59961 19.1603C4.59961 19.1539 4.59961 19.1475 4.59961 19.1411C4.59961 19.1346 4.59961 19.1282 4.59961 19.1218C4.59961 19.1154 4.59961 19.1089 4.59961 19.1025C4.59961 19.0961 4.59961 19.0897 4.59961 19.0832C4.59961 19.0768 4.59961 19.0704 4.59961 19.064C4.59961 19.0575 4.59961 19.0511 4.59961 19.0447C4.59961 19.0383 4.59961 19.0318 4.59961 19.0254C4.59961 19.019 4.59961 19.0125 4.59961 19.0061C4.59961 18.9997 4.59961 18.9932 4.59961 18.9868C4.59961 18.9804 4.59961 18.9739 4.59961 18.9675C4.59961 18.9611 4.59961 18.9546 4.59961 18.9482C4.59961 18.9418 4.59961 18.9353 4.59961 18.9289C4.59961 18.9224 4.59961 18.916 4.59961 18.9096C4.59961 18.9031 4.59961 18.8967 4.59961 18.8902C4.59961 18.8838 4.59961 18.8774 4.59961 18.8709C4.59961 18.8645 4.59961 18.858 4.59961 18.8516C4.59961 18.8451 4.59961 18.8387 4.59961 18.8322C4.59961 18.8258 4.59961 18.8193 4.59961 18.8129C4.59961 18.8064 4.59961 18.8 4.59961 18.7935C4.59961 18.7871 4.59961 18.7806 4.59961 18.7742C4.59961 18.7677 4.59961 18.7613 4.59961 18.7548C4.59961 18.7483 4.59961 18.7419 4.59961 18.7354C4.59961 18.729 4.59961 18.7225 4.59961 18.716C4.59961 18.7096 4.59961 18.7031 4.59961 18.6967C4.59961 18.6902 4.59961 18.6837 4.59961 18.6773C4.59961 18.6708 4.59961 18.6643 4.59961 18.6579C4.59961 18.6514 4.59961 18.6449 4.59961 18.6385C4.59961 18.632 4.59961 18.6255 4.59961 18.619C4.59961 18.6126 4.59961 18.6061 4.59961 18.5996C4.59961 18.5931 4.59961 18.5867 4.59961 18.5802C4.59961 18.5737 4.59961 18.5672 4.59961 18.5607C4.59961 18.5543 4.59961 18.5478 4.59961 18.5413C4.59961 18.5348 4.59961 18.5283 4.59961 18.5218C4.59961 18.5153 4.59961 18.5089 4.59961 18.5024C4.59961 18.4959 4.59961 18.4894 4.59961 18.4829C4.59961 18.4764 4.59961 18.4699 4.59961 18.4634C4.59961 18.4569 4.59961 18.4504 4.59961 18.4439C4.59961 18.4374 4.59961 18.4309 4.59961 18.4244C4.59961 18.4179 4.59961 18.4114 4.59961 18.4049C4.59961 18.3984 4.59961 18.3919 4.59961 18.3854C4.59961 18.3789 4.59961 18.3724 4.59961 18.3658C4.59961 18.3593 4.59961 18.3528 4.59961 18.3463C4.59961 18.3398 4.59961 18.3333 4.59961 18.3268C4.59961 18.3202 4.59961 18.3137 4.59961 18.3072C4.59961 18.3007 4.59961 18.2942 4.59961 18.2876C4.59961 18.2811 4.59961 18.2746 4.59961 18.2681C4.59961 18.2615 4.59961 18.255 4.59961 18.2485C4.59961 18.2419 4.59961 18.2354 4.59961 18.2289C4.59961 18.2223 4.59961 18.2158 4.59961 18.2093C4.59961 18.2027 4.59961 18.1962 4.59961 18.1896C4.59961 18.1831 4.59961 18.1765 4.59961 18.17C4.59961 18.1635 4.59961 18.1569 4.59961 18.1504C4.59961 18.1438 4.59961 18.1373 4.59961 18.1307C4.59961 18.1242 4.59961 18.1176 4.59961 18.111C4.59961 18.1045 4.59961 18.0979 4.59961 18.0914C4.59961 18.0848 4.59961 18.0782 4.59961 18.0717C4.59961 18.0651 4.59961 18.0585 4.59961 18.052C4.59961 18.0454 4.59961 18.0388 4.59961 18.0323C4.59961 18.0257 4.59961 18.0191 4.59961 18.0125C4.59961 18.006 4.59961 17.9994 4.59961 17.9928C4.59961 17.9862 4.59961 17.9796 4.59961 17.9731C4.59961 17.9665 4.59961 17.9599 4.59961 17.9533C4.59961 17.9467 4.59961 17.9401 4.59961 17.9335C4.59961 17.9269 4.59961 17.9203 4.59961 17.9137C4.59961 17.9071 4.59961 17.9005 4.59961 17.8939C4.59961 17.8873 4.59961 17.8807 4.59961 17.8741C4.59961 17.8675 4.59961 17.8609 4.59961 17.8543C4.59961 17.8477 4.59961 17.8411 4.59961 17.8345C4.59961 17.8279 4.59961 17.8212 4.59961 17.8146C4.59961 17.808 4.59961 17.8014 4.59961 17.7948C4.59961 17.7881 4.59961 17.7815 4.59961 17.7749C4.59961 17.7682 4.59961 17.7616 4.59961 17.755C4.59961 17.7484 4.59961 17.7417 4.59961 17.7351C4.59961 17.7284 4.59961 17.7218 4.59961 17.7152C4.59961 17.7085 4.59961 17.7019 4.59961 17.6952C4.59961 17.6886 4.59961 17.6819 4.59961 17.6753C4.59961 17.6686 4.59961 17.662 4.59961 17.6553C4.59961 17.6487 4.59961 17.642 4.59961 17.6353C4.59961 17.6287 4.59961 17.622 4.59961 17.6153C4.59961 17.6087 4.59961 17.602 4.59961 17.5953C4.59961 17.5887 4.59961 17.582 4.59961 17.5753C4.59961 17.5686 4.59961 17.562 4.59961 17.5553C4.59961 17.5486 4.59961 17.5419 4.59961 17.5352C4.59961 17.5285 4.59961 17.5218 4.59961 17.5151C4.59961 17.5085 4.59961 17.5018 4.59961 17.4951C4.59961 17.4884 4.59961 17.4817 4.59961 17.475C4.59961 17.4683 4.59961 17.4616 4.59961 17.4548C4.59961 17.4481 4.59961 17.4414 4.59961 17.4347C4.59961 17.428 4.59961 17.4213 4.59961 17.4146C4.59961 17.4078 4.59961 17.4011 4.59961 17.3944C4.59961 17.3877 4.59961 17.381 4.59961 17.3742C4.59961 17.3675 4.59961 17.3608 4.59961 17.354C4.59961 17.3473 4.59961 17.3406 4.59961 17.3338C4.59961 17.3271 4.59961 17.3203 4.59961 17.3136C4.59961 17.3068 4.59961 17.3001 4.59961 17.2933C4.59961 17.2866 4.59961 17.2798 4.59961 17.2731C4.59961 17.2663 4.59961 17.2595 4.59961 17.2528C4.59961 17.246 4.59961 17.2392 4.59961 17.2325C4.59961 17.2257 4.59961 17.2189 4.59961 17.2122C4.59961 17.2054 4.59961 17.1986 4.59961 17.1918C4.59961 17.185 4.59961 17.1783 4.59961 17.1715C4.59961 17.1647 4.59961 17.1579 4.59961 17.1511C4.59961 17.1443 4.59961 17.1375 4.59961 17.1307C4.59961 17.1239 4.59961 17.1171 4.59961 17.1103C4.59961 17.1035 4.59961 17.0967 4.59961 17.0899C4.59961 17.0831 4.59961 17.0762 4.59961 17.0694C4.59961 17.0626 4.59961 17.0558 4.59961 17.049C4.59961 17.0421 4.59961 17.0353 4.59961 17.0285C4.59961 17.0216 4.59961 17.0148 4.59961 17.008C4.59961 17.0011 4.59961 16.9943 4.59961 16.9875C4.59961 16.9806 4.59961 16.9738 4.59961 16.9669C4.59961 16.9601 4.59961 16.9532 4.59961 16.9464C4.59961 16.9395 4.59961 16.9326 4.59961 16.9258C4.59961 16.9189 4.59961 16.912 4.59961 16.9052C4.59961 16.8983 4.59961 16.8914 4.59961 16.8846C4.59961 16.8777 4.59961 16.8708 4.59961 16.8639C4.59961 16.857 4.59961 16.8501 4.59961 16.8433C4.59961 16.8364 4.59961 16.8295 4.59961 16.8226C4.59961 16.8157 4.59961 16.8088 4.59961 16.8019C4.59961 16.795 4.59961 16.7881 4.59961 16.7812C4.59961 16.7742 4.59961 16.7673 4.59961 16.7604C4.59961 16.7535 4.59961 16.7466 4.59961 16.7397C4.59961 16.7327 4.59961 16.7258 4.59961 16.7189C4.59961 16.7119 4.59961 16.705 4.59961 16.6981C4.59961 16.6911 4.59961 16.6842 4.59961 16.6772C4.59961 16.6703 4.59961 16.6633 4.59961 16.6564C4.59961 16.6494 4.59961 16.6425 4.59961 16.6355C4.59961 16.6286 4.59961 16.6216 4.59961 16.6146C4.59961 16.6077 4.59961 16.6007 4.59961 16.5937C4.59961 16.5867 4.59961 16.5798 4.59961 16.5728C4.59961 16.5658 4.59961 16.5588 4.59961 16.5518C4.59961 16.5448 4.59961 16.5378 4.59961 16.5309C4.59961 16.5239 4.59961 16.5169 4.59961 16.5099C4.59961 16.5028 4.59961 16.4958 4.59961 16.4888C4.59961 16.4818 4.59961 16.4748 4.59961 16.4678C4.59961 16.4608 4.59961 16.4537 4.59961 16.4467C4.59961 16.4397 4.59961 16.4327 4.59961 16.4256C4.59961 16.4186 4.59961 16.4115 4.59961 16.4045C4.59961 16.3975 4.59961 16.3904 4.59961 16.3834C4.59961 16.3763 4.59961 16.3693 4.59961 16.3622C4.59961 16.3551 4.59961 16.3481 4.59961 16.341C4.59961 16.334 4.59961 16.3269 4.59961 16.3198C4.59961 16.3127 4.59961 16.3057 4.59961 16.2986C4.59961 16.2915 4.59961 16.2844 4.59961 16.2773C4.59961 16.2702 4.59961 16.2631 4.59961 16.256C4.59961 16.2489 4.59961 16.2418 4.59961 16.2347C4.59961 16.2276 4.59961 16.2205 4.59961 16.2134C4.59961 16.2063 4.59961 16.1992 4.59961 16.192C4.59961 16.1849 4.59961 16.1778 4.59961 16.1707C4.59961 16.1635 4.59961 16.1564 4.59961 16.1493C4.59961 16.1421 4.59961 16.135 4.59961 16.1278C4.59961 16.1207 4.59961 16.1135 4.59961 16.1064C4.59961 16.0992 4.59961 16.0921 4.59961 16.0849C4.59961 16.0777 4.59961 16.0706 4.59961 16.0634C4.59961 16.0562 4.59961 16.0491 4.59961 16.0419C4.59961 16.0347 4.59961 16.0275 4.59961 16.0203C4.59961 16.0131 4.59961 16.0059 4.59961 15.9987C4.59961 15.9915 4.59961 15.9843 4.59961 15.9771C4.59961 15.9699 4.59961 15.9627 4.59961 15.9555C4.59961 15.9483 4.59961 15.9411 4.59961 15.9338C4.59961 15.9266 4.59961 15.9194 4.59961 15.9121C4.59961 15.9049 4.59961 15.8977 4.59961 15.8904C4.59961 15.8832 4.59961 15.8759 4.59961 15.8687C4.59961 15.8614 4.59961 15.8542 4.59961 15.8469C4.59961 15.8397 4.59961 15.8324 4.59961 15.8251C4.59961 15.8179 4.59961 15.8106 4.59961 15.8033C4.59961 15.796 4.59961 15.7888 4.59961 15.7815C4.59961 15.7742 4.59961 15.7669 4.59961 15.7596C4.59961 15.7523 4.59961 15.745 4.59961 15.7377C4.59961 15.7304 4.59961 15.7231 4.59961 15.7158C4.59961 15.7085 4.59961 15.7011 4.59961 15.6938C4.59961 15.6865 4.59961 15.6792 4.59961 15.6718C4.59961 15.6645 4.59961 15.6572 4.59961 15.6498C4.59961 15.6425 4.59961 15.6351 4.59961 15.6278C4.59961 15.6204 4.59961 15.6131 4.59961 15.6057C4.59961 15.5983 4.59961 15.591 4.59961 15.5836C4.59961 15.5762 4.59961 15.5689 4.59961 15.5615C4.59961 15.5541 4.59961 15.5467 4.59961 15.5393C4.59961 15.5319 4.59961 15.5245 4.59961 15.5171C4.59961 15.5097 4.59961 15.5023 4.59961 15.4949C4.59961 15.4875 4.59961 15.4801 4.59961 15.4727C4.59961 15.4653 4.59961 15.4578 4.59961 15.4504C4.59961 15.443 4.59961 15.4355 4.59961 15.4281C4.59961 15.4207 4.59961 15.4132 4.59961 15.4058C4.59961 15.3983 4.59961 15.3909 4.59961 15.3834C4.59961 15.376 4.59961 15.3685 4.59961 15.361C4.59961 15.3536 4.59961 15.3461 4.59961 15.3386C4.59961 15.3311 4.59961 15.3236 4.59961 15.3162C4.59961 15.3087 4.59961 15.3012 4.59961 15.2937C4.59961 15.2862 4.59961 15.2787 4.59961 15.2712C4.59961 15.2636 4.59961 15.2561 4.59961 15.2486C4.59961 15.2411 4.59961 15.2336 4.59961 15.226C4.59961 15.2185 4.59961 15.211 4.59961 15.2034C4.59961 15.1959 4.59961 15.1884 4.59961 15.1808C4.59961 15.1733 4.59961 15.1657 4.59961 15.1581C4.59961 15.1506 4.59961 15.143 4.59961 15.1354C4.59961 15.1279 4.59961 15.1203 4.59961 15.1127C4.59961 15.1051 4.59961 15.0975 4.59961 15.09C4.59961 15.0824 4.59961 15.0748 4.59961 15.0672C4.59961 15.0596 4.59961 15.052 4.59961 15.0443C4.59961 15.0367 4.59961 15.0291 4.59961 15.0215C4.59961 15.0139 4.59961 15.0062 4.59961 14.9986C4.59961 14.991 4.59961 14.9833 4.59961 14.9757C4.59961 14.968 4.59961 14.9604 4.59961 14.9527C4.59961 14.9451 4.59961 14.9374 4.59961 14.9297C4.59961 14.9221 4.59961 14.9144 4.59961 14.9067C4.59961 14.899 4.59961 14.8914 4.59961 14.8837C4.59961 14.876 4.59961 14.8683 4.59961 14.8606H3.84961H3.09961C3.09961 14.8683 3.09961 14.876 3.09961 14.8837C3.09961 14.8914 3.09961 14.899 3.09961 14.9067C3.09961 14.9144 3.09961 14.9221 3.09961 14.9297C3.09961 14.9374 3.09961 14.9451 3.09961 14.9527C3.09961 14.9604 3.09961 14.968 3.09961 14.9757C3.09961 14.9833 3.09961 14.991 3.09961 14.9986C3.09961 15.0062 3.09961 15.0139 3.09961 15.0215C3.09961 15.0291 3.09961 15.0367 3.09961 15.0443C3.09961 15.052 3.09961 15.0596 3.09961 15.0672C3.09961 15.0748 3.09961 15.0824 3.09961 15.09C3.09961 15.0975 3.09961 15.1051 3.09961 15.1127C3.09961 15.1203 3.09961 15.1279 3.09961 15.1354C3.09961 15.143 3.09961 15.1506 3.09961 15.1581C3.09961 15.1657 3.09961 15.1733 3.09961 15.1808C3.09961 15.1884 3.09961 15.1959 3.09961 15.2034C3.09961 15.211 3.09961 15.2185 3.09961 15.226C3.09961 15.2336 3.09961 15.2411 3.09961 15.2486C3.09961 15.2561 3.09961 15.2636 3.09961 15.2712C3.09961 15.2787 3.09961 15.2862 3.09961 15.2937C3.09961 15.3012 3.09961 15.3087 3.09961 15.3162C3.09961 15.3236 3.09961 15.3311 3.09961 15.3386C3.09961 15.3461 3.09961 15.3536 3.09961 15.361C3.09961 15.3685 3.09961 15.376 3.09961 15.3834C3.09961 15.3909 3.09961 15.3983 3.09961 15.4058C3.09961 15.4132 3.09961 15.4207 3.09961 15.4281C3.09961 15.4355 3.09961 15.443 3.09961 15.4504C3.09961 15.4578 3.09961 15.4653 3.09961 15.4727C3.09961 15.4801 3.09961 15.4875 3.09961 15.4949C3.09961 15.5023 3.09961 15.5097 3.09961 15.5171C3.09961 15.5245 3.09961 15.5319 3.09961 15.5393C3.09961 15.5467 3.09961 15.5541 3.09961 15.5615C3.09961 15.5689 3.09961 15.5762 3.09961 15.5836C3.09961 15.591 3.09961 15.5983 3.09961 15.6057C3.09961 15.6131 3.09961 15.6204 3.09961 15.6278C3.09961 15.6351 3.09961 15.6425 3.09961 15.6498C3.09961 15.6572 3.09961 15.6645 3.09961 15.6718C3.09961 15.6792 3.09961 15.6865 3.09961 15.6938C3.09961 15.7011 3.09961 15.7085 3.09961 15.7158C3.09961 15.7231 3.09961 15.7304 3.09961 15.7377C3.09961 15.745 3.09961 15.7523 3.09961 15.7596C3.09961 15.7669 3.09961 15.7742 3.09961 15.7815C3.09961 15.7888 3.09961 15.796 3.09961 15.8033C3.09961 15.8106 3.09961 15.8179 3.09961 15.8251C3.09961 15.8324 3.09961 15.8397 3.09961 15.8469C3.09961 15.8542 3.09961 15.8614 3.09961 15.8687C3.09961 15.8759 3.09961 15.8832 3.09961 15.8904C3.09961 15.8977 3.09961 15.9049 3.09961 15.9121C3.09961 15.9194 3.09961 15.9266 3.09961 15.9338C3.09961 15.9411 3.09961 15.9483 3.09961 15.9555C3.09961 15.9627 3.09961 15.9699 3.09961 15.9771C3.09961 15.9843 3.09961 15.9915 3.09961 15.9987C3.09961 16.0059 3.09961 16.0131 3.09961 16.0203C3.09961 16.0275 3.09961 16.0347 3.09961 16.0419C3.09961 16.0491 3.09961 16.0562 3.09961 16.0634C3.09961 16.0706 3.09961 16.0777 3.09961 16.0849C3.09961 16.0921 3.09961 16.0992 3.09961 16.1064C3.09961 16.1135 3.09961 16.1207 3.09961 16.1278C3.09961 16.135 3.09961 16.1421 3.09961 16.1493C3.09961 16.1564 3.09961 16.1635 3.09961 16.1707C3.09961 16.1778 3.09961 16.1849 3.09961 16.192C3.09961 16.1992 3.09961 16.2063 3.09961 16.2134C3.09961 16.2205 3.09961 16.2276 3.09961 16.2347C3.09961 16.2418 3.09961 16.2489 3.09961 16.256C3.09961 16.2631 3.09961 16.2702 3.09961 16.2773C3.09961 16.2844 3.09961 16.2915 3.09961 16.2986C3.09961 16.3057 3.09961 16.3127 3.09961 16.3198C3.09961 16.3269 3.09961 16.334 3.09961 16.341C3.09961 16.3481 3.09961 16.3551 3.09961 16.3622C3.09961 16.3693 3.09961 16.3763 3.09961 16.3834C3.09961 16.3904 3.09961 16.3975 3.09961 16.4045C3.09961 16.4115 3.09961 16.4186 3.09961 16.4256C3.09961 16.4327 3.09961 16.4397 3.09961 16.4467C3.09961 16.4537 3.09961 16.4608 3.09961 16.4678C3.09961 16.4748 3.09961 16.4818 3.09961 16.4888C3.09961 16.4958 3.09961 16.5028 3.09961 16.5099C3.09961 16.5169 3.09961 16.5239 3.09961 16.5309C3.09961 16.5378 3.09961 16.5448 3.09961 16.5518C3.09961 16.5588 3.09961 16.5658 3.09961 16.5728C3.09961 16.5798 3.09961 16.5867 3.09961 16.5937C3.09961 16.6007 3.09961 16.6077 3.09961 16.6146C3.09961 16.6216 3.09961 16.6286 3.09961 16.6355C3.09961 16.6425 3.09961 16.6494 3.09961 16.6564C3.09961 16.6633 3.09961 16.6703 3.09961 16.6772C3.09961 16.6842 3.09961 16.6911 3.09961 16.6981C3.09961 16.705 3.09961 16.7119 3.09961 16.7189C3.09961 16.7258 3.09961 16.7327 3.09961 16.7397C3.09961 16.7466 3.09961 16.7535 3.09961 16.7604C3.09961 16.7673 3.09961 16.7742 3.09961 16.7812C3.09961 16.7881 3.09961 16.795 3.09961 16.8019C3.09961 16.8088 3.09961 16.8157 3.09961 16.8226C3.09961 16.8295 3.09961 16.8364 3.09961 16.8433C3.09961 16.8501 3.09961 16.857 3.09961 16.8639C3.09961 16.8708 3.09961 16.8777 3.09961 16.8846C3.09961 16.8914 3.09961 16.8983 3.09961 16.9052C3.09961 16.912 3.09961 16.9189 3.09961 16.9258C3.09961 16.9326 3.09961 16.9395 3.09961 16.9464C3.09961 16.9532 3.09961 16.9601 3.09961 16.9669C3.09961 16.9738 3.09961 16.9806 3.09961 16.9875C3.09961 16.9943 3.09961 17.0011 3.09961 17.008C3.09961 17.0148 3.09961 17.0216 3.09961 17.0285C3.09961 17.0353 3.09961 17.0421 3.09961 17.049C3.09961 17.0558 3.09961 17.0626 3.09961 17.0694C3.09961 17.0762 3.09961 17.0831 3.09961 17.0899C3.09961 17.0967 3.09961 17.1035 3.09961 17.1103C3.09961 17.1171 3.09961 17.1239 3.09961 17.1307C3.09961 17.1375 3.09961 17.1443 3.09961 17.1511C3.09961 17.1579 3.09961 17.1647 3.09961 17.1715C3.09961 17.1783 3.09961 17.185 3.09961 17.1918C3.09961 17.1986 3.09961 17.2054 3.09961 17.2122C3.09961 17.2189 3.09961 17.2257 3.09961 17.2325C3.09961 17.2392 3.09961 17.246 3.09961 17.2528C3.09961 17.2595 3.09961 17.2663 3.09961 17.2731C3.09961 17.2798 3.09961 17.2866 3.09961 17.2933C3.09961 17.3001 3.09961 17.3068 3.09961 17.3136C3.09961 17.3203 3.09961 17.3271 3.09961 17.3338C3.09961 17.3406 3.09961 17.3473 3.09961 17.354C3.09961 17.3608 3.09961 17.3675 3.09961 17.3742C3.09961 17.381 3.09961 17.3877 3.09961 17.3944C3.09961 17.4011 3.09961 17.4078 3.09961 17.4146C3.09961 17.4213 3.09961 17.428 3.09961 17.4347C3.09961 17.4414 3.09961 17.4481 3.09961 17.4548C3.09961 17.4616 3.09961 17.4683 3.09961 17.475C3.09961 17.4817 3.09961 17.4884 3.09961 17.4951C3.09961 17.5018 3.09961 17.5085 3.09961 17.5151C3.09961 17.5218 3.09961 17.5285 3.09961 17.5352C3.09961 17.5419 3.09961 17.5486 3.09961 17.5553C3.09961 17.562 3.09961 17.5686 3.09961 17.5753C3.09961 17.582 3.09961 17.5887 3.09961 17.5953C3.09961 17.602 3.09961 17.6087 3.09961 17.6153C3.09961 17.622 3.09961 17.6287 3.09961 17.6353C3.09961 17.642 3.09961 17.6487 3.09961 17.6553C3.09961 17.662 3.09961 17.6686 3.09961 17.6753C3.09961 17.6819 3.09961 17.6886 3.09961 17.6952C3.09961 17.7019 3.09961 17.7085 3.09961 17.7152C3.09961 17.7218 3.09961 17.7284 3.09961 17.7351C3.09961 17.7417 3.09961 17.7484 3.09961 17.755C3.09961 17.7616 3.09961 17.7682 3.09961 17.7749C3.09961 17.7815 3.09961 17.7881 3.09961 17.7948C3.09961 17.8014 3.09961 17.808 3.09961 17.8146C3.09961 17.8212 3.09961 17.8279 3.09961 17.8345C3.09961 17.8411 3.09961 17.8477 3.09961 17.8543C3.09961 17.8609 3.09961 17.8675 3.09961 17.8741C3.09961 17.8807 3.09961 17.8873 3.09961 17.8939C3.09961 17.9005 3.09961 17.9071 3.09961 17.9137C3.09961 17.9203 3.09961 17.9269 3.09961 17.9335C3.09961 17.9401 3.09961 17.9467 3.09961 17.9533C3.09961 17.9599 3.09961 17.9665 3.09961 17.9731C3.09961 17.9796 3.09961 17.9862 3.09961 17.9928C3.09961 17.9994 3.09961 18.006 3.09961 18.0125C3.09961 18.0191 3.09961 18.0257 3.09961 18.0323C3.09961 18.0388 3.09961 18.0454 3.09961 18.052C3.09961 18.0585 3.09961 18.0651 3.09961 18.0717C3.09961 18.0782 3.09961 18.0848 3.09961 18.0914C3.09961 18.0979 3.09961 18.1045 3.09961 18.111C3.09961 18.1176 3.09961 18.1242 3.09961 18.1307C3.09961 18.1373 3.09961 18.1438 3.09961 18.1504C3.09961 18.1569 3.09961 18.1635 3.09961 18.17C3.09961 18.1765 3.09961 18.1831 3.09961 18.1896C3.09961 18.1962 3.09961 18.2027 3.09961 18.2093C3.09961 18.2158 3.09961 18.2223 3.09961 18.2289C3.09961 18.2354 3.09961 18.2419 3.09961 18.2485C3.09961 18.255 3.09961 18.2615 3.09961 18.2681C3.09961 18.2746 3.09961 18.2811 3.09961 18.2876C3.09961 18.2942 3.09961 18.3007 3.09961 18.3072C3.09961 18.3137 3.09961 18.3202 3.09961 18.3268C3.09961 18.3333 3.09961 18.3398 3.09961 18.3463C3.09961 18.3528 3.09961 18.3593 3.09961 18.3658C3.09961 18.3724 3.09961 18.3789 3.09961 18.3854C3.09961 18.3919 3.09961 18.3984 3.09961 18.4049C3.09961 18.4114 3.09961 18.4179 3.09961 18.4244C3.09961 18.4309 3.09961 18.4374 3.09961 18.4439C3.09961 18.4504 3.09961 18.4569 3.09961 18.4634C3.09961 18.4699 3.09961 18.4764 3.09961 18.4829C3.09961 18.4894 3.09961 18.4959 3.09961 18.5024C3.09961 18.5089 3.09961 18.5153 3.09961 18.5218C3.09961 18.5283 3.09961 18.5348 3.09961 18.5413C3.09961 18.5478 3.09961 18.5543 3.09961 18.5607C3.09961 18.5672 3.09961 18.5737 3.09961 18.5802C3.09961 18.5867 3.09961 18.5931 3.09961 18.5996C3.09961 18.6061 3.09961 18.6126 3.09961 18.619C3.09961 18.6255 3.09961 18.632 3.09961 18.6385C3.09961 18.6449 3.09961 18.6514 3.09961 18.6579C3.09961 18.6643 3.09961 18.6708 3.09961 18.6773C3.09961 18.6837 3.09961 18.6902 3.09961 18.6967C3.09961 18.7031 3.09961 18.7096 3.09961 18.716C3.09961 18.7225 3.09961 18.729 3.09961 18.7354C3.09961 18.7419 3.09961 18.7483 3.09961 18.7548C3.09961 18.7613 3.09961 18.7677 3.09961 18.7742C3.09961 18.7806 3.09961 18.7871 3.09961 18.7935C3.09961 18.8 3.09961 18.8064 3.09961 18.8129C3.09961 18.8193 3.09961 18.8258 3.09961 18.8322C3.09961 18.8387 3.09961 18.8451 3.09961 18.8516C3.09961 18.858 3.09961 18.8645 3.09961 18.8709C3.09961 18.8774 3.09961 18.8838 3.09961 18.8902C3.09961 18.8967 3.09961 18.9031 3.09961 18.9096C3.09961 18.916 3.09961 18.9224 3.09961 18.9289C3.09961 18.9353 3.09961 18.9418 3.09961 18.9482C3.09961 18.9546 3.09961 18.9611 3.09961 18.9675C3.09961 18.9739 3.09961 18.9804 3.09961 18.9868C3.09961 18.9932 3.09961 18.9997 3.09961 19.0061C3.09961 19.0125 3.09961 19.019 3.09961 19.0254C3.09961 19.0318 3.09961 19.0383 3.09961 19.0447C3.09961 19.0511 3.09961 19.0575 3.09961 19.064C3.09961 19.0704 3.09961 19.0768 3.09961 19.0832C3.09961 19.0897 3.09961 19.0961 3.09961 19.1025C3.09961 19.1089 3.09961 19.1154 3.09961 19.1218C3.09961 19.1282 3.09961 19.1346 3.09961 19.1411C3.09961 19.1475 3.09961 19.1539 3.09961 19.1603C3.09961 19.1667 3.09961 19.1732 3.09961 19.1796C3.09961 19.186 3.09961 19.1924 3.09961 19.1988C3.09961 19.2052 3.09961 19.2117 3.09961 19.2181C3.09961 19.2245 3.09961 19.2309 3.09961 19.2373C3.09961 19.2437 3.09961 19.2502 3.09961 19.2566C3.09961 19.263 3.09961 19.2694 3.09961 19.2758C3.09961 19.2822 3.09961 19.2886 3.09961 19.295C3.09961 19.3015 3.09961 19.3079 3.09961 19.3143C3.09961 19.3207 3.09961 19.3271 3.09961 19.3335C3.09961 19.3399 3.09961 19.3463 3.09961 19.3527C3.09961 19.3592 3.09961 19.3656 3.09961 19.372C3.09961 19.3784 3.09961 19.3848 3.09961 19.3912C3.09961 19.3976 3.09961 19.404 3.09961 19.4104C3.09961 19.4168 3.09961 19.4232 3.09961 19.4296C3.09961 19.436 3.09961 19.4425 3.09961 19.4489C3.09961 19.4553 3.09961 19.4617 3.09961 19.4681C3.09961 19.4745 3.09961 19.4809 3.09961 19.4873C3.09961 19.4937 3.09961 19.5001 3.09961 19.5065C3.09961 19.5129 3.09961 19.5193 3.09961 19.5257C3.09961 19.5321 3.09961 19.5385 3.09961 19.5449C3.09961 19.5513 3.09961 19.5577 3.09961 19.5641C3.09961 19.5705 3.09961 19.577 3.09961 19.5834C3.09961 19.5898 3.09961 19.5962 3.09961 19.6026C3.09961 19.609 3.09961 19.6154 3.09961 19.6218C3.09961 19.6282 3.09961 19.6346 3.09961 19.641C3.09961 19.6474 3.09961 19.6538 3.09961 19.6602C3.09961 19.6666 3.09961 19.673 3.09961 19.6794C3.09961 19.6858 3.09961 19.6922 3.09961 19.6986C3.09961 19.705 3.09961 19.7114 3.09961 19.7178C3.09961 19.7242 3.09961 19.7306 3.09961 19.737C3.09961 19.7434 3.09961 19.7498 3.09961 19.7562C3.09961 19.7626 3.09961 19.769 3.09961 19.7754C3.09961 19.7818 3.09961 19.7883 3.09961 19.7947C3.09961 19.8011 3.09961 19.8075 3.09961 19.8139C3.09961 19.8203 3.09961 19.8267 3.09961 19.8331C3.09961 19.8395 3.09961 19.8459 3.09961 19.8523C3.09961 19.8587 3.09961 19.8651 3.09961 19.8715C3.09961 19.8779 3.09961 19.8843 3.09961 19.8907C3.09961 19.8971 3.09961 19.9035 3.09961 19.9099C3.09961 19.9163 3.09961 19.9228 3.09961 19.9292C3.09961 19.9356 3.09961 19.942 3.09961 19.9484C3.09961 19.9548 3.09961 19.9612 3.09961 19.9676C3.09961 19.974 3.09961 19.9804 3.09961 19.9868C3.09961 19.9932 3.09961 19.9996 3.09961 20.0061C3.09961 20.0125 3.09961 20.0189 3.09961 20.0253C3.09961 20.0317 3.09961 20.0381 3.09961 20.0445C3.09961 20.0509 3.09961 20.0573 3.09961 20.0638C3.09961 20.0702 3.09961 20.0766 3.09961 20.083C3.09961 20.0894 3.09961 20.0958 3.09961 20.1022C3.09961 20.1086 3.09961 20.1151 3.09961 20.1215C3.09961 20.1279 3.09961 20.1343 3.09961 20.1407C3.09961 20.1471 3.09961 20.1536 3.09961 20.16C3.09961 20.1664 3.09961 20.1728 3.09961 20.1792C3.09961 20.1856 3.09961 20.1921 3.09961 20.1985C3.09961 20.2049 3.09961 20.2113 3.09961 20.2178C3.09961 20.2242 3.09961 20.2306 3.09961 20.237C3.09961 20.2434 3.09961 20.2499 3.09961 20.2563C3.09961 20.2627 3.09961 20.2691 3.09961 20.2756C3.09961 20.282 3.09961 20.2884 3.09961 20.2948C3.09961 20.3013 3.09961 20.3077 3.09961 20.3141C3.09961 20.3205 3.09961 20.327 3.09961 20.3334C3.09961 20.3398 3.09961 20.3463 3.09961 20.3527C3.09961 20.3591 3.09961 20.3656 3.09961 20.372C3.09961 20.3784 3.09961 20.3849 3.09961 20.3913C3.09961 20.3977 3.09961 20.4042 3.09961 20.4106C3.09961 20.417 3.09961 20.4235 3.09961 20.4299C3.09961 20.4364 3.09961 20.4428 3.09961 20.4492C3.09961 20.4557 3.09961 20.4621 3.09961 20.4686C3.09961 20.475 3.09961 20.4814 3.09961 20.4879C3.09961 20.4943 3.09961 20.5008 3.09961 20.5072C3.09961 20.5137 3.09961 20.5201 3.09961 20.5266C3.09961 20.533 3.09961 20.5395 3.09961 20.5459C3.09961 20.5524 3.09961 20.5588 3.09961 20.5653C3.09961 20.5717 3.09961 20.5782 3.09961 20.5846C3.09961 20.5911 3.09961 20.5975 3.09961 20.604C3.09961 20.6105 3.09961 20.6169 3.09961 20.6234C3.09961 20.6298 3.09961 20.6363 3.09961 20.6428C3.09961 20.6492 3.09961 20.6557 3.09961 20.6621C3.09961 20.6686 3.09961 20.6751 3.09961 20.6815C3.09961 20.688 3.09961 20.6945 3.09961 20.7009C3.09961 20.7074 3.09961 20.7139 3.09961 20.7204C3.09961 20.7268 3.09961 20.7333 3.09961 20.7398C3.09961 20.7462 3.09961 20.7527 3.09961 20.7592C3.09961 20.7657 3.09961 20.7721 3.09961 20.7786C3.09961 20.7851 3.09961 20.7916 3.09961 20.7981C3.09961 20.8046 3.09961 20.811 3.09961 20.8175C3.09961 20.824 3.09961 20.8305 3.09961 20.837C3.09961 20.8435 3.09961 20.85 3.09961 20.8564C3.09961 20.8629 3.09961 20.8694 3.09961 20.8759C3.09961 20.8824 3.09961 20.8889 3.09961 20.8954C3.09961 20.9019 3.09961 20.9084 3.09961 20.9149C3.09961 20.9214 3.09961 20.9279 3.09961 20.9344C3.09961 20.9409 3.09961 20.9474 3.09961 20.9539C3.09961 20.9604 3.09961 20.9669 3.09961 20.9734C3.09961 20.9799 3.09961 20.9864 3.09961 20.993C3.09961 20.9995 3.09961 21.006 3.09961 21.0125C3.09961 21.019 3.09961 21.0255 3.09961 21.032C3.09961 21.0386 3.09961 21.0451 3.09961 21.0516C3.09961 21.0581 3.09961 21.0646 3.09961 21.0712C3.09961 21.0777 3.09961 21.0842 3.09961 21.0907C3.09961 21.0973 3.09961 21.1038 3.09961 21.1103C3.09961 21.1169 3.09961 21.1234 3.09961 21.1299C3.09961 21.1365 3.09961 21.143 3.09961 21.1495C3.09961 21.1561 3.09961 21.1626 3.09961 21.1692C3.09961 21.1757 3.09961 21.1823 3.09961 21.1888C3.09961 21.1953 3.09961 21.2019 3.09961 21.2084C3.09961 21.215 3.09961 21.2215 3.09961 21.2281C3.09961 21.2346 3.09961 21.2412 3.09961 21.2478C3.09961 21.2543 3.09961 21.2609 3.09961 21.2674C3.09961 21.274 3.09961 21.2806 3.09961 21.2871C3.09961 21.2937 3.09961 21.3003 3.09961 21.3068C3.09961 21.3134 3.09961 21.32 3.09961 21.3265C3.09961 21.3331 3.09961 21.3397 3.09961 21.3463C3.09961 21.3528 3.09961 21.3594 3.09961 21.366C3.09961 21.3726 3.09961 21.3792 3.09961 21.3857C3.09961 21.3923 3.09961 21.3989 3.09961 21.4055C3.09961 21.4121 3.09961 21.4187 3.09961 21.4253C3.09961 21.4319 3.09961 21.4385 3.09961 21.4451C3.09961 21.4517 3.09961 21.4583 3.09961 21.4649C3.09961 21.4715 3.09961 21.4781 3.09961 21.4847C3.09961 21.4913 3.09961 21.4979 3.09961 21.5045C3.09961 21.5111 3.09961 21.5177 3.09961 21.5243C3.09961 21.5309 3.09961 21.5376 3.09961 21.5442C3.09961 21.5508 3.09961 21.5574 3.09961 21.5641C3.09961 21.5707 3.09961 21.5773 3.09961 21.5839C3.09961 21.5906 3.09961 21.5972 3.09961 21.6038C3.09961 21.6105 3.09961 21.6171 3.09961 21.6237C3.09961 21.6304 3.09961 21.637 3.09961 21.6436C3.09961 21.6503 3.09961 21.6569 3.09961 21.6636C3.09961 21.6702 3.09961 21.6769 3.09961 21.6835C3.09961 21.6902 3.09961 21.6968 3.09961 21.7035C3.09961 21.7102 3.09961 21.7168 3.09961 21.7235C3.09961 21.7301 3.09961 21.7368 3.09961 21.7435C3.09961 21.7501 3.09961 21.7568 3.09961 21.7635C3.09961 21.7701 3.09961 21.7768 3.09961 21.7835C3.09961 21.7902 3.09961 21.7969 3.09961 21.8035C3.09961 21.8102 3.09961 21.8169 3.09961 21.8236C3.09961 21.8303 3.09961 21.837 3.09961 21.8437C3.09961 21.8503 3.09961 21.857 3.09961 21.8637C3.09961 21.8704 3.09961 21.8771 3.09961 21.8838C3.09961 21.8905 3.09961 21.8972 3.09961 21.904C3.09961 21.9107 3.09961 21.9174 3.09961 21.9241C3.09961 21.9308 3.09961 21.9375 3.09961 21.9442C3.09961 21.951 3.09961 21.9577 3.09961 21.9644C3.09961 21.9711 3.09961 21.9779 3.09961 21.9846C3.09961 21.9913 3.09961 21.998 3.09961 22.0048C3.09961 22.0115 3.09961 22.0183 3.09961 22.025C3.09961 22.0317 3.09961 22.0385 3.09961 22.0452C3.09961 22.052 3.09961 22.0587 3.09961 22.0655C3.09961 22.0722 3.09961 22.079 3.09961 22.0857C3.09961 22.0925 3.09961 22.0993 3.09961 22.106C3.09961 22.1128 3.09961 22.1196 3.09961 22.1263C3.09961 22.1331 3.09961 22.1399 3.09961 22.1466C3.09961 22.1534 3.09961 22.1602 3.09961 22.167C3.09961 22.1738 3.09961 22.1805 3.09961 22.1873C3.09961 22.1941 3.09961 22.2009 3.09961 22.2077C3.09961 22.2145 3.09961 22.2213 3.09961 22.2281C3.09961 22.2349 3.09961 22.2417 3.09961 22.2485C3.09961 22.2553 3.09961 22.2621 3.09961 22.2689C3.09961 22.2757 3.09961 22.2826 3.09961 22.2894C3.09961 22.2962 3.09961 22.303 3.09961 22.3098C3.09961 22.3167 3.09961 22.3235 3.09961 22.3303C3.09961 22.3372 3.09961 22.344 3.09961 22.3508C3.09961 22.3577 3.09961 22.3645 3.09961 22.3713C3.09961 22.3782 3.09961 22.385 3.09961 22.3919C3.09961 22.3987 3.09961 22.4056 3.09961 22.4124C3.09961 22.4193 3.09961 22.4262 3.09961 22.433C3.09961 22.4399 3.09961 22.4468 3.09961 22.4536C3.09961 22.4605 3.09961 22.4674 3.09961 22.4742C3.09961 22.4811 3.09961 22.488 3.09961 22.4949C3.09961 22.5018 3.09961 22.5087 3.09961 22.5155C3.09961 22.5224 3.09961 22.5293 3.09961 22.5362C3.09961 22.5431 3.09961 22.55 3.09961 22.5569C3.09961 22.5638 3.09961 22.5707 3.09961 22.5776C3.09961 22.5846 3.09961 22.5915 3.09961 22.5984C3.09961 22.6053 3.09961 22.6122 3.09961 22.6192C3.09961 22.6261 3.09961 22.633 3.09961 22.6399C3.09961 22.6469 3.09961 22.6538 3.09961 22.6607C3.09961 22.6677 3.09961 22.6746 3.09961 22.6816C3.09961 22.6885 3.09961 22.6955 3.09961 22.7024C3.09961 22.7094 3.09961 22.7163 3.09961 22.7233C3.09961 22.7302 3.09961 22.7372 3.09961 22.7442C3.09961 22.7511 3.09961 22.7581 3.09961 22.7651C3.09961 22.7721 3.09961 22.779 3.09961 22.786C3.09961 22.793 3.09961 22.8 3.09961 22.807C3.09961 22.814 3.09961 22.821 3.09961 22.828C3.09961 22.835 3.09961 22.842 3.09961 22.849C3.09961 22.856 3.09961 22.863 3.09961 22.87C3.09961 22.877 3.09961 22.884 3.09961 22.891C3.09961 22.898 3.09961 22.9051 3.09961 22.9121C3.09961 22.9191 3.09961 22.9262 3.09961 22.9332C3.09961 22.9402 3.09961 22.9473 3.09961 22.9543C3.09961 22.9613 3.09961 22.9684 3.09961 22.9754C3.09961 22.9825 3.09961 22.9895 3.09961 22.9966C3.09961 23.0037 3.09961 23.0107 3.09961 23.0178C3.09961 23.0249 3.09961 23.0319 3.09961 23.039C3.09961 23.0461 3.09961 23.0532 3.09961 23.0602C3.09961 23.0673 3.09961 23.0744 3.09961 23.0815C3.09961 23.0886 3.09961 23.0957 3.09961 23.1028C3.09961 23.1099 3.09961 23.117 3.09961 23.1241C3.09961 23.1312 3.09961 23.1383 3.09961 23.1454C3.09961 23.1525 3.09961 23.1596 3.09961 23.1668C3.09961 23.1739 3.09961 23.181 3.09961 23.1881C3.09961 23.1953 3.09961 23.2024 3.09961 23.2095C3.09961 23.2167 3.09961 23.2238 3.09961 23.231C3.09961 23.2381 3.09961 23.2453 3.09961 23.2524C3.09961 23.2596 3.09961 23.2667 3.09961 23.2739C3.09961 23.2811 3.09961 23.2882 3.09961 23.2954C3.09961 23.3026 3.09961 23.3098 3.09961 23.3169C3.09961 23.3241 3.09961 23.3313 3.09961 23.3385C3.09961 23.3457 3.09961 23.3529 3.09961 23.3601C3.09961 23.3673 3.09961 23.3745 3.09961 23.3817C3.09961 23.3889 3.09961 23.3961 3.09961 23.4033C3.09961 23.4105 3.09961 23.4178 3.09961 23.425C3.09961 23.4322 3.09961 23.4394 3.09961 23.4467C3.09961 23.4539 3.09961 23.4611 3.09961 23.4684C3.09961 23.4756 3.09961 23.4829 3.09961 23.4901C3.09961 23.4974 3.09961 23.5046 3.09961 23.5119C3.09961 23.5191 3.09961 23.5264 3.09961 23.5337C3.09961 23.5409 3.09961 23.5482 3.09961 23.5555C3.09961 23.5628 3.09961 23.5701 3.09961 23.5773C3.09961 23.5846 3.09961 23.5919 3.09961 23.5992C3.09961 23.6065 3.09961 23.6138 3.09961 23.6211C3.09961 23.6284 3.09961 23.6357 3.09961 23.643C3.09961 23.6504 3.09961 23.6577 3.09961 23.665C3.09961 23.6723 3.09961 23.6797 3.09961 23.687C3.09961 23.6943 3.09961 23.7017 3.09961 23.709C3.09961 23.7163 3.09961 23.7237 3.09961 23.731C3.09961 23.7384 3.09961 23.7457 3.09961 23.7531C3.09961 23.7605 3.09961 23.7678 3.09961 23.7752C3.09961 23.7826 3.09961 23.79 3.09961 23.7973C3.09961 23.8047 3.09961 23.8121 3.09961 23.8195C3.09961 23.8269 3.09961 23.8343 3.09961 23.8417C3.09961 23.8491 3.09961 23.8565 3.09961 23.8639C3.09961 23.8713 3.09961 23.8787 3.09961 23.8861C3.09961 23.8935 3.09961 23.901 3.09961 23.9084C3.09961 23.9158 3.09961 23.9233 3.09961 23.9307C3.09961 23.9381 3.09961 23.9456 3.09961 23.953C3.09961 23.9605 3.09961 23.9679 3.09961 23.9754C3.09961 23.9829 3.09961 23.9903 3.09961 23.9978C3.09961 24.0053 3.09961 24.0127 3.09961 24.0202C3.09961 24.0277 3.09961 24.0352 3.09961 24.0427C3.09961 24.0501 3.09961 24.0576 3.09961 24.0651C3.09961 24.0726 3.09961 24.0801 3.09961 24.0877C3.09961 24.0952 3.09961 24.1027 3.09961 24.1102C3.09961 24.1177 3.09961 24.1252 3.09961 24.1328C3.09961 24.1403 3.09961 24.1478 3.09961 24.1554C3.09961 24.1629 3.09961 24.1705 3.09961 24.178C3.09961 24.1856 3.09961 24.1931 3.09961 24.2007C3.09961 24.2082 3.09961 24.2158 3.09961 24.2234C3.09961 24.2309 3.09961 24.2385 3.09961 24.2461C3.09961 24.2537 3.09961 24.2613 3.09961 24.2689C3.09961 24.2764 3.09961 24.284 3.09961 24.2916C3.09961 24.2993 3.09961 24.3069 3.09961 24.3145C3.09961 24.3221 3.09961 24.3297 3.09961 24.3373C3.09961 24.345 3.09961 24.3526 3.09961 24.3602C3.09961 24.3679 3.09961 24.3755 3.09961 24.3831C3.09961 24.3908 3.09961 24.3984 3.09961 24.4061C3.09961 24.4137 3.09961 24.4214 3.09961 24.4291C3.09961 24.4367 3.09961 24.4444 3.09961 24.4521C3.09961 24.4598 3.09961 24.4675 3.09961 24.4751C3.09961 24.4828 3.09961 24.4905 3.09961 24.4982C3.09961 24.5059 3.09961 24.5136 3.09961 24.5213C3.09961 24.5291 3.09961 24.5368 3.09961 24.5445C3.09961 24.5522 3.09961 24.5599 3.09961 24.5677C3.09961 24.5754 3.09961 24.5831 3.09961 24.5909C3.09961 24.5986 3.09961 24.6064 3.09961 24.6141C3.09961 24.6219 3.09961 24.6297 3.09961 24.6374C3.09961 24.6452 3.09961 24.653 3.09961 24.6607C3.09961 24.6685 3.09961 24.6763 3.09961 24.6841C3.09961 24.6919 3.09961 24.6997 3.09961 24.7075C3.09961 24.7153 3.09961 24.7231 3.09961 24.7309C3.09961 24.7387 3.09961 24.7465 3.09961 24.7544C3.09961 24.7622 3.09961 24.77 3.09961 24.7779C3.09961 24.7857 3.09961 24.7935 3.09961 24.8014C3.09961 24.8092 3.09961 24.8171 3.09961 24.8249C3.09961 24.8328 3.09961 24.8407 3.09961 24.8485C3.09961 24.8564 3.09961 24.8643 3.09961 24.8722C3.09961 24.88 3.09961 24.8879 3.09961 24.8958C3.09961 24.9037 3.09961 24.9116 3.09961 24.9195C3.09961 24.9274 3.09961 24.9354 3.09961 24.9433C3.09961 24.9512 3.09961 24.9591 3.09961 24.967C3.09961 24.975 3.09961 24.9829 3.09961 24.9909C3.09961 24.9988 3.09961 25.0067 3.09961 25.0147C3.09961 25.0227 3.09961 25.0306 3.09961 25.0386C3.09961 25.0465 3.09961 25.0545 3.09961 25.0625C3.09961 25.0705 3.09961 25.0785 3.09961 25.0864C3.09961 25.0944 3.09961 25.1024 3.09961 25.1104C3.09961 25.1184 3.09961 25.1265 3.09961 25.1345C3.09961 25.1425 3.09961 25.1505 3.09961 25.1585C3.09961 25.1666 3.09961 25.1746 3.09961 25.1826C3.09961 25.1907 3.09961 25.1987 3.09961 25.2068C3.09961 25.2148 3.09961 25.2229 3.09961 25.2309C3.09961 25.239 3.09961 25.2471 3.09961 25.2552C3.09961 25.2632 3.09961 25.2713 3.09961 25.2794C3.09961 25.2875 3.09961 25.2956 3.09961 25.3037C3.09961 25.3118 3.09961 25.3199 3.09961 25.328C3.09961 25.3361 3.09961 25.3443 3.09961 25.3524C3.09961 25.3605 3.09961 25.3687 3.09961 25.3768C3.09961 25.3849 3.09961 25.3931 3.09961 25.4012C3.09961 25.4094 3.09961 25.4176 3.09961 25.4257C3.09961 25.4339 3.09961 25.4421 3.09961 25.4502C3.09961 25.4584 3.09961 25.4666 3.09961 25.4748C3.09961 25.483 3.09961 25.4912 3.09961 25.4994H3.84961ZM3.84961 68.2994H4.59961V30.9994H3.84961H3.09961V68.2994H3.84961ZM74.6896 14.8594H73.9396V49.4994H74.6896H75.4396V14.8594H74.6896ZM74.6896 55.4394H73.9396V68.2994H74.6896H75.4396V55.4394H74.6896ZM4.84961 69.2994V68.5494C4.71154 68.5494 4.59961 68.4374 4.59961 68.2994H3.84961H3.09961C3.09961 69.2659 3.88311 70.0494 4.84961 70.0494V69.2994ZM73.6896 69.2994V70.0494C74.6561 70.0494 75.4396 69.2659 75.4396 68.2994H74.6896H73.9396C73.9396 68.4374 73.8277 68.5494 73.6896 68.5494V69.2994ZM73.6896 13.8594V14.6094C73.8277 14.6094 73.9396 14.7213 73.9396 14.8594H74.6896H75.4396C75.4396 13.8929 74.6561 13.1094 73.6896 13.1094V13.8594ZM4.84961 13.8594V13.1094C3.88193 13.1094 3.09961 13.8953 3.09961 14.8606H3.84961H4.59961C4.59961 14.7213 4.71272 14.6094 4.84961 14.6094V13.8594Z" fill="#B39C79"/>
<rect y="69.3008" width="78.54" height="7.7" rx="1" stroke="#B39C79" stroke-width="1.5"/>
</g>
<defs>
<clipPath id="clip0_1465_5026">
<rect width="78.54" height="77.0008" fill="white"/>
</clipPath>
</defs>
</svg>
