<svg width="50" height="52" viewBox="0 0 50 52" fill="none" xmlns="http://www.w3.org/2000/svg">
<path d="M5.85938 17.125L43.3594 17.125V10.0938L5.85938 10.0938V17.125Z" stroke="#B5A191" stroke-linecap="round" stroke-linejoin="round"/>
<path d="M8.98438 41.3438H2.73437L2.73437 35.8128C2.73437 35.4149 2.87478 35.0333 3.12471 34.7519C3.37464 34.4706 3.71362 34.3125 4.06707 34.3125H7.65168C8.00513 34.3125 8.34411 34.4706 8.59404 34.7519C8.84397 35.0333 8.98437 35.4149 8.98438 35.8128V41.3438Z" stroke="#B5A191" stroke-linecap="round" stroke-linejoin="round"/>
<path d="M18.3594 41.3438H12.1094V35.8128C12.1094 35.4149 12.2498 35.0333 12.4997 34.7519C12.7496 34.4706 13.0886 34.3125 13.4421 34.3125H17.0267C17.3801 34.3125 17.7191 34.4706 17.969 34.7519C18.219 35.0333 18.3594 35.4149 18.3594 35.8128V41.3438Z" stroke="#B5A191" stroke-linecap="round" stroke-linejoin="round"/>
<path d="M27.7344 41.3438H21.4844V35.8128C21.4844 35.4149 21.6248 35.0333 21.8747 34.7519C22.1246 34.4706 22.4636 34.3125 22.8171 34.3125H26.4017C26.7551 34.3125 27.0941 34.4706 27.344 34.7519C27.594 35.0333 27.7344 35.4149 27.7344 35.8128V41.3438Z" stroke="#B5A191" stroke-linecap="round" stroke-linejoin="round"/>
<path d="M37.1094 41.3438H30.8594V35.8128C30.8594 35.4149 30.9998 35.0333 31.2497 34.7519C31.4996 34.4706 31.8386 34.3125 32.1921 34.3125H35.7767C36.1301 34.3125 36.4691 34.4706 36.719 34.7519C36.969 35.0333 37.1094 35.4149 37.1094 35.8128V41.3438Z" stroke="#B5A191" stroke-linecap="round" stroke-linejoin="round"/>
<path d="M46.4844 41.3438H40.2344V35.8128C40.2344 35.4149 40.3748 35.0333 40.6247 34.7519C40.8746 34.4706 41.2136 34.3125 41.5671 34.3125H45.1517C45.5051 34.3125 45.8441 34.4706 46.094 34.7519C46.344 35.0333 46.4844 35.4149 46.4844 35.8128V41.3438Z" stroke="#B5A191" stroke-linecap="round" stroke-linejoin="round"/>
<path d="M8.98438 31.1875H2.73437L2.73437 25.6566C2.73437 25.2587 2.87478 24.877 3.12471 24.5957C3.37464 24.3143 3.71362 24.1562 4.06707 24.1562H7.65168C8.00513 24.1562 8.34411 24.3143 8.59404 24.5957C8.84397 24.877 8.98437 25.2587 8.98438 25.6566V31.1875Z" stroke="#B5A191" stroke-linecap="round" stroke-linejoin="round"/>
<path d="M18.3594 31.1875H12.1094V25.6566C12.1094 25.2587 12.2498 24.877 12.4997 24.5957C12.7496 24.3143 13.0886 24.1562 13.4421 24.1562H17.0267C17.3801 24.1562 17.7191 24.3143 17.969 24.5957C18.219 24.877 18.3594 25.2587 18.3594 25.6566V31.1875Z" stroke="#B5A191" stroke-linecap="round" stroke-linejoin="round"/>
<path d="M27.7344 31.1875H21.4844V25.6566C21.4844 25.2587 21.6248 24.877 21.8747 24.5957C22.1246 24.3143 22.4636 24.1562 22.8171 24.1562H26.4017C26.7551 24.1562 27.0941 24.3143 27.344 24.5957C27.594 24.877 27.7344 25.2587 27.7344 25.6566V31.1875Z" stroke="#B5A191" stroke-linecap="round" stroke-linejoin="round"/>
<path d="M37.1094 31.1875H30.8594V25.6566C30.8594 25.2587 30.9998 24.877 31.2497 24.5957C31.4996 24.3143 31.8386 24.1562 32.1921 24.1562H35.7767C36.1301 24.1562 36.4691 24.3143 36.719 24.5957C36.969 24.877 37.1094 25.2587 37.1094 25.6566V31.1875Z" stroke="#B5A191" stroke-linecap="round" stroke-linejoin="round"/>
<path d="M46.4844 31.1875H40.2344V25.6566C40.2344 25.2587 40.3748 24.877 40.6247 24.5957C40.8746 24.3143 41.2136 24.1562 41.5671 24.1562H45.1517C45.5051 24.1562 45.8441 24.3143 46.094 24.5957C46.344 24.877 46.4844 25.2587 46.4844 25.6566V31.1875Z" stroke="#B5A191" stroke-linecap="round" stroke-linejoin="round"/>
<path d="M8.98438 51.5H2.73437L2.73437 45.9691C2.73437 45.5712 2.87478 45.1895 3.12471 44.9082C3.37464 44.6268 3.71362 44.4687 4.06707 44.4687H7.65168C8.00513 44.4687 8.34411 44.6268 8.59404 44.9082C8.84397 45.1895 8.98437 45.5712 8.98438 45.9691V51.5Z" stroke="#B5A191" stroke-linecap="round" stroke-linejoin="round"/>
<path d="M18.3594 51.5H12.1094V45.9691C12.1094 45.5712 12.2498 45.1895 12.4997 44.9082C12.7496 44.6268 13.0886 44.4687 13.4421 44.4687H17.0267C17.3801 44.4687 17.7191 44.6268 17.969 44.9082C18.219 45.1895 18.3594 45.5712 18.3594 45.9691V51.5Z" stroke="#B5A191" stroke-linecap="round" stroke-linejoin="round"/>
<path d="M27.7344 51.5H21.4844V45.9691C21.4844 45.5712 21.6248 45.1895 21.8747 44.9082C22.1246 44.6268 22.4636 44.4687 22.8171 44.4687H26.4017C26.7551 44.4687 27.0941 44.6268 27.344 44.9082C27.594 45.1895 27.7344 45.5712 27.7344 45.9691V51.5Z" stroke="#B5A191" stroke-linecap="round" stroke-linejoin="round"/>
<path d="M37.1094 51.5H30.8594V45.9691C30.8594 45.5712 30.9998 45.1895 31.2497 44.9082C31.4996 44.6268 31.8386 44.4687 32.1921 44.4687H35.7767C36.1301 44.4687 36.4691 44.6268 36.719 44.9082C36.969 45.1895 37.1094 45.5712 37.1094 45.9691V51.5Z" stroke="#B5A191" stroke-linecap="round" stroke-linejoin="round"/>
<path d="M46.4844 51.5H40.2344V45.9691C40.2344 45.5712 40.3748 45.1895 40.6247 44.9082C40.8746 44.6268 41.2136 44.4687 41.5671 44.4687H45.1517C45.5051 44.4687 45.8441 44.6268 46.094 44.9082C46.344 45.1895 46.4844 45.5712 46.4844 45.9691V51.5Z" stroke="#B5A191" stroke-linecap="round" stroke-linejoin="round"/>
<path d="M20.7127 0.5H28.5156V6.03094C28.5156 6.42885 28.3402 6.81046 28.028 7.09182C27.7157 7.37318 27.2922 7.53125 26.8507 7.53125H22.3681C21.9265 7.53125 21.503 7.37318 21.1908 7.09182C20.8785 6.81046 20.7031 6.42885 20.7031 6.03094V0.5H20.7127Z" stroke="#B5A191" stroke-linecap="round" stroke-linejoin="round"/>
</svg>
