<svg width="61" height="51" viewBox="0 0 61 51" fill="none" xmlns="http://www.w3.org/2000/svg">
<path d="M9.88412 0.5H15.0161V4.54955C15.0161 5.1542 14.5274 5.64773 13.9213 5.64773H10.9757C10.3729 5.64773 9.88086 5.15747 9.88086 4.54955V0.5H9.88412Z" stroke="#B39C79" stroke-linecap="round" stroke-linejoin="round"/>
<path d="M12.0547 17.5244C9.4654 17.5244 7.36719 15.4262 7.36719 12.8369C7.36719 10.2476 9.4654 8.14941 12.0547 8.14941C14.644 8.14941 16.7422 10.2476 16.7422 12.8369C16.7422 15.4262 14.644 17.5244 12.0547 17.5244Z" stroke="#B39C79" stroke-linecap="round" stroke-linejoin="round"/>
<path d="M0.501629 8.9044L3.06764 4.44633L6.56394 6.4711C7.08599 6.77343 7.26771 7.44477 6.96468 7.97125L5.49187 10.53C5.19047 11.0537 4.52118 11.236 3.99631 10.932L0.5 8.90723L0.501629 8.9044Z" stroke="#B39C79" stroke-linecap="round" stroke-linejoin="round"/>
<path d="M3.06641 21.2568L0.501173 16.7983L3.99783 14.7742C4.51993 14.4719 5.19039 14.6499 5.49333 15.1764L6.96406 17.7326C7.26537 18.2563 7.08799 18.9288 6.56306 19.2327L3.06641 21.2568Z" stroke="#B39C79" stroke-linecap="round" stroke-linejoin="round"/>
<path d="M15.0085 25.207L9.87644 25.2061L9.87715 21.1566C9.87725 20.5519 10.3661 20.0585 10.9722 20.0586L13.9178 20.0591C14.5206 20.0592 15.0125 20.5496 15.0124 21.1575L15.0117 25.207L15.0085 25.207Z" stroke="#B39C79" stroke-linecap="round" stroke-linejoin="round"/>
<path d="M24.3949 16.8036L21.8273 21.2608L18.3317 19.2348C17.8098 18.9323 17.6283 18.2609 17.9315 17.7345L19.4052 15.1762C19.7068 14.6527 20.3761 14.4706 20.9009 14.7748L24.3965 16.8008L24.3949 16.8036Z" stroke="#B39C79" stroke-linecap="round" stroke-linejoin="round"/>
<path d="M21.8356 4.44912L24.4001 8.90808L20.9031 10.9316C20.3809 11.2338 19.7105 11.0557 19.4076 10.5291L17.9357 7.96984C17.6345 7.44609 17.812 6.77362 18.337 6.46984L21.834 4.44629L21.8356 4.44912Z" stroke="#B39C79" stroke-linecap="round" stroke-linejoin="round"/>
<path d="M27.4642 25.4639H32.5962V29.5134C32.5962 30.1181 32.1074 30.6116 31.5014 30.6116H28.5558C27.953 30.6116 27.4609 30.1213 27.4609 29.5134V25.4639H27.4642Z" stroke="#B39C79" stroke-linecap="round" stroke-linejoin="round"/>
<path d="M30.0234 42.5385C27.4342 42.5385 25.3359 40.4338 25.3359 37.8366C25.3359 35.2394 27.4342 33.1348 30.0234 33.1348C32.6127 33.1348 34.7109 35.2394 34.7109 37.8366C34.7109 40.4338 32.6127 42.5385 30.0234 42.5385Z" stroke="#B39C79" stroke-linecap="round" stroke-linejoin="round"/>
<path d="M18.0817 33.8673L20.6477 29.4092L24.144 31.434C24.6661 31.7363 24.8478 32.4077 24.5448 32.9341L23.072 35.4929C22.7705 36.0166 22.1013 36.1989 21.5764 35.8949L18.0801 33.8701L18.0817 33.8673Z" stroke="#B39C79" stroke-linecap="round" stroke-linejoin="round"/>
<path d="M20.6449 46.2257L18.0796 41.7672L21.5763 39.743C22.0984 39.4408 22.7688 39.6187 23.0718 40.1452L24.5441 42.7043C24.8455 43.228 24.6681 43.9005 24.1431 44.2044L20.6465 46.2285L20.6449 46.2257Z" stroke="#B39C79" stroke-linecap="round" stroke-linejoin="round"/>
<path d="M32.5885 50.1709L27.4565 50.17L27.4572 46.1205C27.4573 45.5158 27.9462 45.0224 28.5522 45.0225L31.4979 45.023C32.1007 45.0231 32.5926 45.5134 32.5925 46.1213L32.5918 50.1709L32.5885 50.1709Z" stroke="#B39C79" stroke-linecap="round" stroke-linejoin="round"/>
<path d="M41.9788 41.7675L39.4113 46.2246L35.9157 44.1986C35.3937 43.8961 35.2122 43.2247 35.5155 42.6984L36.9892 40.1401C37.2907 39.6165 37.9601 39.4345 38.4849 39.7386L41.9805 41.7646L41.9788 41.7675Z" stroke="#B39C79" stroke-linecap="round" stroke-linejoin="round"/>
<path d="M39.4176 29.4149L41.9821 33.8739L38.4851 35.8975C37.9629 36.1996 37.2925 36.0215 36.9897 35.495L35.5177 32.9357C35.2165 32.4119 35.394 31.7394 35.919 31.4357L39.416 29.4121L39.4176 29.4149Z" stroke="#B39C79" stroke-linecap="round" stroke-linejoin="round"/>
<path d="M45.0345 0.5H50.1665V4.54955C50.1665 5.1542 49.6778 5.64773 49.0717 5.64773H46.1261C45.5233 5.64773 45.0312 5.15747 45.0312 4.54955V0.5H45.0345Z" stroke="#B39C79" stroke-linecap="round" stroke-linejoin="round"/>
<path d="M47.2109 17.5244C44.6217 17.5244 42.5234 15.4262 42.5234 12.8369C42.5234 10.2476 44.6217 8.14941 47.2109 8.14941C49.8002 8.14941 51.8984 10.2476 51.8984 12.8369C51.8984 15.4262 49.8002 17.5244 47.2109 17.5244Z" stroke="#B39C79" stroke-linecap="round" stroke-linejoin="round"/>
<path d="M35.6501 8.90537L38.2161 4.44731L41.7124 6.47208C42.2344 6.77441 42.4162 7.44575 42.1131 7.97223L40.6403 10.531C40.3389 11.0547 39.6696 11.2369 39.1447 10.933L35.6484 8.9082L35.6501 8.90537Z" stroke="#B39C79" stroke-linecap="round" stroke-linejoin="round"/>
<path d="M38.2171 21.2589L35.6519 16.8004L39.1485 14.7762C39.6706 14.474 40.3411 14.6519 40.644 15.1784L42.1164 17.7375C42.4177 18.2612 42.2403 18.9337 41.7154 19.2376L38.2188 21.2617L38.2171 21.2589Z" stroke="#B39C79" stroke-linecap="round" stroke-linejoin="round"/>
<path d="M50.1608 25.2109L45.0288 25.21L45.0295 21.1605C45.0296 20.5558 45.5184 20.0624 46.1245 20.0625L49.0701 20.063C49.6729 20.0631 50.1649 20.5535 50.1648 21.1614L50.1641 25.2109L50.1608 25.2109Z" stroke="#B39C79" stroke-linecap="round" stroke-linejoin="round"/>
<path d="M59.5452 16.8007L56.9777 21.2578L53.4821 19.2318C52.9601 18.9293 52.7787 18.2579 53.0819 17.7316L54.5556 15.1733C54.8572 14.6497 55.5265 14.4677 56.0513 14.7719L59.5469 16.7979L59.5452 16.8007Z" stroke="#B39C79" stroke-linecap="round" stroke-linejoin="round"/>
<path d="M56.988 4.45107L59.5524 8.91004L56.0554 10.9336C55.5332 11.2357 54.8628 11.0577 54.56 10.5311L53.0881 7.9718C52.7868 7.44805 52.9643 6.77557 53.4893 6.47179L56.9863 4.44824L56.988 4.45107Z" stroke="#B39C79" stroke-linecap="round" stroke-linejoin="round"/>
</svg>
