<svg width="24" height="8" viewBox="0 0 24 8" fill="none" xmlns="http://www.w3.org/2000/svg">
<path d="M0.5 3.18201C0.223858 3.18201 0 3.40586 0 3.68201C0 3.95815 0.223858 4.18201 0.5 4.18201V3.68201V3.18201ZM23.8536 4.03556C24.0488 3.8403 24.0488 3.52372 23.8536 3.32845L20.6716 0.146473C20.4763 -0.0487893 20.1597 -0.0487893 19.9645 0.146473C19.7692 0.341735 19.7692 0.658318 19.9645 0.85358L22.7929 3.68201L19.9645 6.51043C19.7692 6.7057 19.7692 7.02228 19.9645 7.21754C20.1597 7.4128 20.4763 7.4128 20.6716 7.21754L23.8536 4.03556ZM0.5 3.68201V4.18201H23.5V3.68201V3.18201H0.5V3.68201Z" fill="#B39C79"/>
</svg>
