<svg width="60" height="50" viewBox="0 0 60 50" fill="none" xmlns="http://www.w3.org/2000/svg">
<path d="M34.375 24.2188V43.75H10.9375V20.3125H30.4688" stroke="#B39C79" stroke-linecap="round" stroke-linejoin="round"/>
<path d="M30.4688 20.3125V6.25H48.4375V24.2188H34.375" stroke="#B39C79" stroke-linecap="round" stroke-linejoin="round"/>
<path d="M18.1752 40.4688L15.538 33.5186H15.495C15.5093 33.6654 15.5219 33.8444 15.5326 34.0557C15.5434 34.2669 15.5523 34.4979 15.5595 34.7485C15.5666 34.9956 15.5702 35.248 15.5702 35.5059V40.4688H14.7216V32.6162H16.0751L18.5619 39.1475H18.5995L21.1239 32.6162H22.4667V40.4688H21.5644V35.4414C21.5644 35.2087 21.5679 34.9759 21.5751 34.7432C21.5823 34.5068 21.5912 34.2848 21.602 34.0771C21.6127 33.8659 21.6234 33.6833 21.6342 33.5293H21.5912L18.9218 40.4688H18.1752ZM27.4586 35.8926H24.3595V35.334L25.6324 34.0879C25.926 33.8014 26.1516 33.5669 26.3092 33.3843C26.4667 33.2017 26.5742 33.0369 26.6314 32.8901C26.6923 32.7433 26.7228 32.5858 26.7228 32.4175C26.7228 32.1812 26.6529 32.0003 26.5133 31.875C26.3736 31.7461 26.1856 31.6816 25.9493 31.6816C25.7309 31.6816 25.5286 31.7246 25.3424 31.8105C25.1598 31.8929 24.9736 32.0075 24.7838 32.1543L24.4239 31.6763C24.6388 31.4972 24.8715 31.354 25.1222 31.2466C25.3728 31.1392 25.6521 31.0854 25.9601 31.0854C26.4256 31.0854 26.7908 31.2018 27.0558 31.4346C27.3207 31.6637 27.4532 31.9788 27.4532 32.3799C27.4532 32.6234 27.4031 32.8472 27.3028 33.0513C27.2062 33.2554 27.0611 33.4613 26.8678 33.6689C26.678 33.8766 26.4452 34.1112 26.1695 34.3726L25.2564 35.2534H27.4586V35.8926Z" fill="#B39C79"/>
</svg>
