<svg width="60" height="50" viewBox="0 0 60 50" fill="none" xmlns="http://www.w3.org/2000/svg">
<path d="M14.0625 32.8125L46.0937 32.8125C50.4085 32.8125 53.9062 29.3147 53.9062 25C53.9062 20.6853 50.4085 17.1875 46.0938 17.1875L14.0625 17.1875C9.74778 17.1875 6.25 20.6853 6.25 25C6.25 29.3147 9.74778 32.8125 14.0625 32.8125Z" stroke="#B5A191" stroke-linecap="round" stroke-linejoin="round"/>
<path d="M14.0625 29.6875L46.0938 29.6875C48.6826 29.6875 50.7812 27.5888 50.7812 25C50.7812 22.4112 48.6826 20.3125 46.0938 20.3125L14.0625 20.3125C11.4737 20.3125 9.375 22.4112 9.375 25C9.375 27.5888 11.4737 29.6875 14.0625 29.6875Z" stroke="#B5A191" stroke-linecap="round" stroke-linejoin="round"/>
<path d="M14.0625 46.0938H7.8125L7.8125 40.5628C7.8125 40.1649 7.95291 39.7833 8.20284 39.5019C8.45277 39.2206 8.79174 39.0625 9.1452 39.0625H12.7298C13.0833 39.0625 13.4222 39.2206 13.6722 39.5019C13.9221 39.7833 14.0625 40.1649 14.0625 40.5628V46.0938Z" stroke="#B5A191" stroke-linecap="round" stroke-linejoin="round"/>
<path d="M23.4375 46.0938H17.1875V40.5628C17.1875 40.1649 17.3279 39.7833 17.5778 39.5019C17.8278 39.2206 18.1667 39.0625 18.5202 39.0625H22.1048C22.4583 39.0625 22.7972 39.2206 23.0472 39.5019C23.2971 39.7833 23.4375 40.1649 23.4375 40.5628V46.0938Z" stroke="#B5A191" stroke-linecap="round" stroke-linejoin="round"/>
<path d="M32.8125 46.0938H26.5625V40.5628C26.5625 40.1649 26.7029 39.7833 26.9528 39.5019C27.2028 39.2206 27.5417 39.0625 27.8952 39.0625H31.4798C31.8333 39.0625 32.1722 39.2206 32.4222 39.5019C32.6721 39.7833 32.8125 40.1649 32.8125 40.5628V46.0938Z" stroke="#B5A191" stroke-linecap="round" stroke-linejoin="round"/>
<path d="M42.1875 46.0938H35.9375V40.5628C35.9375 40.1649 36.0779 39.7833 36.3278 39.5019C36.5778 39.2206 36.9167 39.0625 37.2702 39.0625H40.8548C41.2083 39.0625 41.5472 39.2206 41.7972 39.5019C42.0471 39.7833 42.1875 40.1649 42.1875 40.5628V46.0938Z" stroke="#B5A191" stroke-linecap="round" stroke-linejoin="round"/>
<path d="M51.5625 46.0938H45.3125V40.5628C45.3125 40.1649 45.4529 39.7833 45.7028 39.5019C45.9528 39.2206 46.2917 39.0625 46.6452 39.0625H50.2298C50.5833 39.0625 50.9222 39.2206 51.1722 39.5019C51.4221 39.7833 51.5625 40.1649 51.5625 40.5628V46.0938Z" stroke="#B5A191" stroke-linecap="round" stroke-linejoin="round"/>
<path d="M14.0625 3.90625L7.8125 3.90625L7.8125 9.43719C7.8125 9.8351 7.95291 10.2167 8.20284 10.4981C8.45277 10.7794 8.79174 10.9375 9.1452 10.9375H12.7298C13.0833 10.9375 13.4222 10.7794 13.6722 10.4981C13.9221 10.2167 14.0625 9.8351 14.0625 9.43719V3.90625Z" stroke="#B5A191" stroke-linecap="round" stroke-linejoin="round"/>
<path d="M23.4375 3.90625L17.1875 3.90625V9.43719C17.1875 9.8351 17.3279 10.2167 17.5778 10.4981C17.8278 10.7794 18.1667 10.9375 18.5202 10.9375H22.1048C22.4583 10.9375 22.7972 10.7794 23.0472 10.4981C23.2971 10.2167 23.4375 9.8351 23.4375 9.43719V3.90625Z" stroke="#B5A191" stroke-linecap="round" stroke-linejoin="round"/>
<path d="M32.8125 3.90625L26.5625 3.90625V9.43719C26.5625 9.8351 26.7029 10.2167 26.9528 10.4981C27.2028 10.7794 27.5417 10.9375 27.8952 10.9375H31.4798C31.8333 10.9375 32.1722 10.7794 32.4222 10.4981C32.6721 10.2167 32.8125 9.8351 32.8125 9.43719V3.90625Z" stroke="#B5A191" stroke-linecap="round" stroke-linejoin="round"/>
<path d="M42.1875 3.90625L35.9375 3.90625V9.43719C35.9375 9.8351 36.0779 10.2167 36.3278 10.4981C36.5778 10.7794 36.9167 10.9375 37.2702 10.9375H40.8548C41.2083 10.9375 41.5472 10.7794 41.7972 10.4981C42.0471 10.2167 42.1875 9.8351 42.1875 9.43719V3.90625Z" stroke="#B5A191" stroke-linecap="round" stroke-linejoin="round"/>
<path d="M51.5625 3.90625L45.3125 3.90625V9.43719C45.3125 9.8351 45.4529 10.2167 45.7028 10.4981C45.9528 10.7794 46.2917 10.9375 46.6452 10.9375H50.2298C50.5833 10.9375 50.9222 10.7794 51.1722 10.4981C51.4221 10.2167 51.5625 9.8351 51.5625 9.43719V3.90625Z" stroke="#B5A191" stroke-linecap="round" stroke-linejoin="round"/>
</svg>
