<svg width="16" height="16" viewBox="0 0 16 16" fill="none" xmlns="http://www.w3.org/2000/svg">
<path d="M9.9197 10.4276L10.2234 10.1257L9.51823 9.41654L9.21463 9.71847L9.9197 10.4276ZM11.2431 9.9992L12.5168 10.6916L12.9944 9.81307L11.7207 9.12067L11.2431 9.9992ZM12.762 12.0677L11.8149 13.0094L12.52 13.7185L13.467 12.7769L12.762 12.0677ZM11.2378 13.3126C10.2712 13.4027 7.77043 13.3224 5.06282 10.6301L4.35773 11.3393C7.31243 14.2772 10.1246 14.4207 11.3306 14.3083L11.2378 13.3126ZM5.06282 10.6301C2.4819 8.06387 2.05437 5.90544 2.00115 4.96904L1.00277 5.02578C1.06974 6.20433 1.59912 8.59634 4.35773 11.3393L5.06282 10.6301ZM5.9797 6.50994L6.1709 6.31982L5.46583 5.6107L5.27463 5.80082L5.9797 6.50994ZM6.3231 3.89634L5.48247 2.77341L4.68194 3.3727L5.52257 4.49564L6.3231 3.89634ZM2.65512 2.529L1.60872 3.56946L2.31381 4.27858L3.36021 3.23812L2.65512 2.529ZM5.62717 6.15538C5.27463 5.80082 5.27415 5.8013 5.27367 5.80178C5.27351 5.80194 5.27303 5.80242 5.2727 5.80275C5.27205 5.80341 5.27138 5.80408 5.27071 5.80476C5.26935 5.80614 5.26795 5.80758 5.26651 5.80907C5.26363 5.81206 5.26057 5.8153 5.25736 5.8188C5.25093 5.82578 5.24387 5.83376 5.23631 5.84278C5.22119 5.86082 5.20407 5.88302 5.18607 5.90959C5.14998 5.96285 5.11066 6.03327 5.07729 6.12183C5.00921 6.30253 4.97271 6.54074 5.01847 6.8357C5.10796 7.41256 5.50523 8.17454 6.5229 9.1864L7.22797 8.47727C6.27563 7.53033 6.04877 6.95406 6.00663 6.6824C5.98657 6.55311 6.00737 6.48948 6.0131 6.47441C6.01657 6.46509 6.01823 6.46414 6.01397 6.4705C6.01183 6.47362 6.0083 6.47849 6.00277 6.48506C6.00003 6.48834 5.99677 6.49206 5.99297 6.49621C5.99103 6.49828 5.98903 6.50046 5.98677 6.50275C5.9857 6.5039 5.98457 6.50506 5.98337 6.50626C5.98277 6.50686 5.98217 6.50747 5.98157 6.50808C5.9813 6.50839 5.98083 6.50886 5.98063 6.50901C5.98017 6.50948 5.9797 6.50994 5.62717 6.15538ZM6.5229 9.1864C7.5409 10.1986 8.30643 10.5925 8.88423 10.6812C9.1795 10.7265 9.41757 10.6903 9.59817 10.6231C9.6867 10.5901 9.75723 10.5512 9.81057 10.5155C9.83723 10.4976 9.8595 10.4806 9.87757 10.4656C9.88663 10.4581 9.89463 10.4511 9.90163 10.4447C9.90517 10.4415 9.90843 10.4385 9.91143 10.4357C9.91297 10.4342 9.91437 10.4328 9.91577 10.4315C9.91643 10.4308 9.9171 10.4301 9.91777 10.4295C9.9181 10.4291 9.91863 10.4287 9.91877 10.4285C9.91923 10.4281 9.9197 10.4276 9.56717 10.073C9.21463 9.71847 9.2151 9.718 9.21557 9.71754C9.2157 9.7174 9.21617 9.71694 9.2165 9.7166C9.2171 9.716 9.2177 9.7154 9.2183 9.7148C9.21957 9.71367 9.2207 9.71254 9.22183 9.7114C9.22417 9.7092 9.22637 9.7072 9.22843 9.70527C9.23257 9.70154 9.2363 9.69827 9.23963 9.6956C9.24617 9.69014 9.25103 9.68667 9.25403 9.6846C9.26023 9.68047 9.25897 9.68233 9.2491 9.686C9.23277 9.69207 9.16737 9.71294 9.0359 9.69274C8.76037 9.65054 8.18003 9.42387 7.22797 8.47727L6.5229 9.1864ZM5.48247 2.77341C4.80293 1.86568 3.46667 1.72205 2.65512 2.529L3.36021 3.23812C3.71467 2.88567 4.34419 2.92154 4.68194 3.3727L5.48247 2.77341ZM2.00115 4.96904C1.98804 4.7383 2.09387 4.49727 2.31381 4.27858L1.60872 3.56946C1.25051 3.92564 0.968892 4.42984 1.00277 5.02578L2.00115 4.96904ZM11.8149 13.0094C11.6317 13.1916 11.4353 13.2942 11.2378 13.3126L11.3306 14.3083C11.8204 14.2626 12.2216 14.0152 12.52 13.7185L11.8149 13.0094ZM6.1709 6.31982C6.82723 5.6672 6.87603 4.63494 6.3231 3.89634L5.52257 4.49564C5.79157 4.85496 5.75157 5.32659 5.46583 5.6107L6.1709 6.31982ZM12.5168 10.6916C13.062 10.988 13.1469 11.6849 12.762 12.0677L13.467 12.7769C14.3606 11.8884 14.085 10.4059 12.9944 9.81307L12.5168 10.6916ZM10.2234 10.1257C10.4794 9.87114 10.8914 9.80807 11.2431 9.9992L11.7207 9.12067C10.9983 8.72794 10.1018 8.8364 9.51823 9.41654L10.2234 10.1257Z" fill="#B39C79"/>
</svg>
