<svg width="60" height="50" viewBox="0 0 60 50" fill="none" xmlns="http://www.w3.org/2000/svg">
<rect x="11.7188" y="7.03125" width="35.9375" height="35.9375" stroke="#B39C79" stroke-linecap="round" stroke-linejoin="round"/>
<path d="M18.3223 14.4902C18.127 14.2949 17.8105 14.2949 17.6152 14.4902L14.4332 17.6722C14.238 17.8674 14.238 18.184 14.4332 18.3793C14.6285 18.5745 14.9451 18.5745 15.1403 18.3793L17.9688 15.5509L20.7972 18.3793C20.9924 18.5745 21.309 18.5745 21.5043 18.3793C21.6995 18.184 21.6995 17.8674 21.5043 17.6722L18.3223 14.4902ZM42.5411 37.0723C42.7363 36.877 42.7363 36.5605 42.5411 36.3652L39.3591 33.1832C39.1638 32.988 38.8472 32.988 38.652 33.1832C38.4567 33.3785 38.4567 33.6951 38.652 33.8903L41.4804 36.7188L38.652 39.5472C38.4567 39.7424 38.4567 40.059 38.652 40.2543C38.8472 40.4495 39.1638 40.4495 39.3591 40.2543L42.5411 37.0723ZM17.9688 14.8438H17.4688V35.9375H17.9688H18.4688V14.8438H17.9688ZM18.75 36.7188V37.2188H42.1875V36.7188V36.2188H18.75V36.7188ZM17.9688 35.9375H17.4688C17.4688 36.6451 18.0424 37.2188 18.75 37.2188V36.7188V36.2188C18.5947 36.2188 18.4688 36.0928 18.4688 35.9375H17.9688Z" fill="#B39C79"/>
<path d="M22.6562 13.2812H41.4062V31.25" stroke="#B39C79" stroke-linecap="round" stroke-linejoin="round"/>
</svg>
