<svg width="16" height="16" viewBox="0 0 16 16" fill="none" xmlns="http://www.w3.org/2000/svg">
<path d="M13.9811 5C13.9811 5 11.3003 8.33333 8.00033 8.33333C4.70034 8.33333 2.01953 5 2.01953 5M4.13333 12.3333H11.8667C12.6134 12.3333 12.9868 12.3333 13.272 12.188C13.5229 12.0602 13.7269 11.8562 13.8547 11.6053C14 11.3201 14 10.9467 14 10.2V5.13333C14 4.3866 14 4.01323 13.8547 3.72801C13.7269 3.47713 13.5229 3.27315 13.272 3.14533C12.9868 3 12.6134 3 11.8667 3H4.13333C3.3866 3 3.01323 3 2.72801 3.14533C2.47713 3.27315 2.27315 3.47713 2.14533 3.72801C2 4.01323 2 4.38659 2 5.13333V10.2C2 10.9467 2 11.3201 2.14533 11.6053C2.27315 11.8562 2.47713 12.0602 2.72801 12.188C3.01323 12.3333 3.38659 12.3333 4.13333 12.3333Z" stroke="#B39C79" stroke-linecap="round" stroke-linejoin="round"/>
</svg>
