<svg width="24" height="8" viewBox="0 0 24 8" fill="none" xmlns="http://www.w3.org/2000/svg">
<path d="M0.5 3.18359C0.223858 3.18359 0 3.40745 0 3.68359C0 3.95974 0.223858 4.18359 0.5 4.18359V3.68359V3.18359ZM23.8536 4.03715C24.0488 3.84189 24.0488 3.5253 23.8536 3.33004L20.6716 0.14806C20.4763 -0.0472023 20.1597 -0.0472023 19.9645 0.14806C19.7692 0.343322 19.7692 0.659904 19.9645 0.855167L22.7929 3.68359L19.9645 6.51202C19.7692 6.70728 19.7692 7.02387 19.9645 7.21913C20.1597 7.41439 20.4763 7.41439 20.6716 7.21913L23.8536 4.03715ZM0.5 3.68359V4.18359H23.5V3.68359V3.18359H0.5V3.68359Z" fill="black"/>
</svg>
