<svg width="50" height="34" viewBox="0 0 50 34" fill="none" xmlns="http://www.w3.org/2000/svg">
<g clip-path="url(#clip0_845_3034)">
<path d="M24.5447 13.5257L23.5869 14.1833L25.0428 16.4628L26.0006 15.8053L24.5447 13.5257Z" fill="#1B1C4C"/>
<path d="M25.7908 12.6721L24.833 13.3296L26.2889 15.6092L27.2467 14.9517L25.7908 12.6721Z" fill="#1B1C4C"/>
<path d="M23.3056 14.3761L21.1045 15.8843L21.7334 16.8754L23.9386 15.3671L23.3056 14.3761Z" fill="#1B1C4C"/>
<path d="M24.1278 15.667L21.9268 17.1753L22.5556 18.1619L24.7609 16.658L24.1278 15.667Z" fill="#1B1C4C"/>
<path d="M28.6765 12.1202C28.9406 11.9377 29.0119 11.5682 28.84 11.2944C28.6639 11.0205 28.3076 10.9466 28.0434 11.1292L26.0771 12.4766L26.7102 13.472L28.6765 12.1202Z" fill="#1B1C4C"/>
<path d="M29.4939 13.4025C29.758 13.2199 29.8293 12.8504 29.6574 12.5766C29.4813 12.3028 29.1249 12.2289 28.8608 12.4071L26.8945 13.7589L27.5276 14.7542L29.4939 13.4025Z" fill="#1B1C4C"/>
<path d="M23.7089 17.8106L22.751 18.468L24.2065 20.7478L25.1644 20.0905L23.7089 17.8106Z" fill="#1B1C4C"/>
<path d="M24.9491 16.9596L23.9912 17.6169L25.4467 19.8968L26.4046 19.2394L24.9491 16.9596Z" fill="#1B1C4C"/>
<path d="M27.4312 15.2497L25.2344 16.758L25.8633 17.7447L28.0643 16.2408L27.4312 15.2497Z" fill="#1B1C4C"/>
<path d="M28.2577 16.5363L26.0566 18.0446L26.6855 19.0312L28.8908 17.5273L28.2577 16.5363Z" fill="#1B1C4C"/>
<path d="M28.6756 14.3855L27.7178 15.043L29.1737 17.3226L30.1315 16.6651L28.6756 14.3855Z" fill="#1B1C4C"/>
<path d="M29.9188 13.5363L28.9609 14.1938L30.4168 16.4733L31.3746 15.8158L29.9188 13.5363Z" fill="#1B1C4C"/>
<path d="M25.5409 9.4818C25.3648 9.20797 25.0084 9.13407 24.7443 9.31228C24.4802 9.49484 24.4089 9.8643 24.5808 10.1381L25.8847 12.1767L26.8447 11.5203L25.5409 9.4818Z" fill="#1B1C4C"/>
<path d="M26.7782 8.62989C26.6021 8.35605 26.2457 8.28216 25.9816 8.46037C25.7175 8.64293 25.6462 9.01239 25.8181 9.28622L27.122 11.3248L28.0821 10.6684L26.7782 8.62989Z" fill="#1B1C4C"/>
<path d="M24.1454 10.099L21.9443 11.6073L22.5774 12.5939L24.7785 11.09L24.1454 10.099Z" fill="#1B1C4C"/>
<path d="M24.9657 11.3856L22.7646 12.8938L23.3977 13.8805L25.5988 12.3766L24.9657 11.3856Z" fill="#1B1C4C"/>
<path d="M20.5731 12.8896C20.397 12.6157 20.0407 12.5418 19.7765 12.72C19.5124 12.9026 19.4411 13.272 19.613 13.5459L20.9169 15.5844L21.877 14.9281L20.5731 12.8896Z" fill="#1B1C4C"/>
<path d="M21.8094 12.042C21.6333 11.7682 21.277 11.6943 21.0128 11.8725C20.7487 12.055 20.6775 12.4245 20.8493 12.6983L22.1532 14.7369L23.1133 14.0805L21.8094 12.042Z" fill="#1B1C4C"/>
<path d="M26.5936 19.5267L24.3926 21.035L25.0215 22.0216L27.2267 20.5177L26.5936 19.5267Z" fill="#1B1C4C"/>
<path d="M27.4149 20.8134L25.2139 22.3216L25.8469 23.3083L28.048 21.8044L27.4149 20.8134Z" fill="#1B1C4C"/>
<path d="M31.9636 17.2709C32.2277 17.0883 32.299 16.7189 32.1271 16.445C31.951 16.1712 31.5947 16.0973 31.3305 16.2755L29.3643 17.6273L29.9973 18.6227L31.9678 17.2709H31.9636Z" fill="#1B1C4C"/>
<path d="M32.7852 18.5531C33.0493 18.3705 33.1206 18.0011 32.9487 17.7272C32.7726 17.4534 32.4163 17.3795 32.1521 17.5577L30.1816 18.9095L30.8189 19.9049L32.7852 18.5531Z" fill="#1B1C4C"/>
<path d="M29.4181 20.5221C29.5942 20.7959 29.9506 20.8698 30.2147 20.6916C30.4788 20.5091 30.5501 20.1396 30.3782 19.8658L29.0743 17.8272L28.1143 18.4836L29.4181 20.5221Z" fill="#1B1C4C"/>
<path d="M28.1828 21.3697C28.3589 21.6435 28.7152 21.7174 28.9793 21.5392C29.2435 21.3566 29.3148 20.9872 29.1429 20.7133L27.839 18.6748L26.8789 19.3311L28.1828 21.3697Z" fill="#1B1C4C"/>
<path d="M19.58 16.9408L18.6221 17.5981L20.0776 19.878L21.0355 19.2206L19.58 16.9408Z" fill="#1B1C4C"/>
<path d="M20.8202 16.0767L19.8623 16.734L21.3178 19.0138L22.2757 18.3565L20.8202 16.0767Z" fill="#1B1C4C"/>
<path d="M24.4513 23.9299C24.6274 24.2037 24.9838 24.2776 25.2479 24.0994C25.512 23.9168 25.5833 23.5474 25.4114 23.2735L24.1075 21.235L23.1475 21.8913L24.4513 23.9299Z" fill="#1B1C4C"/>
<path d="M23.2101 24.7774C23.3862 25.0513 23.7426 25.1252 24.0067 24.947C24.2708 24.7644 24.3421 24.3949 24.1702 24.1211L22.8663 22.0826L21.9062 22.7389L23.2101 24.7774Z" fill="#1B1C4C"/>
<path d="M21.3106 21.2871C21.0465 21.4697 20.971 21.8392 21.1471 22.113C21.3232 22.3868 21.6795 22.4607 21.9437 22.2825L23.91 20.9307L23.2769 19.9354L21.3106 21.2871Z" fill="#1B1C4C"/>
<path d="M20.4942 20.0048C20.2301 20.1874 20.1546 20.5568 20.3307 20.8307C20.5068 21.1045 20.8631 21.1784 21.1273 20.9958L23.0936 19.6484L22.4605 18.653L20.4942 20.0048Z" fill="#1B1C4C"/>
<path d="M18.0284 16.1408C17.7642 16.3233 17.6888 16.6928 17.8649 16.9666C18.041 17.2405 18.3973 17.3143 18.6614 17.1361L20.6277 15.7843L19.9947 14.789L18.0284 16.1408Z" fill="#1B1C4C"/>
<path d="M17.2061 14.8585C16.942 15.0411 16.8665 15.4106 17.0426 15.6844C17.2187 15.9582 17.575 16.0321 17.8392 15.8539L19.8055 14.5021L19.1724 13.5068L17.2061 14.8585Z" fill="#1B1C4C"/>
<path d="M27.7299 9.47312C29.5536 8.00397 30.0064 5.3004 28.7109 3.26621C27.3484 1.13638 24.5813 0.549594 22.5228 1.96223C20.4685 3.37487 19.9025 6.24361 21.265 8.37778L21.416 8.6125L22.7198 10.651L21.7597 11.3074L20.4559 9.26883L20.3008 9.03412C18.5902 6.35228 19.2987 2.74027 21.8855 0.966865C24.4723 -0.806539 27.9563 -0.0719674 29.6668 2.60987C31.3145 5.19174 30.7191 8.63423 28.3629 10.4728L27.7257 9.47746L27.7299 9.47312Z" fill="#1B1C4C"/>
<path d="M26.9081 8.19086C28.0526 7.19115 28.321 5.43948 27.4741 4.11377C26.5643 2.68809 24.707 2.2969 23.3319 3.24011C21.9567 4.18332 21.5794 6.10451 22.4892 7.53453L22.6485 7.7649L23.9524 9.80344L22.9923 10.4598L21.6884 8.42123L21.5417 8.18217C20.2839 6.21317 20.8038 3.56176 22.703 2.26213C24.6022 0.958156 27.1596 1.49713 28.4174 3.46613C29.6123 5.33516 29.2014 7.81706 27.5328 9.17754L26.9039 8.19086H26.9081Z" fill="#1B1C4C"/>
<path d="M31.9727 19.5354C33.3897 21.4262 36.0017 21.8956 37.9596 20.5526C40.0139 19.1399 40.5799 16.2712 39.2173 14.137C37.8547 12.0072 35.0877 11.4204 33.0292 12.833L32.8028 12.9895L30.8365 14.3413L30.1992 13.3459L32.1697 11.9941L32.3961 11.8377C34.9829 10.0643 38.4669 10.7988 40.1774 13.4807C41.8879 16.1625 41.1794 19.7745 38.5926 21.5479C36.1023 23.2561 32.7818 22.6389 31.0084 20.1961L31.9685 19.5354H31.9727Z" fill="#1B1C4C"/>
<path d="M33.2087 18.6878C34.173 19.8788 35.8626 20.1526 37.1455 19.2746C38.5206 18.3314 38.898 16.4102 37.9882 14.9802C37.0784 13.5545 35.2211 13.1633 33.846 14.1066L33.6238 14.2717L31.6575 15.6235L31.0244 14.6281L32.9907 13.2807L33.2213 13.1286C35.1205 11.8246 37.6779 12.3636 38.9357 14.3326C40.1934 16.3016 39.6736 18.953 37.7744 20.2526C35.9716 21.4914 33.5777 21.0654 32.2612 19.3355L33.2129 18.6835L33.2087 18.6878Z" fill="#1B1C4C"/>
<path d="M22.2698 23.9386C20.4419 25.4077 19.9933 28.1156 21.2888 30.1455C22.6513 32.2753 25.4184 32.8621 27.4769 31.4494C29.5313 30.0368 30.0972 27.1681 28.7347 25.0339L28.5837 24.7992L27.2799 22.7606L28.24 22.1043L29.5438 24.1428L29.6948 24.3776C31.4053 27.0594 30.6968 30.6714 28.11 32.4448C25.5232 34.2182 22.0392 33.4836 20.3287 30.8018C18.681 28.2199 19.2764 24.7774 21.6326 22.9388L22.2698 23.9342V23.9386Z" fill="#1B1C4C"/>
<path d="M23.0878 25.2208C21.9391 26.2205 21.675 27.9722 22.5218 29.2979C23.4316 30.7236 25.2889 31.1147 26.664 30.1715C28.0392 29.2283 28.4165 27.3071 27.5067 25.8771L27.3474 25.6468L26.0435 23.6082L27.0036 22.9519L28.3075 24.9904L28.4542 25.2295C29.712 27.1985 29.1921 29.8499 27.2929 31.1539C25.3937 32.4578 22.8363 31.9189 21.5785 29.9499C20.3837 28.0808 20.7945 25.5989 22.4632 24.2385L23.092 25.2251L23.0878 25.2208Z" fill="#1B1C4C"/>
<path d="M18.0231 13.8762C16.606 11.9854 13.9941 11.516 12.0362 12.8591C9.98184 14.2717 9.41585 17.1405 10.7784 19.2747C12.141 21.4045 14.908 21.9913 16.9666 20.5786L17.193 20.4222L19.1593 19.0704L19.7923 20.0657L17.826 21.4175L17.5996 21.574C15.0129 23.3474 11.5289 22.6128 9.81834 19.931C8.10779 17.2491 8.81633 13.6371 11.4031 11.8637C13.8935 10.1555 17.2181 10.7728 18.9874 13.2155L18.0273 13.8762H18.0231Z" fill="#1B1C4C"/>
<path d="M16.7865 14.7237C15.8222 13.5328 14.1327 13.2589 12.8497 14.137C11.4746 15.0802 11.0973 17.0014 12.0071 18.427C12.9168 19.8527 14.7699 20.2439 16.1493 19.3007L16.3715 19.1355L18.3377 17.7837L18.9708 18.7791L17.0003 20.1309L16.7697 20.283C14.8705 21.587 12.3131 21.048 11.0554 19.079C9.7976 17.11 10.3175 14.4586 12.2167 13.159C14.0195 11.9202 16.4134 12.3462 17.7298 14.0761L16.7781 14.7281L16.7865 14.7237Z" fill="#1B1C4C"/>
</g>
<defs>
<clipPath id="clip0_845_3034">
<rect width="50" height="34" fill="white"/>
</clipPath>
</defs>
</svg>
