<svg width="24" height="24" viewBox="0 0 24 24" fill="none" xmlns="http://www.w3.org/2000/svg">
<path d="M15.6111 10.5556H8.38889M15.6111 13.4444H12M15.6111 5.5V6.94444M8.38889 5.5V6.94444M16.1889 18.5H7.81111C7.00215 18.5 6.59763 18.5 6.28867 18.3426C6.01689 18.2041 5.79589 17.9831 5.65744 17.7113C5.5 17.4024 5.5 16.9978 5.5 16.1889V9.25556C5.5 8.44659 5.5 8.04211 5.65744 7.73313C5.79589 7.46133 6.01689 7.24036 6.28867 7.10188C6.59763 6.94444 7.00215 6.94444 7.81111 6.94444H16.1889C16.9979 6.94444 17.4023 6.94444 17.7113 7.10188C17.9831 7.24036 18.2041 7.46133 18.3426 7.73313C18.5 8.04211 18.5 8.44659 18.5 9.25556V16.1889C18.5 16.9978 18.5 17.4024 18.3426 17.7113C18.2041 17.9831 17.9831 18.2041 17.7113 18.3426C17.4023 18.5 16.9979 18.5 16.1889 18.5Z" stroke="#B39C79" stroke-linecap="round" stroke-linejoin="round"/>
</svg>
