<svg width="16" height="16" viewBox="0 0 16 16" fill="none" xmlns="http://www.w3.org/2000/svg">
<path d="M13.9811 5.33337C13.9811 5.33337 11.3003 8.66671 8.00033 8.66671C4.70034 8.66671 2.01953 5.33337 2.01953 5.33337M4.13333 12.6667H11.8667C12.6134 12.6667 12.9868 12.6667 13.272 12.5214C13.5229 12.3936 13.7269 12.1896 13.8547 11.9387C14 11.6535 14 11.2801 14 10.5334V5.46671C14 4.71997 14 4.3466 13.8547 4.06139C13.7269 3.8105 13.5229 3.60653 13.272 3.4787C12.9868 3.33337 12.6134 3.33337 11.8667 3.33337H4.13333C3.3866 3.33337 3.01323 3.33337 2.72801 3.4787C2.47713 3.60653 2.27315 3.8105 2.14533 4.06139C2 4.3466 2 4.71997 2 5.46671V10.5334C2 11.2801 2 11.6535 2.14533 11.9387C2.27315 12.1896 2.47713 12.3936 2.72801 12.5214C3.01323 12.6667 3.38659 12.6667 4.13333 12.6667Z" stroke="#B39C79" stroke-linecap="round" stroke-linejoin="round"/>
</svg>
