<svg width="16" height="16" viewBox="0 0 16 16" fill="none" xmlns="http://www.w3.org/2000/svg">
<path d="M11.0867 9.26061L11.3904 8.95868L10.6852 8.24954L10.3816 8.55148L11.0867 9.26061ZM12.4101 8.83221L13.6838 9.52461L14.1614 8.64608L12.8877 7.95368L12.4101 8.83221ZM13.929 10.9007L12.9819 11.8424L13.687 12.5515L14.634 11.6099L13.929 10.9007ZM12.4048 12.1456C11.4382 12.2357 8.93742 12.1554 6.22981 9.46314L5.52472 10.1723C8.47942 13.1102 11.2916 13.2537 12.4976 13.1413L12.4048 12.1456ZM6.22981 9.46314C3.64889 6.89688 3.22136 4.73844 3.16814 3.80204L2.16976 3.85878C2.23673 5.03734 2.76611 7.42934 5.52472 10.1723L6.22981 9.46314ZM7.14669 5.34295L7.33789 5.15282L6.63282 4.44371L6.44162 4.63383L7.14669 5.34295ZM7.49009 2.72935L6.64946 1.60642L5.84893 2.20571L6.68956 3.32865L7.49009 2.72935ZM3.82211 1.362L2.77571 2.40246L3.4808 3.11158L4.5272 2.07112L3.82211 1.362ZM6.79416 4.98839C6.44162 4.63383 6.44114 4.6343 6.44066 4.63478C6.4405 4.63494 6.44002 4.63543 6.43969 4.63576C6.43904 4.63642 6.43837 4.63708 6.4377 4.63777C6.43634 4.63915 6.43494 4.64058 6.43351 4.64208C6.43062 4.64507 6.42756 4.64831 6.42435 4.6518C6.41792 4.65878 6.41086 4.66677 6.4033 4.67579C6.38819 4.69382 6.37106 4.71603 6.35306 4.7426C6.31697 4.79586 6.27765 4.86628 6.24428 4.95484C6.1762 5.13554 6.1397 5.37374 6.18546 5.66871C6.27495 6.24556 6.67222 7.00754 7.68989 8.01941L8.39496 7.31028C7.44262 6.36334 7.21576 5.78707 7.17362 5.5154C7.15356 5.38612 7.17436 5.32248 7.18009 5.30742C7.18356 5.2981 7.18522 5.29714 7.18096 5.30351C7.17882 5.30662 7.17529 5.3115 7.16976 5.31806C7.16702 5.32135 7.16376 5.32507 7.15996 5.32922C7.15802 5.33129 7.15602 5.33347 7.15376 5.33576C7.15269 5.3369 7.15156 5.33807 7.15036 5.33927C7.14976 5.33987 7.14916 5.34048 7.14856 5.34109C7.14829 5.3414 7.14782 5.34186 7.14762 5.34202C7.14716 5.34248 7.14669 5.34295 6.79416 4.98839ZM7.68989 8.01941C8.70789 9.03161 9.47342 9.42554 10.0512 9.51421C10.3465 9.55948 10.5846 9.52334 10.7652 9.45608C10.8537 9.42308 10.9242 9.38421 10.9776 9.34848C11.0042 9.33061 11.0265 9.31361 11.0446 9.29861C11.0536 9.29114 11.0616 9.28414 11.0686 9.27774C11.0722 9.27454 11.0754 9.27154 11.0784 9.26868C11.08 9.26721 11.0814 9.26581 11.0828 9.26448C11.0834 9.26381 11.0841 9.26314 11.0848 9.26248C11.0851 9.26214 11.0856 9.26168 11.0858 9.26154C11.0862 9.26108 11.0867 9.26061 10.7342 8.90601C10.3816 8.55148 10.3821 8.55101 10.3826 8.55054C10.3827 8.55041 10.3832 8.54994 10.3835 8.54961C10.3841 8.54901 10.3847 8.54841 10.3853 8.54781C10.3866 8.54668 10.3877 8.54554 10.3888 8.54441C10.3912 8.54221 10.3934 8.54021 10.3954 8.53828C10.3996 8.53454 10.4033 8.53128 10.4066 8.52861C10.4132 8.52314 10.418 8.51968 10.421 8.51761C10.4272 8.51348 10.426 8.51534 10.4161 8.51901C10.3998 8.52508 10.3344 8.54594 10.2029 8.52574C9.92736 8.48354 9.34702 8.25688 8.39496 7.31028L7.68989 8.01941ZM6.64946 1.60642C5.96992 0.69869 4.63366 0.555056 3.82211 1.362L4.5272 2.07112C4.88166 1.71868 5.51118 1.75455 5.84893 2.20571L6.64946 1.60642ZM3.16814 3.80204C3.15503 3.5713 3.26086 3.33028 3.4808 3.11158L2.77571 2.40246C2.4175 2.75864 2.13588 3.26284 2.16976 3.85878L3.16814 3.80204ZM12.9819 11.8424C12.7987 12.0246 12.6023 12.1272 12.4048 12.1456L12.4976 13.1413C12.9874 13.0956 13.3886 12.8482 13.687 12.5515L12.9819 11.8424ZM7.33789 5.15282C7.99422 4.50021 8.04303 3.46794 7.49009 2.72935L6.68956 3.32865C6.95856 3.68797 6.91856 4.1596 6.63282 4.44371L7.33789 5.15282ZM13.6838 9.52461C14.229 9.82101 14.3139 10.5179 13.929 10.9007L14.634 11.6099C15.5276 10.7214 15.252 9.23894 14.1614 8.64608L13.6838 9.52461ZM11.3904 8.95868C11.6464 8.70414 12.0584 8.64108 12.4101 8.83221L12.8877 7.95368C12.1653 7.56094 11.2688 7.66941 10.6852 8.24954L11.3904 8.95868Z" fill="#B39C79"/>
</svg>
