<svg width="16" height="16" viewBox="0 0 16 16" fill="none" xmlns="http://www.w3.org/2000/svg">
<path fill-rule="evenodd" clip-rule="evenodd" d="M8.18987 12.6623C8.10447 12.725 8.02487 12.7819 7.95213 12.8329C7.87453 12.7814 7.78847 12.7222 7.69513 12.6555C7.25507 12.3406 6.68433 11.8784 6.12225 11.3019C4.96935 10.1195 4 8.61007 4 7C4 4.79086 5.79086 3 8 3C10.2091 3 12 4.79086 12 7C12 8.5928 10.9879 10.0979 9.79287 11.2929C9.21307 11.8727 8.6296 12.3399 8.18987 12.6623ZM13 7C13 11 8 14 8 14C7.75 14 3 11 3 7C3 4.23857 5.23857 2 8 2C10.7614 2 13 4.23857 13 7ZM9 7C9 7.55227 8.55227 8 8 8C7.44773 8 7 7.55227 7 7C7 6.44771 7.44773 6 8 6C8.55227 6 9 6.44771 9 7ZM10 7C10 8.1046 9.1046 9 8 9C6.8954 9 6 8.1046 6 7C6 5.89543 6.8954 5 8 5C9.1046 5 10 5.89543 10 7Z" fill="#B39C79"/>
</svg>
