<svg width="70" height="73" viewBox="0 0 70 73" fill="none" xmlns="http://www.w3.org/2000/svg">
<g clip-path="url(#clip0_554_3933)">
<path d="M34.1409 18.9206L32.8086 19.8404L34.8337 23.0292L36.166 22.1094L34.1409 18.9206Z" fill="white"/>
<path d="M35.8753 17.7265L34.543 18.6463L36.5681 21.8351L37.9004 20.9153L35.8753 17.7265Z" fill="white"/>
<path d="M32.4181 20.1101L29.3564 22.22L30.2312 23.6063L33.2987 21.4964L32.4181 20.1101Z" fill="white"/>
<path d="M33.5616 21.9159L30.5 24.0258L31.3747 25.406L34.4422 23.3022L33.5616 21.9159Z" fill="white"/>
<path d="M39.8881 16.9545C40.2555 16.6991 40.3546 16.1823 40.1155 15.7992C39.8706 15.4162 39.3749 15.3128 39.0075 15.5682L36.2725 17.4531L37.153 18.8454L39.8881 16.9545Z" fill="white"/>
<path d="M41.0258 18.7482C41.3932 18.4928 41.4923 17.976 41.2532 17.5929C41.0083 17.2099 40.5126 17.1065 40.1452 17.3558L37.4102 19.2467L38.2907 20.6391L41.0258 18.7482Z" fill="white"/>
<path d="M32.9789 24.9146L31.6465 25.8341L33.6711 29.0233L35.0035 28.1037L32.9789 24.9146Z" fill="white"/>
<path d="M34.7035 23.7241L33.3711 24.6436L35.3957 27.8328L36.7281 26.9132L34.7035 23.7241Z" fill="white"/>
<path d="M38.1564 21.3322L35.1006 23.4421L35.9753 24.8223L39.037 22.7185L38.1564 21.3322Z" fill="white"/>
<path d="M39.3058 23.132L36.2441 25.2418L37.1189 26.622L40.1863 24.5183L39.3058 23.132Z" fill="white"/>
<path d="M39.887 20.1233L38.5547 21.0431L40.5798 24.2319L41.9121 23.3121L39.887 20.1233Z" fill="white"/>
<path d="M41.6155 18.9353L40.2832 19.8551L42.3083 23.0439L43.6406 22.1241L41.6155 18.9353Z" fill="white"/>
<path d="M35.526 13.2637C35.2811 12.8806 34.7854 12.7773 34.418 13.0266C34.0506 13.2819 33.9515 13.7988 34.1906 14.1818L36.0042 17.0335L37.3397 16.1153L35.526 13.2637Z" fill="white"/>
<path d="M37.2467 12.072C37.0018 11.6889 36.5061 11.5856 36.1387 11.8349C35.7713 12.0902 35.6722 12.6071 35.9113 12.9901L37.7249 15.8418L39.0604 14.9236L37.2467 12.072Z" fill="white"/>
<path d="M33.5841 14.1271L30.5225 16.2369L31.403 17.6172L34.4647 15.5134L33.5841 14.1271Z" fill="white"/>
<path d="M34.7276 15.9268L31.666 18.0367L32.5466 19.4169L35.6082 17.3131L34.7276 15.9268Z" fill="white"/>
<path d="M28.6159 18.0307C28.3709 17.6476 27.8753 17.5443 27.5079 17.7935C27.1405 18.0489 27.0413 18.5657 27.2804 18.9488L29.0941 21.8004L30.4295 20.8823L28.6159 18.0307Z" fill="white"/>
<path d="M30.3366 16.8451C30.0916 16.462 29.596 16.3586 29.2286 16.6079C28.8612 16.8633 28.762 17.3801 29.0011 17.7632L30.8148 20.6148L32.1502 19.6967L30.3366 16.8451Z" fill="white"/>
<path d="M36.9903 27.3151L33.9287 29.425L34.8035 30.8052L37.8709 28.7014L36.9903 27.3151Z" fill="white"/>
<path d="M38.1339 29.115L35.0723 31.2248L35.9528 32.6051L39.0145 30.5013L38.1339 29.115Z" fill="white"/>
<path d="M44.4603 24.1595C44.8277 23.9042 44.9269 23.3873 44.6878 23.0043C44.4429 22.6212 43.9472 22.5179 43.5798 22.7671L40.8447 24.6581L41.7253 26.0505L44.4662 24.1595H44.4603Z" fill="white"/>
<path d="M45.6039 25.9532C45.9713 25.6978 46.0704 25.181 45.8313 24.7979C45.5864 24.4149 45.0907 24.3115 44.7233 24.5608L41.9824 26.4518L42.8688 27.8441L45.6039 25.9532Z" fill="white"/>
<path d="M40.9211 28.7075C41.166 29.0906 41.6617 29.194 42.0291 28.9447C42.3965 28.6893 42.4956 28.1725 42.2565 27.7894L40.4429 24.9378L39.1074 25.8559L40.9211 28.7075Z" fill="white"/>
<path d="M39.2004 29.8932C39.4453 30.2762 39.941 30.3796 40.3084 30.1303C40.6758 29.8749 40.7749 29.3581 40.5358 28.9751L38.7222 26.1234L37.3867 27.0415L39.2004 29.8932Z" fill="white"/>
<path d="M27.2358 23.6978L25.9033 24.6173L27.9279 27.8065L29.2603 26.887L27.2358 23.6978Z" fill="white"/>
<path d="M28.9604 22.489L27.6279 23.4085L29.6525 26.5977L30.9849 25.6782L28.9604 22.489Z" fill="white"/>
<path d="M34.0099 33.4745C34.2549 33.8576 34.7506 33.9609 35.118 33.7116C35.4854 33.4563 35.5845 32.9395 35.3454 32.5564L33.5317 29.7048L32.1963 30.6229L34.0099 33.4745Z" fill="white"/>
<path d="M32.2844 34.6601C32.5293 35.0432 33.025 35.1466 33.3924 34.8973C33.7598 34.6419 33.8589 34.1251 33.6198 33.742L31.8062 30.8904L30.4707 31.8085L32.2844 34.6601Z" fill="white"/>
<path d="M29.6423 29.7777C29.2749 30.0331 29.1699 30.5499 29.4148 30.933C29.6598 31.316 30.1554 31.4194 30.5228 31.1701L33.2579 29.2791L32.3773 27.8868L29.6423 29.7777Z" fill="white"/>
<path d="M28.5056 27.9839C28.1382 28.2393 28.0332 28.7561 28.2781 29.1392C28.523 29.5222 29.0187 29.6256 29.3861 29.3702L32.1212 27.4854L31.2406 26.093L28.5056 27.9839Z" fill="white"/>
<path d="M25.0759 22.5787C24.7085 22.834 24.6035 23.3509 24.8484 23.7339C25.0934 24.117 25.589 24.2203 25.9564 23.971L28.6915 22.0801L27.8109 20.6877L25.0759 22.5787Z" fill="white"/>
<path d="M23.9333 20.785C23.5659 21.0404 23.4609 21.5572 23.7058 21.9403C23.9508 22.3233 24.4465 22.4267 24.8139 22.1774L27.5489 20.2864L26.6683 18.8941L23.9333 20.785Z" fill="white"/>
<path d="M38.5704 13.2516C41.1071 11.1964 41.737 7.41452 39.935 4.56896C38.0397 1.58964 34.1908 0.768805 31.3274 2.74489C28.4699 4.72097 27.6826 8.73393 29.5779 11.7193L29.7879 12.0477L31.6015 14.8993L30.2661 15.8174L28.4524 12.9658L28.2367 12.6375C25.8573 8.88594 26.8429 3.83325 30.441 1.35251C34.0392 -1.12823 38.8853 -0.100672 41.2646 3.65084C43.5564 7.26251 42.7283 12.0781 39.4509 14.65L38.5645 13.2576L38.5704 13.2516Z" fill="white"/>
<path d="M37.4278 11.4579C39.0199 10.0594 39.3931 7.60906 38.2151 5.75458C36.9496 3.76026 34.3662 3.21304 32.4534 4.53246C30.5406 5.85187 30.0158 8.53935 31.2813 10.5397L31.5028 10.862L33.3165 13.7136L31.981 14.6318L30.1674 11.7801L29.9633 11.4457C28.2138 8.69135 28.9369 4.9824 31.5787 3.1644C34.2204 1.34033 37.7777 2.09427 39.5272 4.84863C41.1892 7.46314 40.6177 10.935 38.2967 12.8381L37.422 11.4579H37.4278Z" fill="white"/>
<path d="M44.4727 27.3273C46.4438 29.9723 50.0769 30.6289 52.8003 28.7501C55.6578 26.774 56.4451 22.7611 54.5498 19.7757C52.6545 16.7964 48.8056 15.9755 45.9422 17.9516L45.6273 18.1705L42.8923 20.0614L42.0059 18.6691L44.7467 16.7781L45.0616 16.5592C48.6598 14.0785 53.5059 15.106 55.8852 18.8576C58.2645 22.6091 57.279 27.6618 53.6808 30.1425C50.2168 32.532 45.5982 31.6686 43.1314 28.2515L44.4668 27.3273H44.4727Z" fill="white"/>
<path d="M46.1926 26.1417C47.5339 27.8077 49.884 28.1907 51.6685 26.9625C53.5813 25.6431 54.1062 22.9556 52.8407 20.9552C51.5752 18.9609 48.9918 18.4137 47.079 19.7331L46.7699 19.9641L44.0349 21.8551L43.1543 20.4627L45.8893 18.5778L46.2101 18.365C48.8518 16.541 52.4091 17.2949 54.1586 20.0493C55.9081 22.8036 55.185 26.5126 52.5433 28.3306C50.0357 30.0634 46.7058 29.4676 44.8746 27.0476L46.1984 26.1356L46.1926 26.1417Z" fill="white"/>
<path d="M30.9776 33.4867C28.435 35.5418 27.811 39.3298 29.613 42.1693C31.5083 45.1486 35.3572 45.9694 38.2205 43.9934C41.078 42.0173 41.8653 38.0043 39.97 35.0189L39.76 34.6906L37.9464 31.8389L39.2819 30.9208L41.0955 33.7725L41.3055 34.1008C43.6848 37.8523 42.6992 42.905 39.1011 45.3857C35.5029 47.8665 30.6568 46.8389 28.2775 43.0874C25.9857 39.4757 26.8138 34.6602 30.0912 32.0882L30.9776 33.4806V33.4867Z" fill="white"/>
<path d="M32.1151 35.2803C30.5172 36.6788 30.1498 39.1291 31.3278 40.9836C32.5933 42.9779 35.1767 43.5251 37.0895 42.2057C39.0022 40.8863 39.5271 38.1988 38.2616 36.1984L38.04 35.8762L36.2264 33.0246L37.5618 32.1064L39.3755 34.9581L39.5796 35.2925C41.3291 38.0468 40.606 41.7558 37.9642 43.5799C35.3225 45.4039 31.7652 44.65 30.0157 41.8956C28.3536 39.2811 28.9251 35.8093 31.2461 33.9062L32.1209 35.2864L32.1151 35.2803Z" fill="white"/>
<path d="M25.0701 19.4109C23.099 16.7659 19.4659 16.1093 16.7425 17.9881C13.885 19.9642 13.0977 23.9771 14.993 26.9625C16.8883 29.9419 20.7372 30.7627 23.6005 28.7866L23.9154 28.5677L26.6505 26.6768L27.5311 28.0691L24.796 29.9601L24.4811 30.179C20.883 32.6597 16.0369 31.6322 13.6576 27.8806C11.2782 24.1291 12.2638 19.0764 15.8619 16.5957C19.3259 14.2062 23.9504 15.0696 26.4114 18.4867L25.0759 19.4109H25.0701Z" fill="white"/>
<path d="M23.3502 20.5964C22.0089 18.9305 19.6588 18.5474 17.8743 19.7756C15.9615 21.095 15.4367 23.7825 16.7021 25.7768C17.9676 27.7711 20.5452 28.3184 22.4638 26.9989L22.7729 26.7679L25.5079 24.8769L26.3885 26.2693L23.6476 28.1603L23.3269 28.3731C20.6851 30.1972 17.1278 29.4432 15.3783 26.6889C13.6288 23.9345 14.352 20.2255 16.9937 18.4075C19.5013 16.6747 22.8312 17.2705 24.6623 19.6905L23.3385 20.6025L23.3502 20.5964Z" fill="white"/>
<path d="M25.8867 61.6381H26.4174C26.0441 61.6381 25.98 61.1152 25.98 61.1152V60.9936V54.0986V53.9953C25.98 53.9953 26.05 53.4724 26.4232 53.4724H24.4988C24.872 53.4724 24.9361 53.9953 24.9361 53.9953V54.123V56.7679H22.0203V53.9953C22.0203 53.9953 22.0903 53.4724 22.4577 53.4724H20.5391C20.9123 53.4724 20.9764 53.9953 20.9764 53.9953V54.123V60.9815V61.1092C20.9764 61.1092 20.9065 61.6321 20.5391 61.6321H22.4577C22.0845 61.6321 22.0203 61.1092 22.0203 61.1092V60.9632V57.8623H24.9361V61.1092C24.9361 61.1092 24.8662 61.6321 24.4988 61.6321H25.8867V61.6381Z" fill="white"/>
<path d="M43.3937 60.5985C44.5951 60.5985 45.569 59.5831 45.569 58.3306C45.569 57.0781 44.5951 56.0687 43.3937 56.0687C42.1924 56.0687 41.2185 57.0841 41.2185 58.3306C41.2185 59.5771 42.1924 60.5985 43.3937 60.5985ZM40.1455 58.3367C40.1455 56.47 41.5976 54.95 43.3937 54.95C45.1899 54.95 46.642 56.464 46.642 58.3367C46.642 60.2094 45.1899 61.7234 43.3937 61.7234C41.5976 61.7234 40.1455 60.2094 40.1455 58.3367Z" fill="white"/>
<path d="M31.7414 61.0546L31.4907 60.1364H29.1055L28.8081 61.0424L28.7789 61.1275C28.7789 61.1275 28.709 61.6322 29.0764 61.6322H27.0586C27.4318 61.6322 27.5893 61.0911 27.5893 61.0911L27.6301 61.0059L29.5254 55.7404L29.5604 55.6553C29.5604 55.6553 29.6595 55.1081 29.2863 55.1081H29.9161H31.0649L32.8903 60.9998L32.9252 61.0911C32.9252 61.0911 33.1177 61.6322 33.4909 61.6322H31.4732C31.8464 61.6322 31.7706 61.1275 31.7706 61.1275L31.7473 61.0546H31.7414ZM31.2574 59.2305L30.3652 56.1417L29.3913 59.2305H31.2574Z" fill="white"/>
<path d="M48.5664 55.6005C48.5664 55.6005 48.6306 55.0776 49.0038 55.0776H47.1377C47.5109 55.0776 47.5751 55.6005 47.5751 55.6005V55.7525V60.9512V61.0788C47.5751 61.0788 47.5167 61.6017 47.1435 61.6017H49.0097C48.6364 61.6017 48.5723 61.0788 48.5723 61.0788V60.9694V55.7586V55.6005H48.5664Z" fill="white"/>
<path d="M38.1219 55.6369C38.1219 55.6369 38.0578 55.114 37.6846 55.114H39.5565C39.1833 55.114 39.1192 55.6369 39.1192 55.6369V55.7889V60.9997V61.1152C39.1192 61.1152 39.1833 61.6381 39.5565 61.6381H38.7634H37.7429L35.4394 56.8043H35.4219V61.1152C35.4219 61.1152 35.486 61.6381 35.8534 61.6381H33.9873C34.3605 61.6381 34.4247 61.1152 34.4247 61.1152V61.0058V55.6369C34.4247 55.6369 34.3605 55.114 33.9873 55.114H35.0078H35.8185L38.0986 60.0269H38.1161V55.6369H38.1219Z" fill="white"/>
<path d="M51.6047 71.7253C52.806 71.7253 53.7799 70.7099 53.7799 69.4573C53.7799 68.2048 52.806 67.1955 51.6047 67.1955C50.4033 67.1955 49.4295 68.2109 49.4295 69.4573C49.4295 70.7038 50.4033 71.7253 51.6047 71.7253ZM48.3564 69.4634C48.3564 67.5968 49.8085 66.0767 51.6047 66.0767C53.4008 66.0767 54.8529 67.5907 54.8529 69.4634C54.8529 71.3361 53.4008 72.8501 51.6047 72.8501C49.8085 72.8501 48.3564 71.3361 48.3564 69.4634Z" fill="white"/>
<path d="M35.7131 71.7253C36.9144 71.7253 37.8883 70.7099 37.8883 69.4573C37.8883 68.2048 36.9144 67.1955 35.7131 67.1955C34.5118 67.1955 33.5379 68.2109 33.5379 69.4573C33.5379 70.7038 34.5118 71.7253 35.7131 71.7253ZM32.4707 69.4634C32.4707 67.5968 33.9228 66.0767 35.7189 66.0767C37.5151 66.0767 38.9672 67.5907 38.9672 69.4634C38.9672 71.3361 37.5151 72.8501 35.7189 72.8501C33.9228 72.8501 32.4707 71.3361 32.4707 69.4634Z" fill="white"/>
<path d="M28.633 71.7253C29.8343 71.7253 30.8082 70.7099 30.8082 69.4573C30.8082 68.2048 29.8343 67.1955 28.633 67.1955C27.4317 67.1955 26.4578 68.2109 26.4578 69.4573C26.4578 70.7038 27.4317 71.7253 28.633 71.7253ZM25.3848 69.4634C25.3848 67.5968 26.8369 66.0767 28.633 66.0767C30.4292 66.0767 31.8812 67.5907 31.8812 69.4634C31.8812 71.3361 30.4292 72.8501 28.633 72.8501C26.8369 72.8501 25.3848 71.3361 25.3848 69.4634Z" fill="white"/>
<path d="M63.7347 69.8222C63.7347 69.8222 64.2363 69.8891 64.2363 70.2783V68.4055C64.2363 68.7947 63.7347 68.8616 63.7347 68.8616H63.6473H61.3204C61.4779 67.7002 62.1544 67.1408 63.0583 67.1408C63.6006 67.1408 63.9097 67.1408 64.2712 67.1956L64.5278 67.2442C64.5278 67.2442 65.0119 67.378 65.0119 67.7671V65.8518C65.0119 66.241 64.4928 66.2045 64.4928 66.2045L64.3296 66.1802C63.9855 66.1619 63.5948 66.095 63.0524 66.095C61.4604 66.095 60.1133 67.0314 60.1133 69.3723C60.1133 71.7132 61.4604 72.759 63.0524 72.759C63.6356 72.759 63.9972 72.759 64.4637 72.6982L64.5278 72.686C64.5278 72.686 65.006 72.5948 65.006 72.984V71.02C65.006 71.4092 64.522 71.5429 64.522 71.5429L64.4928 71.5551C64.0263 71.7071 63.7406 71.7254 63.0524 71.7254C62.131 71.7254 61.4429 71.0261 61.3088 69.8162H61.3146H63.6356H63.7406L63.7347 69.8222Z" fill="white"/>
<path d="M10.3859 72.1449L10.1352 71.2268H7.75004L7.45262 72.1328L7.42347 72.2179C7.42347 72.2179 7.35348 72.7226 7.72087 72.7226H5.70312C6.07635 72.7226 6.23965 72.1814 6.23965 72.1814L6.28045 72.0963L8.17574 66.8308L8.21075 66.7457C8.21075 66.7457 8.30989 66.1984 7.93666 66.1984H8.56647H9.71531L11.5406 72.0902L11.5756 72.1814C11.5756 72.1814 11.7681 72.7226 12.1413 72.7226H10.1235C10.4968 72.7226 10.4209 72.2179 10.4209 72.2179L10.3976 72.1389L10.3859 72.1449ZM9.90775 70.3209L9.0155 67.2321L8.04163 70.3209H9.90775Z" fill="white"/>
<path d="M69.5488 71.7923V71.239C69.5488 71.6281 69.0472 71.695 69.0472 71.695H68.9831H67.0878V66.7274C67.0878 66.7274 67.1461 66.2045 67.5193 66.2045H65.6299C66.0031 66.2045 66.0673 66.7274 66.0673 66.7274V66.7761V72.7287H69.5429V71.7984L69.5488 71.7923Z" fill="white"/>
<path d="M0.530683 72.7285H0C0.373226 72.7285 0.437374 72.2056 0.437374 72.2056V72.0354V64.7391V64.6661V64.1067C0.437374 64.4959 0.938897 64.5627 0.938897 64.5627H1.00888L2.77588 64.4959C4.73531 64.4959 5.95996 66.2044 6.03577 68.2839C6.14074 71.2206 4.40291 72.7224 2.5951 72.7224H0.536512L0.530683 72.7285ZM1.49874 71.5307H2.2277C4.05301 71.5186 4.89276 70.114 4.81112 68.1866C4.74697 66.6483 3.76143 65.7545 2.56011 65.6937H1.50458V71.5307H1.49874Z" fill="white"/>
<path d="M25.0471 66.6849C25.0471 66.6849 25.1462 66.1984 25.5136 66.1984H23.6475C24.0207 66.1984 23.9682 66.618 23.9682 66.618L23.9216 66.7761L22.6911 71.6768L21.3556 66.7822L21.309 66.6302C21.309 66.6302 21.2682 66.2106 21.6414 66.2106H19.7753C20.1485 66.2106 20.271 66.7274 20.271 66.7274L20.3176 66.8734L20.9591 69.1413L20.271 71.7315L18.9297 66.7943L18.8772 66.6241C18.8772 66.6241 18.8305 66.2106 19.1979 66.2106H17.2852C17.6584 66.2106 17.7867 66.7274 17.7867 66.7274L17.8158 66.8308L19.577 72.7408H20.8716H21.4081C21.0349 72.7408 21.0466 72.2179 21.0466 72.2179L21.0582 72.151L21.4723 70.5337L22.0263 72.7408H23.3151H23.8516C23.4784 72.7408 23.5017 72.224 23.5017 72.224L23.5192 72.1571L25.0179 66.8247L25.0587 66.697L25.0471 66.6849Z" fill="white"/>
<path d="M47.2363 72.7285H47.767C47.3938 72.7285 47.3296 72.2056 47.3296 72.2056V72.0901V65.1951V65.0917C47.3296 65.0917 47.3996 64.5688 47.7729 64.5688H45.8484C46.2216 64.5688 46.2858 65.0917 46.2858 65.0917V65.2194V67.8643H43.3699V65.0917C43.3699 65.0917 43.4399 64.5688 43.8073 64.5688H41.8945C42.2678 64.5688 42.3319 65.0917 42.3319 65.0917V65.2194V72.0779V72.2056C42.3319 72.2056 42.2678 72.7285 41.8945 72.7285H43.8073C43.4341 72.7285 43.3699 72.2056 43.3699 72.2056V72.0597V68.9588H46.2858V72.1996C46.2858 72.1996 46.2158 72.7225 45.8484 72.7225H47.2363V72.7285Z" fill="white"/>
<path d="M15.5355 69.8222C15.5355 69.8222 16.037 69.8891 16.037 70.2783V68.4055C16.037 68.7947 15.5355 68.8616 15.5355 68.8616H15.448H13.1212C13.2787 67.7002 13.9552 67.1408 14.8591 67.1408C15.4014 67.1408 15.7105 67.1408 16.072 67.1956L16.3286 67.2442C16.3286 67.2442 16.8127 67.378 16.8127 67.7671V65.8518C16.8127 66.241 16.2936 66.2045 16.2936 66.2045L16.1304 66.1802C15.7863 66.1619 15.3956 66.095 14.8532 66.095C13.2612 66.095 11.9141 67.0314 11.9141 69.3723C11.9141 71.7132 13.267 72.759 14.8532 72.759C15.4364 72.759 15.798 72.759 16.2645 72.6982L16.3286 72.686C16.3286 72.686 16.8068 72.5948 16.8068 72.984V71.02C16.8068 71.4092 16.3228 71.5429 16.3228 71.5429L16.2995 71.5551C15.8329 71.7071 15.5472 71.7254 14.8532 71.7254C13.9318 71.7254 13.2437 71.0261 13.1096 69.8162H13.1154H15.4364H15.5414L15.5355 69.8222Z" fill="white"/>
<path d="M57.7629 72.7286H58.2936C57.9204 72.7286 57.8562 72.2057 57.8562 72.2057V72.1206V67.2443H59.0284C59.0284 67.2443 59.53 67.3111 59.53 67.7003V67.0314V66.1984H55.1445V67.1409V67.7003C55.1445 67.3111 55.6461 67.2443 55.6461 67.2443H56.8182V72.2057C56.8182 72.2057 56.7599 72.7286 56.3867 72.7286H57.7629Z" fill="white"/>
</g>
<defs>
<clipPath id="clip0_554_3933">
<rect width="69.5485" height="72.984" fill="white"/>
</clipPath>
</defs>
</svg>
