<svg width="92" height="96" viewBox="0 0 92 96" fill="none" xmlns="http://www.w3.org/2000/svg">
<g clip-path="url(#clip0_208_7356)">
<path d="M45.1626 24.8878L43.4002 26.0977L46.079 30.2921L47.8414 29.0822L45.1626 24.8878Z" fill="#003C77"/>
<path d="M47.4569 23.3175L45.6945 24.5273L48.3733 28.7218L50.1357 27.5119L47.4569 23.3175Z" fill="#003C77"/>
<path d="M42.8834 26.4512L38.8334 29.2264L39.9906 31.0499L44.0482 28.2746L42.8834 26.4512Z" fill="#003C77"/>
<path d="M44.3953 28.8281L40.3454 31.6033L41.5025 33.4188L45.5602 30.6516L44.3953 28.8281Z" fill="#003C77"/>
<path d="M52.7652 22.3008C53.2512 21.9649 53.3823 21.2851 53.066 20.7812C52.7421 20.2774 52.0863 20.1414 51.6004 20.4773L47.9824 22.9566L49.1472 24.7881L52.7652 22.3008Z" fill="#003C77"/>
<path d="M54.2696 24.6602C54.7556 24.3243 54.8868 23.6445 54.5705 23.1406C54.2465 22.6368 53.5908 22.5008 53.1048 22.8287L49.4868 25.316L50.6517 27.1475L54.2696 24.6602Z" fill="#003C77"/>
<path d="M43.6252 32.771L41.8626 33.9805L44.5407 38.1754L46.3033 36.9659L43.6252 32.771Z" fill="#003C77"/>
<path d="M45.9059 31.2065L44.1433 32.416L46.8215 36.6109L48.5841 35.4014L45.9059 31.2065Z" fill="#003C77"/>
<path d="M50.4742 28.0586L46.432 30.8338L47.5891 32.6493L51.6391 29.8821L50.4742 28.0586Z" fill="#003C77"/>
<path d="M51.9939 30.4277L47.944 33.2029L49.1011 35.0184L53.1588 32.2512L51.9939 30.4277Z" fill="#003C77"/>
<path d="M52.7627 26.4699L51.0003 27.6797L53.6791 31.8741L55.4415 30.6643L52.7627 26.4699Z" fill="#003C77"/>
<path d="M55.0494 24.9074L53.287 26.1172L55.9659 30.3116L57.7283 29.1018L55.0494 24.9074Z" fill="#003C77"/>
<path d="M46.995 17.4473C46.671 16.9434 46.0153 16.8075 45.5293 17.1354C45.0433 17.4713 44.9121 18.1511 45.2284 18.6549L47.6275 22.4059L49.3941 21.1982L46.995 17.4473Z" fill="#003C77"/>
<path d="M49.2708 15.8789C48.9468 15.3751 48.2911 15.2391 47.8051 15.567C47.3191 15.9029 47.188 16.5827 47.5043 17.0866L49.9034 20.8375L51.6699 19.6298L49.2708 15.8789Z" fill="#003C77"/>
<path d="M44.4262 18.582L40.3763 21.3572L41.5411 23.1727L45.5911 20.4055L44.4262 18.582Z" fill="#003C77"/>
<path d="M45.9382 20.9492L41.8882 23.7244L43.0531 25.5399L47.103 22.7727L45.9382 20.9492Z" fill="#003C77"/>
<path d="M37.8539 23.7168C37.5299 23.213 36.8742 23.077 36.3882 23.4049C35.9022 23.7408 35.7711 24.4206 36.0874 24.9245L38.4865 28.6754L40.253 27.4677L37.8539 23.7168Z" fill="#003C77"/>
<path d="M40.1298 22.1582C39.8058 21.6544 39.15 21.5184 38.6641 21.8463C38.1781 22.1822 38.0469 22.862 38.3632 23.3659L40.7623 27.1168L42.5289 25.9091L40.1298 22.1582Z" fill="#003C77"/>
<path d="M48.9316 35.9297L44.8816 38.7049L46.0388 40.5204L50.0964 37.7532L48.9316 35.9297Z" fill="#003C77"/>
<path d="M50.4435 38.2969L46.3936 41.0721L47.5584 42.8876L51.6084 40.1204L50.4435 38.2969Z" fill="#003C77"/>
<path d="M58.8134 31.7793C59.2994 31.4434 59.4305 30.7636 59.1143 30.2598C58.7903 29.7559 58.1346 29.62 57.6486 29.9479L54.0306 32.4351L55.1954 34.2666L58.8211 31.7793H58.8134Z" fill="#003C77"/>
<path d="M60.3252 34.1368C60.8112 33.8009 60.9423 33.1211 60.626 32.6172C60.302 32.1133 59.6463 31.9774 59.1603 32.3053L55.5346 34.7926L56.7072 36.624L60.3252 34.1368Z" fill="#003C77"/>
<path d="M54.1309 37.7613C54.4549 38.2652 55.1106 38.4011 55.5966 38.0732C56.0826 37.7373 56.2137 37.0575 55.8974 36.5537L53.4983 32.8027L51.7318 34.0104L54.1309 37.7613Z" fill="#003C77"/>
<path d="M51.855 39.3199C52.179 39.8238 52.8347 39.9597 53.3207 39.6318C53.8067 39.2959 53.9379 38.6161 53.6216 38.1123L51.2225 34.3613L49.4559 35.569L51.855 39.3199Z" fill="#003C77"/>
<path d="M36.0285 31.1714L34.2659 32.3809L36.944 36.5758L38.7066 35.3663L36.0285 31.1714Z" fill="#003C77"/>
<path d="M38.3092 29.5815L36.5466 30.791L39.2248 34.9859L40.9874 33.7764L38.3092 29.5815Z" fill="#003C77"/>
<path d="M44.9895 44.0308C45.3135 44.5347 45.9692 44.6707 46.4552 44.3427C46.9412 44.0068 47.0723 43.327 46.756 42.8232L44.3569 39.0723L42.5903 40.2799L44.9895 44.0308Z" fill="#003C77"/>
<path d="M42.7061 45.5914C43.0301 46.0953 43.6858 46.2312 44.1718 45.9033C44.6578 45.5674 44.7889 44.8876 44.4726 44.3837L42.0735 40.6328L40.307 41.8405L42.7061 45.5914Z" fill="#003C77"/>
<path d="M39.2114 39.1689C38.7254 39.5048 38.5865 40.1846 38.9105 40.6885C39.2345 41.1923 39.8902 41.3283 40.3762 41.0004L43.9942 38.5131L42.8293 36.6816L39.2114 39.1689Z" fill="#003C77"/>
<path d="M37.7073 36.8096C37.2213 37.1455 37.0825 37.8253 37.4065 38.3291C37.7305 38.833 38.3862 38.9689 38.8722 38.633L42.4902 36.1537L41.3253 34.3223L37.7073 36.8096Z" fill="#003C77"/>
<path d="M33.1711 29.6982C32.6851 30.0341 32.5462 30.7139 32.8702 31.2178C33.1942 31.7217 33.8499 31.8576 34.3359 31.5297L37.9539 29.0424L36.789 27.2109L33.1711 29.6982Z" fill="#003C77"/>
<path d="M31.6591 27.3388C31.1731 27.6748 31.0343 28.3546 31.3583 28.8584C31.6823 29.3623 32.338 29.4982 32.824 29.1703L36.4419 26.683L35.2771 24.8516L31.6591 27.3388Z" fill="#003C77"/>
<path d="M51.0218 17.4305C54.3775 14.7273 55.2106 9.75274 52.8269 6.00982C50.3198 2.09094 45.2284 1.01125 41.4407 3.61051C37.6608 6.20976 36.6193 11.4882 39.1265 15.4151L39.4042 15.847L41.8033 19.5979L40.0367 20.8056L37.6376 17.0546L37.3522 16.6228C34.2048 11.6882 35.5085 5.04209 40.2682 1.77903C45.0279 -1.48403 51.4384 -0.13242 54.5858 4.80216C57.6175 9.5528 56.522 15.887 52.1866 19.27L51.0141 17.4385L51.0218 17.4305Z" fill="#003C77"/>
<path d="M49.51 15.0714C51.6159 13.2319 52.1097 10.0089 50.5514 7.56957C48.8774 4.94632 45.46 4.22653 42.9297 5.96203C40.3995 7.69754 39.7052 11.2325 41.3792 13.8638L41.6723 14.2876L44.0714 18.0386L42.3049 19.2462L39.9058 15.4953L39.6358 15.0554C37.3215 11.4325 38.2781 6.55386 41.7726 4.16255C45.2671 1.76324 49.9728 2.75495 52.2871 6.37791C54.4856 9.81693 53.7297 14.3836 50.6594 16.8869L49.5023 15.0714H49.51Z" fill="#003C77"/>
<path d="M58.8286 35.9449C61.4361 39.4239 66.242 40.2877 69.8446 37.8164C73.6245 35.2171 74.6659 29.9386 72.1588 26.0118C69.6517 22.0929 64.5603 21.0132 60.7726 23.6125L60.356 23.9004L56.7381 26.3877L55.5655 24.5562L59.1912 22.0689L59.6078 21.781C64.3674 18.5179 70.778 19.8695 73.9254 24.8041C77.0728 29.7387 75.7691 36.3848 71.0094 39.6479C66.4271 42.7909 60.3175 41.6553 57.0544 37.1606L58.8209 35.9449H58.8286Z" fill="#003C77"/>
<path d="M61.1045 34.3857C62.8788 36.5771 65.9876 37.081 68.3482 35.4654C70.8784 33.7299 71.5727 30.195 69.8987 27.5637C68.2247 24.9405 64.8073 24.2207 62.2771 25.9562L61.8682 26.2601L58.2502 28.7474L57.0854 26.9159L60.7034 24.4366L61.1276 24.1567C64.6222 21.7574 69.3279 22.7491 71.6421 26.3721C73.9564 29.995 72.9998 34.8736 69.5053 37.2649C66.1882 39.5443 61.7834 38.7605 59.3611 35.5774L61.1122 34.3778L61.1045 34.3857Z" fill="#003C77"/>
<path d="M40.9781 44.0469C37.6147 46.7501 36.7893 51.7327 39.173 55.4676C41.6801 59.3865 46.7715 60.4662 50.5592 57.8669C54.3391 55.2677 55.3805 49.9892 52.8734 46.0623L52.5957 45.6304L50.1966 41.8795L51.9631 40.6719L54.3623 44.4228L54.64 44.8547C57.7874 49.7893 56.4837 56.4354 51.724 59.6984C46.9643 62.9615 40.5538 61.6099 37.4064 56.6753C34.3747 51.9247 35.4701 45.5905 39.8055 42.2074L40.9781 44.0389V44.0469Z" fill="#003C77"/>
<path d="M42.4825 46.4053C40.3688 48.2447 39.8828 51.4678 41.441 53.9071C43.115 56.5304 46.5324 57.2502 49.0627 55.5147C51.593 53.7792 52.2872 50.2442 50.6133 47.6129L50.3201 47.1891L47.921 43.4381L49.6875 42.2305L52.0866 45.9814L52.3567 46.4213C54.6709 50.0442 53.7144 54.9228 50.2198 57.3221C46.7253 59.7215 42.0196 58.7297 39.7053 55.1068C37.5068 51.6678 38.2628 47.1011 41.333 44.5978L42.4902 46.4133L42.4825 46.4053Z" fill="#003C77"/>
<path d="M33.1634 25.5319C30.556 22.0529 25.75 21.1892 22.1475 23.6605C18.3675 26.2597 17.3261 31.5382 19.8332 35.4651C22.3403 39.3839 27.4317 40.4636 31.2194 37.8644L31.636 37.5765L35.2539 35.0892L36.4188 36.9206L32.8008 39.4079L32.3842 39.6958C27.6246 42.9589 21.2141 41.6073 18.0667 36.6727C14.9192 31.7381 16.223 25.092 20.9826 21.829C25.5649 18.6859 31.6822 19.8216 34.9376 24.3163L33.1711 25.5319H33.1634Z" fill="#003C77"/>
<path d="M30.888 27.092C29.1138 24.9006 26.0049 24.3968 23.6444 26.0123C21.1141 27.7478 20.4198 31.2828 22.0938 33.9061C23.7678 36.5293 27.1775 37.2491 29.7154 35.5136L30.1243 35.2097L33.7423 32.7224L34.9071 34.5539L31.2814 37.0412L30.8572 37.3211C27.3626 39.7204 22.6569 38.7287 20.3427 35.1057C18.0284 31.4827 18.985 26.6041 22.4795 24.2128C25.7966 21.9335 30.2015 22.7173 32.6237 25.9003L30.8726 27.1L30.888 27.092Z" fill="#003C77"/>
<path d="M34.2434 81.0769H34.9454C34.4516 81.0769 34.3668 80.3891 34.3668 80.3891V80.2291V71.1597V71.0237C34.3668 71.0237 34.4594 70.3359 34.9531 70.3359H32.4074C32.9011 70.3359 32.986 71.0237 32.986 71.0237V71.1917V74.6707H29.1288V71.0237C29.1288 71.0237 29.2214 70.3359 29.7074 70.3359H27.1694C27.6631 70.3359 27.748 71.0237 27.748 71.0237V71.1917V80.2131V80.3811C27.748 80.3811 27.6554 81.0689 27.1694 81.0689H29.7074C29.2137 81.0689 29.1288 80.3811 29.1288 80.3811V80.1891V76.1103H32.986V80.3811C32.986 80.3811 32.8934 81.0689 32.4074 81.0689H34.2434V81.0769Z" fill="#76787A"/>
<path d="M57.4016 79.7092C58.9907 79.7092 60.279 78.3735 60.279 76.726C60.279 75.0785 58.9907 73.7509 57.4016 73.7509C55.8124 73.7509 54.5241 75.0865 54.5241 76.726C54.5241 78.3655 55.8124 79.7092 57.4016 79.7092ZM53.1047 76.734C53.1047 74.2787 55.0256 72.2793 57.4016 72.2793C59.7775 72.2793 61.6984 74.2707 61.6984 76.734C61.6984 79.1973 59.7775 81.1887 57.4016 81.1887C55.0256 81.1887 53.1047 79.1973 53.1047 76.734Z" fill="#76787A"/>
<path d="M41.9886 80.3081L41.6569 79.1004H38.5018L38.1083 80.2921L38.0698 80.4041C38.0698 80.4041 37.9772 81.0679 38.4632 81.0679H35.7941C36.2878 81.0679 36.4961 80.3561 36.4961 80.3561L36.5501 80.2441L39.0572 73.3181L39.1035 73.2061C39.1035 73.2061 39.2346 72.4863 38.7409 72.4863H39.574H41.0937L43.5083 80.2361L43.5546 80.3561C43.5546 80.3561 43.8091 81.0679 44.3028 81.0679H41.6337C42.1274 81.0679 42.0272 80.4041 42.0272 80.4041L41.9963 80.3081H41.9886ZM41.3483 77.9088L40.168 73.8459L38.8797 77.9088H41.3483Z" fill="#76787A"/>
<path d="M64.2442 73.1351C64.2442 73.1351 64.3291 72.4473 64.8228 72.4473H62.3543C62.848 72.4473 62.9328 73.1351 62.9328 73.1351V73.335V80.173V80.341C62.9328 80.341 62.8557 81.0288 62.362 81.0288H64.8305C64.3368 81.0288 64.252 80.341 64.252 80.341V80.197V73.343V73.1351H64.2442Z" fill="#76787A"/>
<path d="M50.4278 73.1819C50.4278 73.1819 50.343 72.4941 49.8493 72.4941H52.3256C51.8319 72.4941 51.747 73.1819 51.747 73.1819V73.3819V80.2359V80.3879C51.747 80.3879 51.8319 81.0757 52.3256 81.0757H51.2764H49.9264L46.8793 74.7175H46.8562V80.3879C46.8562 80.3879 46.941 81.0757 47.427 81.0757H44.9585C45.4522 81.0757 45.537 80.3879 45.537 80.3879V80.2439V73.1819C45.537 73.1819 45.4522 72.4941 44.9585 72.4941H46.3085H47.3807L50.397 78.9563H50.4201V73.1819H50.4278Z" fill="#76787A"/>
<path d="M68.2632 94.3439C69.8523 94.3439 71.1406 93.0083 71.1406 91.3608C71.1406 89.7133 69.8523 88.3856 68.2632 88.3856C66.6741 88.3856 65.3858 89.7213 65.3858 91.3608C65.3858 93.0003 66.6741 94.3439 68.2632 94.3439ZM63.9664 91.3688C63.9664 88.9135 65.8872 86.9141 68.2632 86.9141C70.6392 86.9141 72.56 88.9055 72.56 91.3688C72.56 93.8321 70.6392 95.8235 68.2632 95.8235C65.8872 95.8235 63.9664 93.8321 63.9664 91.3688Z" fill="#76787A"/>
<path d="M47.2422 94.3439C48.8313 94.3439 50.1196 93.0083 50.1196 91.3608C50.1196 89.7133 48.8313 88.3856 47.2422 88.3856C45.653 88.3856 44.3648 89.7213 44.3648 91.3608C44.3648 93.0003 45.653 94.3439 47.2422 94.3439ZM42.9531 91.3688C42.9531 88.9135 44.8739 86.9141 47.2499 86.9141C49.6259 86.9141 51.5467 88.9055 51.5467 91.3688C51.5467 93.8321 49.6259 95.8235 47.2499 95.8235C44.8739 95.8235 42.9531 93.8321 42.9531 91.3688Z" fill="#76787A"/>
<path d="M37.8768 94.3439C39.4659 94.3439 40.7542 93.0083 40.7542 91.3608C40.7542 89.7133 39.4659 88.3856 37.8768 88.3856C36.2877 88.3856 34.9994 89.7213 34.9994 91.3608C34.9994 93.0003 36.2877 94.3439 37.8768 94.3439ZM33.58 91.3688C33.58 88.9135 35.5008 86.9141 37.8768 86.9141C40.2528 86.9141 42.1736 88.9055 42.1736 91.3688C42.1736 93.8321 40.2528 95.8235 37.8768 95.8235C35.5008 95.8235 33.58 93.8321 33.58 91.3688Z" fill="#76787A"/>
<path d="M84.3089 91.8417C84.3089 91.8417 84.9723 91.9296 84.9723 92.4415V89.9782C84.9723 90.49 84.3089 90.578 84.3089 90.578H84.1932H81.1152C81.3235 89.0505 82.2184 88.3147 83.4141 88.3147C84.1315 88.3147 84.5403 88.3147 85.0186 88.3866L85.358 88.4506C85.358 88.4506 85.9983 88.6266 85.9983 89.1384V86.6191C85.9983 87.131 85.3118 87.083 85.3118 87.083L85.0958 87.051C84.6406 87.027 84.1238 86.9391 83.4064 86.9391C81.3004 86.9391 79.5184 88.1707 79.5184 91.2498C79.5184 94.3289 81.3004 95.7045 83.4064 95.7045C84.1778 95.7045 84.6561 95.7045 85.2732 95.6246L85.358 95.6086C85.358 95.6086 85.9906 95.4886 85.9906 96.0005V93.4172C85.9906 93.929 85.3504 94.105 85.3504 94.105L85.3118 94.121C84.6946 94.3209 84.3166 94.3449 83.4064 94.3449C82.1875 94.3449 81.2772 93.4252 81.0998 91.8336H81.1075H84.1778H84.3166L84.3089 91.8417Z" fill="#76787A"/>
<path d="M13.739 94.896L13.4073 93.6883H10.2522L9.85876 94.88L9.8202 94.9919C9.8202 94.9919 9.72761 95.6558 10.2136 95.6558H7.54449C8.0382 95.6558 8.25421 94.944 8.25421 94.944L8.30819 94.832L10.8153 87.906L10.8616 87.794C10.8616 87.794 10.9928 87.0742 10.4991 87.0742H11.3322H12.8519L15.2664 94.824L15.3127 94.944C15.3127 94.944 15.5673 95.6558 16.061 95.6558H13.3919C13.8856 95.6558 13.7853 94.9919 13.7853 94.9919L13.7545 94.888L13.739 94.896ZM13.1064 92.4967L11.9262 88.4338L10.6379 92.4967H13.1064Z" fill="#76787A"/>
<path d="M92 94.4319V93.7041C92 94.216 91.3365 94.304 91.3365 94.304H91.2517H88.7446V87.7698C88.7446 87.7698 88.8217 87.082 89.3154 87.082H86.816C87.3097 87.082 87.3946 87.7698 87.3946 87.7698V87.8338V95.6636H91.9923V94.4399L92 94.4319Z" fill="#76787A"/>
<path d="M0.70215 95.665H0.000152588C0.493863 95.665 0.578719 94.9772 0.578719 94.9772V94.7532V85.156V85.06V84.3242C0.578719 84.8361 1.24214 84.924 1.24214 84.924H1.33472L3.67213 84.8361C6.26411 84.8361 7.88409 87.0834 7.98438 89.8186C8.12323 93.6815 5.8244 95.657 3.43299 95.657H0.70986L0.70215 95.665ZM1.98271 94.0894H2.94699C5.36154 94.0734 6.47238 92.226 6.36439 89.6907C6.27953 87.6673 4.97584 86.4916 3.38671 86.4116H1.99043V94.0894H1.98271Z" fill="#76787A"/>
<path d="M33.1328 87.714C33.1328 87.714 33.264 87.0742 33.75 87.0742H31.2814C31.7751 87.0742 31.7057 87.6261 31.7057 87.6261L31.644 87.834L30.0163 94.2801L28.2497 87.842L28.188 87.6421C28.188 87.6421 28.134 87.0902 28.6277 87.0902H26.1592C26.6529 87.0902 26.8149 87.77 26.8149 87.77L26.8766 87.962L27.7252 90.9451L26.8149 94.3521L25.0406 87.858L24.9712 87.6341C24.9712 87.6341 24.9095 87.0902 25.3955 87.0902H22.8652C23.3589 87.0902 23.5286 87.77 23.5286 87.77L23.5672 87.906L25.8969 95.6797H27.6094H28.3191C27.8254 95.6797 27.8409 94.9919 27.8409 94.9919L27.8563 94.904L28.404 92.7766L29.1368 95.6797H30.8417H31.5514C31.0577 95.6797 31.0885 94.9999 31.0885 94.9999L31.1117 94.912L33.0942 87.898L33.1482 87.73L33.1328 87.714Z" fill="#76787A"/>
<path d="M62.4852 95.6646H63.1872C62.6935 95.6646 62.6087 94.9768 62.6087 94.9768V94.8248V85.7554V85.6194C62.6087 85.6194 62.7012 84.9316 63.1949 84.9316H60.6492C61.1429 84.9316 61.2278 85.6194 61.2278 85.6194V85.7874V89.2664H57.3707V85.6194C57.3707 85.6194 57.4633 84.9316 57.9493 84.9316H55.419C55.9127 84.9316 55.9976 85.6194 55.9976 85.6194V85.7874V94.8088V94.9768C55.9976 94.9768 55.9127 95.6646 55.419 95.6646H57.9493C57.4555 95.6646 57.3707 94.9768 57.3707 94.9768V94.7848V90.706H61.2278V94.9688C61.2278 94.9688 61.1352 95.6566 60.6492 95.6566H62.4852V95.6646Z" fill="#76787A"/>
<path d="M20.551 91.8417C20.551 91.8417 21.2144 91.9296 21.2144 92.4415V89.9782C21.2144 90.49 20.551 90.578 20.551 90.578H20.4353H17.3573C17.5656 89.0505 18.4604 88.3147 19.6561 88.3147C20.3736 88.3147 20.7824 88.3147 21.2607 88.3866L21.6001 88.4506C21.6001 88.4506 22.2404 88.6266 22.2404 89.1384V86.6191C22.2404 87.131 21.5538 87.083 21.5538 87.083L21.3378 87.051C20.8827 87.027 20.3658 86.9391 19.6484 86.9391C17.5424 86.9391 15.7604 88.1707 15.7604 91.2498C15.7604 94.3289 17.5501 95.7045 19.6484 95.7045C20.4198 95.7045 20.8981 95.7045 21.5153 95.6246L21.6001 95.6086C21.6001 95.6086 22.2327 95.4886 22.2327 96.0005V93.4172C22.2327 93.929 21.5924 94.105 21.5924 94.105L21.5615 94.121C20.9444 94.3209 20.5664 94.3449 19.6484 94.3449C18.4296 94.3449 17.5193 93.4252 17.3419 91.8336H17.3496H20.4198H20.5587L20.551 91.8417Z" fill="#76787A"/>
<path d="M76.4095 95.6638H77.1115C76.6178 95.6638 76.533 94.976 76.533 94.976V94.864V88.4498H78.0835C78.0835 88.4498 78.747 88.5378 78.747 89.0497V88.1699V87.0742H72.9459V88.3139V89.0497C72.9459 88.5378 73.6093 88.4498 73.6093 88.4498H75.1598V94.976C75.1598 94.976 75.0827 95.6638 74.589 95.6638H76.4095Z" fill="#76787A"/>
</g>
<defs>
<clipPath id="clip0_208_7356">
<rect width="92" height="96" fill="white"/>
</clipPath>
</defs>
</svg>
