<svg width="33" height="34" viewBox="0 0 33 34" fill="none" xmlns="http://www.w3.org/2000/svg">
<path d="M15.659 13.5257L14.7012 14.1833L16.1571 16.4628L17.1149 15.8053L15.659 13.5257Z" fill="#1B1C4C"/>
<path d="M16.9051 12.6721L15.9473 13.3296L17.4032 15.6092L18.361 14.9517L16.9051 12.6721Z" fill="#1B1C4C"/>
<path d="M14.4198 14.3761L12.2188 15.8843L12.8476 16.8754L15.0529 15.3671L14.4198 14.3761Z" fill="#1B1C4C"/>
<path d="M15.2421 15.667L13.041 17.1753L13.6699 18.1619L15.8752 16.658L15.2421 15.667Z" fill="#1B1C4C"/>
<path d="M19.7908 12.1202C20.0549 11.9377 20.1262 11.5682 19.9543 11.2944C19.7782 11.0205 19.4218 10.9466 19.1577 11.1292L17.1914 12.4766L17.8245 13.472L19.7908 12.1202Z" fill="#1B1C4C"/>
<path d="M20.6082 13.4025C20.8723 13.2199 20.9435 12.8504 20.7717 12.5766C20.5956 12.3028 20.2392 12.2289 19.9751 12.4071L18.0088 13.7589L18.6419 14.7542L20.6082 13.4025Z" fill="#1B1C4C"/>
<path d="M14.8232 17.8106L13.8652 18.468L15.3207 20.7478L16.2787 20.0905L14.8232 17.8106Z" fill="#1B1C4C"/>
<path d="M16.0634 16.9596L15.1055 17.6169L16.561 19.8968L17.5189 19.2394L16.0634 16.9596Z" fill="#1B1C4C"/>
<path d="M18.5455 15.2497L16.3486 16.758L16.9775 17.7447L19.1786 16.2408L18.5455 15.2497Z" fill="#1B1C4C"/>
<path d="M19.372 16.5363L17.1709 18.0446L17.7998 19.0312L20.005 17.5273L19.372 16.5363Z" fill="#1B1C4C"/>
<path d="M19.7899 14.3855L18.832 15.043L20.2879 17.3226L21.2457 16.6651L19.7899 14.3855Z" fill="#1B1C4C"/>
<path d="M21.033 13.5363L20.0752 14.1938L21.5311 16.4733L22.4889 15.8158L21.033 13.5363Z" fill="#1B1C4C"/>
<path d="M16.6551 9.4818C16.4791 9.20797 16.1227 9.13407 15.8586 9.31228C15.5944 9.49484 15.5232 9.8643 15.6951 10.1381L16.9989 12.1767L17.959 11.5203L16.6551 9.4818Z" fill="#1B1C4C"/>
<path d="M17.8924 8.62989C17.7163 8.35605 17.36 8.28216 17.0959 8.46037C16.8317 8.64293 16.7605 9.01239 16.9324 9.28622L18.2362 11.3248L19.1963 10.6684L17.8924 8.62989Z" fill="#1B1C4C"/>
<path d="M15.2597 10.099L13.0586 11.6073L13.6917 12.5939L15.8927 11.09L15.2597 10.099Z" fill="#1B1C4C"/>
<path d="M16.08 11.3856L13.8789 12.8938L14.512 13.8805L16.713 12.3766L16.08 11.3856Z" fill="#1B1C4C"/>
<path d="M11.6874 12.8896C11.5113 12.6157 11.1549 12.5418 10.8908 12.72C10.6267 12.9026 10.5554 13.272 10.7273 13.5459L12.0312 15.5844L12.9912 14.9281L11.6874 12.8896Z" fill="#1B1C4C"/>
<path d="M12.9237 12.042C12.7476 11.7682 12.3912 11.6943 12.1271 11.8725C11.863 12.055 11.7917 12.4245 11.9636 12.6983L13.2675 14.7369L14.2276 14.0805L12.9237 12.042Z" fill="#1B1C4C"/>
<path d="M17.7079 19.5267L15.5068 21.035L16.1357 22.0216L18.341 20.5177L17.7079 19.5267Z" fill="#1B1C4C"/>
<path d="M18.5292 20.8134L16.3281 22.3216L16.9612 23.3083L19.1623 21.8044L18.5292 20.8134Z" fill="#1B1C4C"/>
<path d="M23.0779 17.2709C23.342 17.0883 23.4133 16.7189 23.2414 16.445C23.0653 16.1712 22.7089 16.0973 22.4448 16.2755L20.4785 17.6273L21.1116 18.6227L23.0821 17.2709H23.0779Z" fill="#1B1C4C"/>
<path d="M23.8995 18.5531C24.1636 18.3705 24.2349 18.0011 24.063 17.7272C23.8869 17.4534 23.5305 17.3795 23.2664 17.5577L21.2959 18.9095L21.9332 19.9049L23.8995 18.5531Z" fill="#1B1C4C"/>
<path d="M20.5324 20.5221C20.7085 20.7959 21.0648 20.8698 21.329 20.6916C21.5931 20.5091 21.6644 20.1396 21.4925 19.8658L20.1886 17.8272L19.2285 18.4836L20.5324 20.5221Z" fill="#1B1C4C"/>
<path d="M19.297 21.3697C19.4731 21.6435 19.8295 21.7174 20.0936 21.5392C20.3577 21.3566 20.429 20.9872 20.2571 20.7133L18.9532 18.6748L17.9932 19.3311L19.297 21.3697Z" fill="#1B1C4C"/>
<path d="M10.6942 16.9408L9.73633 17.5981L11.1918 19.878L12.1498 19.2206L10.6942 16.9408Z" fill="#1B1C4C"/>
<path d="M11.9345 16.0767L10.9766 16.734L12.4321 19.0138L13.39 18.3565L11.9345 16.0767Z" fill="#1B1C4C"/>
<path d="M15.5656 23.9299C15.7417 24.2037 16.098 24.2776 16.3622 24.0994C16.6263 23.9168 16.6976 23.5474 16.5257 23.2735L15.2218 21.235L14.2617 21.8913L15.5656 23.9299Z" fill="#1B1C4C"/>
<path d="M14.3244 24.7774C14.5005 25.0513 14.8568 25.1252 15.121 24.947C15.3851 24.7644 15.4564 24.3949 15.2845 24.1211L13.9806 22.0826L13.0205 22.7389L14.3244 24.7774Z" fill="#1B1C4C"/>
<path d="M12.4249 21.2871C12.1607 21.4697 12.0853 21.8392 12.2613 22.113C12.4374 22.3868 12.7938 22.4607 13.0579 22.2825L15.0242 20.9307L14.3911 19.9354L12.4249 21.2871Z" fill="#1B1C4C"/>
<path d="M11.6085 20.0048C11.3443 20.1874 11.2689 20.5568 11.4449 20.8307C11.621 21.1045 11.9774 21.1784 12.2415 20.9958L14.2078 19.6484L13.5747 18.653L11.6085 20.0048Z" fill="#1B1C4C"/>
<path d="M9.14263 16.1408C8.8785 16.3233 8.80304 16.6928 8.97913 16.9666C9.15521 17.2405 9.51157 17.3143 9.7757 17.1361L11.742 15.7843L11.1089 14.789L9.14263 16.1408Z" fill="#1B1C4C"/>
<path d="M8.32037 14.8585C8.05624 15.0411 7.98077 15.4106 8.15686 15.6844C8.33294 15.9582 8.6893 16.0321 8.95343 15.8539L10.9197 14.5021L10.2867 13.5068L8.32037 14.8585Z" fill="#1B1C4C"/>
<path d="M18.8441 9.47312C20.6679 8.00397 21.1207 5.3004 19.8252 3.26621C18.4626 1.13638 15.6956 0.549594 13.637 1.96223C11.5827 3.37487 11.0167 6.24361 12.3793 8.37778L12.5302 8.6125L13.8341 10.651L12.874 11.3074L11.5701 9.26883L11.415 9.03412C9.70447 6.35228 10.413 2.74027 12.9998 0.966865C15.5866 -0.806539 19.0705 -0.0719674 20.7811 2.60987C22.4287 5.19174 21.8334 8.63423 19.4772 10.4728L18.8399 9.47746L18.8441 9.47312Z" fill="#1B1C4C"/>
<path d="M18.0224 8.19086C19.1669 7.19115 19.4352 5.43948 18.5883 4.11377C17.6786 2.68809 15.8213 2.2969 14.4461 3.24011C13.071 4.18332 12.6937 6.10451 13.6035 7.53453L13.7628 7.7649L15.0666 9.80344L14.1065 10.4598L12.8027 8.42123L12.6559 8.18217C11.3982 6.21317 11.9181 3.56176 13.8173 2.26213C15.7165 0.958156 18.2739 1.49713 19.5317 3.46613C20.7265 5.33516 20.3157 7.81706 18.647 9.17754L18.0182 8.19086H18.0224Z" fill="#1B1C4C"/>
<path d="M23.0869 19.5354C24.504 21.4262 27.1159 21.8956 29.0738 20.5526C31.1281 19.1399 31.6941 16.2712 30.3316 14.137C28.969 12.0072 26.2019 11.4204 24.1434 12.833L23.917 12.9895L21.9507 14.3413L21.3135 13.3459L23.284 11.9941L23.5103 11.8377C26.0971 10.0643 29.5811 10.7988 31.2917 13.4807C33.0022 16.1625 32.2937 19.7745 29.7069 21.5479C27.2165 23.2561 23.8961 22.6389 22.1226 20.1961L23.0827 19.5354H23.0869Z" fill="#1B1C4C"/>
<path d="M24.323 18.6878C25.2872 19.8788 26.9768 20.1526 28.2597 19.2746C29.6349 18.3314 30.0122 16.4102 29.1024 14.9802C28.1927 13.5545 26.3354 13.1633 24.9602 14.1066L24.738 14.2717L22.7717 15.6235L22.1387 14.6281L24.105 13.2807L24.3355 13.1286C26.2348 11.8246 28.7922 12.3636 30.0499 14.3326C31.3077 16.3016 30.7878 18.953 28.8886 20.2526C27.0858 21.4914 24.6919 21.0654 23.3755 19.3355L24.3272 18.6835L24.323 18.6878Z" fill="#1B1C4C"/>
<path d="M13.3841 23.9386C11.5561 25.4077 11.1075 28.1156 12.403 30.1455C13.7656 32.2753 16.5327 32.8621 18.5912 31.4494C20.6455 30.0368 21.2115 27.1681 19.8489 25.0339L19.698 24.7992L18.3941 22.7606L19.3542 22.1043L20.6581 24.1428L20.809 24.3776C22.5196 27.0594 21.811 30.6714 19.2242 32.4448C16.6375 34.2182 13.1535 33.4836 11.4429 30.8018C9.79528 28.2199 10.3906 24.7774 12.7468 22.9388L13.3841 23.9342V23.9386Z" fill="#1B1C4C"/>
<path d="M14.2021 25.2208C13.0533 26.2205 12.7892 27.9722 13.6361 29.2979C14.5459 30.7236 16.4032 31.1147 17.7783 30.1715C19.1534 29.2283 19.5308 27.3071 18.621 25.8771L18.4617 25.6467L17.1578 23.6082L18.1179 22.9519L19.4218 24.9904L19.5685 25.2295C20.8263 27.1985 20.3064 29.8499 18.4072 31.1539C16.508 32.4578 13.9505 31.9189 12.6928 29.9499C11.4979 28.0808 11.9088 25.5989 13.5774 24.2385L14.2063 25.2251L14.2021 25.2208Z" fill="#1B1C4C"/>
<path d="M9.13733 13.8762C7.72026 11.9854 5.10833 11.516 3.15042 12.8591C1.09609 14.2717 0.530104 17.1405 1.89267 19.2747C3.25524 21.4045 6.0223 21.9913 8.08082 20.5786L8.30722 20.4222L10.2735 19.0704L10.9066 20.0657L8.94028 21.4175L8.71389 21.574C6.12711 23.3474 2.64314 22.6128 0.932594 19.931C-0.77795 17.2491 -0.0694165 13.6371 2.51736 11.8637C5.00771 10.1555 8.33237 10.7728 10.1016 13.2155L9.14153 13.8762H9.13733Z" fill="#1B1C4C"/>
<path d="M7.90078 14.7237C6.9365 13.5328 5.24691 13.2589 3.96401 14.137C2.58886 15.0802 2.21154 17.0014 3.12132 18.427C4.03109 19.8527 5.88417 20.2439 7.26351 19.3007L7.48571 19.1355L9.452 17.7837L10.0851 18.7791L8.11459 20.1309L7.88401 20.283C5.9848 21.587 3.42736 21.048 2.16961 19.079C0.911857 17.11 1.43174 14.4586 3.33094 13.159C5.13373 11.9202 7.52765 12.3462 8.8441 14.0761L7.89239 14.7281L7.90078 14.7237Z" fill="#1B1C4C"/>
</svg>
