<svg width="49" height="56" viewBox="0 0 49 56" fill="none" xmlns="http://www.w3.org/2000/svg">
<path d="M48.0866 23.3441C48.0866 36.2368 28.5921 55.8845 24.0433 55.8845C19.4946 55.8845 0 36.2368 0 23.3441C0 10.4515 10.7646 0 24.0433 0C37.3221 0 48.0866 10.4515 48.0866 23.3441Z" fill="#B39C79"/>
<circle cx="24.0401" cy="22.7432" r="18.8448" fill="white"/>
<g clip-path="url(#clip0_2516_11348)">
<path d="M24.0442 19.4843L23.3086 19.9893L24.4267 21.7399L25.1622 21.2349L24.0442 19.4843Z" fill="#1B1C4C"/>
<path d="M25.0051 18.8281L24.2695 19.333L25.3876 21.0836L26.1232 20.5787L25.0051 18.8281Z" fill="#1B1C4C"/>
<path d="M23.0966 20.1367L21.4062 21.295L21.8892 22.0561L23.5828 20.8978L23.0966 20.1367Z" fill="#1B1C4C"/>
<path d="M23.7255 21.1289L22.0352 22.2872L22.5181 23.0449L24.2117 21.89L23.7255 21.1289Z" fill="#1B1C4C"/>
<path d="M27.2189 18.4044C27.4217 18.2642 27.4764 17.9805 27.3444 17.7702C27.2092 17.5599 26.9355 17.5031 26.7327 17.6433L25.2227 18.6781L25.7088 19.4425L27.2189 18.4044Z" fill="#1B1C4C"/>
<path d="M27.8517 19.3896C28.0545 19.2494 28.1093 18.9657 27.9773 18.7554C27.842 18.5451 27.5684 18.4884 27.3655 18.6252L25.8555 19.6633L26.3416 20.4277L27.8517 19.3896Z" fill="#1B1C4C"/>
<path d="M23.4075 22.7745L22.6719 23.2793L23.7897 25.0301L24.5253 24.5253L23.4075 22.7745Z" fill="#1B1C4C"/>
<path d="M24.3607 22.1212L23.625 22.626L24.7428 24.3768L25.4784 23.872L24.3607 22.1212Z" fill="#1B1C4C"/>
<path d="M26.2613 20.8076L24.5742 21.9659L25.0572 22.7236L26.7475 21.5687L26.2613 20.8076Z" fill="#1B1C4C"/>
<path d="M26.9013 21.7959L25.2109 22.9542L25.6939 23.7119L27.3875 22.557L26.9013 21.7959Z" fill="#1B1C4C"/>
<path d="M27.2199 20.1445L26.4844 20.6494L27.6024 22.4001L28.338 21.8951L27.2199 20.1445Z" fill="#1B1C4C"/>
<path d="M28.1731 19.4921L27.4375 19.9971L28.5556 21.7477L29.2911 21.2428L28.1731 19.4921Z" fill="#1B1C4C"/>
<path d="M24.8169 16.3784C24.6817 16.1681 24.408 16.1114 24.2052 16.2483C24.0023 16.3885 23.9476 16.6722 24.0796 16.8825L25.0809 18.448L25.8182 17.944L24.8169 16.3784Z" fill="#1B1C4C"/>
<path d="M25.7583 15.7241C25.6231 15.5139 25.3494 15.4571 25.1466 15.594C24.9437 15.7342 24.889 16.0179 25.021 16.2282L26.0223 17.7937L26.7597 17.2897L25.7583 15.7241Z" fill="#1B1C4C"/>
<path d="M23.7411 16.8525L22.0508 18.0108L22.537 18.7686L24.2273 17.6136L23.7411 16.8525Z" fill="#1B1C4C"/>
<path d="M24.37 17.8408L22.6797 18.9991L23.1659 19.7568L24.8562 18.6019L24.37 17.8408Z" fill="#1B1C4C"/>
<path d="M20.9966 18.9956C20.8614 18.7853 20.5877 18.7286 20.3849 18.8654C20.182 19.0056 20.1273 19.2894 20.2593 19.4997L21.2606 21.0652L21.9979 20.5612L20.9966 18.9956Z" fill="#1B1C4C"/>
<path d="M21.9458 18.3443C21.8106 18.134 21.5369 18.0772 21.3341 18.2141C21.1312 18.3543 21.0765 18.638 21.2085 18.8483L22.2098 20.4138L22.9472 19.9098L21.9458 18.3443Z" fill="#1B1C4C"/>
<path d="M25.62 24.0928L23.9297 25.2511L24.4126 26.0088L26.1062 24.8538L25.62 24.0928Z" fill="#1B1C4C"/>
<path d="M26.2489 25.0811L24.5586 26.2393L25.0448 26.9971L26.7351 25.8421L26.2489 25.0811Z" fill="#1B1C4C"/>
<path d="M29.7423 22.3603C29.9451 22.2201 29.9999 21.9364 29.8679 21.7261C29.7326 21.5158 29.459 21.4591 29.2561 21.5959L27.7461 22.634L28.2323 23.3984L29.7455 22.3603H29.7423Z" fill="#1B1C4C"/>
<path d="M30.3783 23.3447C30.5812 23.2045 30.6359 22.9208 30.5039 22.7105C30.3687 22.5002 30.095 22.4434 29.8922 22.5803L28.3789 23.6184L28.8683 24.3828L30.3783 23.3447Z" fill="#1B1C4C"/>
<path d="M27.7904 24.8567C27.9256 25.067 28.1993 25.1237 28.4021 24.9869C28.605 24.8467 28.6597 24.5629 28.5277 24.3526L27.5264 22.7871L26.7891 23.2911L27.7904 24.8567Z" fill="#1B1C4C"/>
<path d="M26.8412 25.508C26.9764 25.7183 27.2501 25.7751 27.4529 25.6382C27.6557 25.498 27.7105 25.2143 27.5785 25.004L26.5771 23.4385L25.8398 23.9425L26.8412 25.508Z" fill="#1B1C4C"/>
<path d="M20.2317 22.1065L19.4961 22.6113L20.6139 24.3622L21.3495 23.8574L20.2317 22.1065Z" fill="#1B1C4C"/>
<path d="M21.1888 21.4434L20.4531 21.9482L21.5709 23.6991L22.3066 23.1943L21.1888 21.4434Z" fill="#1B1C4C"/>
<path d="M23.9779 27.4739C24.1131 27.6842 24.3868 27.7409 24.5896 27.6041C24.7925 27.4639 24.8472 27.1801 24.7152 26.9698L23.7139 25.4043L22.9766 25.9083L23.9779 27.4739Z" fill="#1B1C4C"/>
<path d="M23.0209 28.1243C23.1561 28.3346 23.4298 28.3913 23.6326 28.2544C23.8354 28.1142 23.8902 27.8305 23.7582 27.6202L22.7568 26.0547L22.0195 26.5587L23.0209 28.1243Z" fill="#1B1C4C"/>
<path d="M21.566 25.4444C21.3631 25.5846 21.3052 25.8683 21.4404 26.0786C21.5756 26.2889 21.8493 26.3456 22.0521 26.2088L23.5622 25.1707L23.076 24.4062L21.566 25.4444Z" fill="#1B1C4C"/>
<path d="M20.9371 24.46C20.7342 24.6002 20.6763 24.8839 20.8115 25.0942C20.9467 25.3045 21.2204 25.3613 21.4232 25.2211L22.9333 24.1863L22.4471 23.4219L20.9371 24.46Z" fill="#1B1C4C"/>
<path d="M19.0425 21.4922C18.8397 21.6324 18.7817 21.9162 18.917 22.1265C19.0522 22.3367 19.3259 22.3935 19.5287 22.2566L21.0387 21.2185L20.5526 20.4541L19.0425 21.4922Z" fill="#1B1C4C"/>
<path d="M18.4136 20.5079C18.2108 20.648 18.1528 20.9318 18.2881 21.1421C18.4233 21.3524 18.697 21.4091 18.8998 21.2723L20.4098 20.2341L19.9237 19.4697L18.4136 20.5079Z" fill="#1B1C4C"/>
<path d="M26.4918 16.3717C27.8924 15.2435 28.2401 13.1672 27.2452 11.605C26.1988 9.96938 24.0738 9.51875 22.493 10.6036C20.9153 11.6885 20.4806 13.8916 21.527 15.5305L21.643 15.7108L22.6443 17.2763L21.907 17.7803L20.9056 16.2148L20.7865 16.0346C19.4729 13.975 20.017 11.2011 22.0036 9.8392C23.9901 8.47729 26.6657 9.04141 27.9793 11.101C29.2447 13.0838 28.7875 15.7275 26.978 17.1394L26.4886 16.375L26.4918 16.3717Z" fill="#1B1C4C"/>
<path d="M25.863 15.3865C26.742 14.6188 26.9481 13.2736 26.2977 12.2555C25.599 11.1606 24.1727 10.8602 23.1166 11.5845C22.0606 12.3089 21.7708 13.7843 22.4695 14.8825L22.5918 15.0594L23.5932 16.6249L22.8558 17.129L21.8545 15.5634L21.7418 15.3798C20.7759 13.8677 21.1752 11.8315 22.6337 10.8335C24.0922 9.83206 26.0562 10.246 27.0221 11.7581C27.9398 13.1934 27.6242 15.0995 26.3428 16.1443L25.8598 15.3865H25.863Z" fill="#1B1C4C"/>
<path d="M29.7487 24.0995C30.8369 25.5515 32.8428 25.912 34.3464 24.8806C35.924 23.7957 36.3587 21.5926 35.3123 19.9536C34.2659 18.318 32.1409 17.8674 30.56 18.9522L30.3862 19.0724L28.8761 20.1105L28.3867 19.3461L29.9 18.308L30.0738 18.1878C32.0604 16.8259 34.736 17.39 36.0496 19.4496C37.3633 21.5092 36.8191 24.2831 34.8326 25.645C32.9201 26.9568 30.3701 26.4828 29.0081 24.6068L29.7454 24.0995H29.7487Z" fill="#1B1C4C"/>
<path d="M30.7009 23.4485C31.4414 24.3631 32.739 24.5734 33.7242 23.8991C34.7803 23.1748 35.07 21.6994 34.3714 20.6012C33.6727 19.5063 32.2464 19.2059 31.1903 19.9302L31.0197 20.0571L29.5096 21.0952L29.0234 20.3308L30.5335 19.296L30.7106 19.1792C32.1691 18.1778 34.1331 18.5917 35.099 20.1038C36.0649 21.6159 35.6657 23.6521 34.2072 24.6502C32.8227 25.6015 30.9842 25.2744 29.9733 23.9459L30.7041 23.4452L30.7009 23.4485Z" fill="#1B1C4C"/>
<path d="M22.3011 27.4809C20.8973 28.6092 20.5528 30.6887 21.5477 32.2476C22.5941 33.8832 24.7191 34.3339 26.3 33.249C27.8776 32.1642 28.3123 29.9611 27.2659 28.3221L27.15 28.1418L26.1487 26.5763L26.886 26.0723L27.8873 27.6378L28.0032 27.8181C29.3169 29.8776 28.7727 32.6515 26.7862 34.0134C24.7996 35.3753 22.124 34.8112 20.8104 32.7516C19.5451 30.7689 20.0023 28.1251 21.8117 26.7132L22.3011 27.4776V27.4809Z" fill="#1B1C4C"/>
<path d="M22.932 28.4651C22.0498 29.2328 21.8469 30.5781 22.4973 31.5962C23.196 32.691 24.6223 32.9915 25.6784 32.2671C26.7344 31.5428 27.0242 30.0674 26.3255 28.9691L26.2032 28.7922L25.2019 27.2267L25.9392 26.7227L26.9405 28.2882L27.0532 28.4718C28.0191 29.9839 27.6199 32.0201 26.1613 33.0215C24.7028 34.0229 22.7388 33.609 21.7729 32.0969C20.8553 30.6615 21.1708 28.7555 22.4522 27.7107L22.9352 28.4684L22.932 28.4651Z" fill="#1B1C4C"/>
<path d="M19.0406 19.7533C17.9523 18.3013 15.9465 17.9408 14.4429 18.9722C12.8652 20.0571 12.4305 22.2602 13.4769 23.8992C14.5233 25.5348 16.6484 25.9854 18.2292 24.9006L18.4031 24.7804L19.9131 23.7423L20.3993 24.5067L18.8893 25.5448L18.7154 25.665C16.7288 27.0269 14.0533 26.4628 12.7396 24.4032C11.426 22.3436 11.9701 19.5697 13.9567 18.2078C15.8692 16.896 18.4224 17.37 19.7811 19.246L19.0438 19.7533H19.0406Z" fill="#1B1C4C"/>
<path d="M18.0924 20.4041C17.3519 19.4895 16.0543 19.2792 15.0691 19.9534C14.013 20.6778 13.7233 22.1532 14.4219 23.2481C15.1206 24.3429 16.5437 24.6434 17.603 23.919L17.7736 23.7922L19.2837 22.754L19.7699 23.5185L18.2566 24.5566L18.0795 24.6734C16.621 25.6748 14.657 25.2609 13.691 23.7488C12.7251 22.2367 13.1244 20.2005 14.5829 19.2024C15.9674 18.2511 17.8058 18.5782 18.8168 19.9067L18.0859 20.4074L18.0924 20.4041Z" fill="#1B1C4C"/>
</g>
<defs>
<clipPath id="clip0_2516_11348">
<rect width="38.3983" height="26.1108" fill="white" transform="translate(5.19531 9.09668)"/>
</clipPath>
</defs>
</svg>
